SplineFontDB: 3.0
FontName: Dhyana
FullName: Dhyana
FamilyName: Dhyana
Weight: Book
Copyright: Copyright (c) 2010-12, Vernon Adams (vern@newtypography.co.uk), with Reserved Font Names "Nobile" and "Dhyana"
Version: 1.002
ItalicAngle: 0
UnderlinePosition: -188
UnderlineWidth: 48
Ascent: 1638
Descent: 410
sfntRevision: 0x00010000
LayerCount: 2
Layer: 0 1 "Back"  1
Layer: 1 1 "Fore"  0
XUID: [1021 723 548469661 13349337]
FSType: 0
OS2Version: 2
OS2_WeightWidthSlopeOnly: 0
OS2_UseTypoMetrics: 1
CreationTime: 1283952577
ModificationTime: 1332927735
PfmFamily: 17
TTFWeight: 400
TTFWidth: 5
LineGap: 0
VLineGap: 0
Panose: 2 0 8 3 5 0 0 2 0 4
OS2TypoAscent: 899
OS2TypoAOffset: 1
OS2TypoDescent: -356
OS2TypoDOffset: 1
OS2TypoLinegap: 0
OS2WinAscent: 0
OS2WinAOffset: 1
OS2WinDescent: 0
OS2WinDOffset: 1
HheadAscent: 0
HheadAOffset: 1
HheadDescent: 0
HheadDOffset: 1
OS2SubXSize: 1331
OS2SubYSize: 1433
OS2SubXOff: 0
OS2SubYOff: 286
OS2SupXSize: 1331
OS2SupYSize: 1433
OS2SupXOff: 0
OS2SupYOff: 983
OS2StrikeYSize: 102
OS2StrikeYPos: 512
OS2Vendor: 'newt'
OS2CodePages: 00000001.00000000
OS2UnicodeRanges: 82000067.1000200a.00000000.00000000
Lookup: 1 0 0 "'liga' Standard Ligatures lookup 0"  {"'liga' Standard Ligatures lookup 0 subtable"  } ['liga' ('lao ' <'dflt' > 'latn' <'dflt' > ) ]
Lookup: 4 0 1 "'liga' Standard Ligatures lookup 1"  {"'liga' Standard Ligatures lookup 1 subtable"  } ['liga' ('lao ' <'dflt' > 'latn' <'dflt' > ) ]
Lookup: 2 0 0 "'ccmp' Glyph Composition/Decomposition in Lao lookup 2"  {"'ccmp' Glyph Composition/Decomposition in Lao lookup 2 subtable"  } ['ccmp' ('lao ' <'dflt' > ) ]
Lookup: 258 0 0 "'kern' Horizontal Kerning in Latin lookup 0"  {"'kern' Horizontal Kerning in Latin lookup 0 subtable"  } ['kern' ('DFLT' <'dflt' > 'latn' <'dflt' > ) ]
Lookup: 258 0 0 "'kern' Horizontal Kerning lookup 1"  {"'kern' Horizontal Kerning lookup 1 per glyph data 0"  "'kern' Horizontal Kerning lookup 1 kerning class 1"  } ['kern' ('DFLT' <'dflt' > ) ]
MarkAttachClasses: 1

StartChar: exclam
Encoding: 33 33 4
Width: 448
GlyphClass: 2
Flags: W
LayerCount: 2
Fore
SplineSet
327 186 m 1,0,-1
 327 -16 l 1,1,-1
 118 -16 l 1,2,-1
 118 186 l 1,3,-1
 327 186 l 1,0,-1
314 399 m 1,4,-1
 140 399 l 1,5,-1
 140 1579 l 1,6,-1
 314 1579 l 1,7,-1
 314 399 l 1,4,-1
EndSplineSet
EndChar

StartChar: quotedbl
Encoding: 34 34 5
Width: 796
GlyphClass: 2
Flags: W
LayerCount: 2
Fore
SplineSet
453 1508 m 2,0,1
 452 1515 452 1515 452 1531 c 0,2,3
 452 1539 452 1539 452.5 1555.5 c 128,-1,4
 453 1572 453 1572 453 1579 c 1,5,-1
 681 1579 l 1,6,7
 681 1572 681 1572 681.5 1555.5 c 128,-1,8
 682 1539 682 1539 682 1531 c 0,9,10
 682 1515 682 1515 681 1508 c 2,11,-1
 621 1058 l 1,12,-1
 513 1058 l 1,13,-1
 453 1508 l 2,0,1
115 1508 m 2,14,15
 114 1515 114 1515 114 1531 c 0,16,17
 114 1539 114 1539 114.5 1555.5 c 128,-1,18
 115 1572 115 1572 115 1579 c 1,19,-1
 343 1579 l 1,20,21
 343 1572 343 1572 343.5 1555.5 c 128,-1,22
 344 1539 344 1539 344 1531 c 0,23,24
 344 1515 344 1515 343 1508 c 2,25,-1
 283 1058 l 1,26,-1
 175 1058 l 1,27,-1
 115 1508 l 2,14,15
EndSplineSet
EndChar

StartChar: numbersign
Encoding: 35 35 6
Width: 1056
GlyphClass: 2
Flags: W
LayerCount: 2
Fore
SplineSet
599 561 m 1,0,-1
 413 561 l 1,1,-1
 380 295 l 1,2,-1
 239 295 l 1,3,-1
 272 561 l 1,4,-1
 106 561 l 1,5,-1
 106 684 l 1,6,-1
 282 684 l 1,7,-1
 309 905 l 1,8,-1
 134 905 l 1,9,-1
 134 1030 l 1,10,-1
 323 1030 l 1,11,-1
 354 1309 l 1,12,-1
 493 1309 l 1,13,-1
 462 1030 l 1,14,-1
 651 1030 l 1,15,-1
 679 1307 l 1,16,-1
 821 1307 l 1,17,-1
 790 1030 l 1,18,-1
 950 1030 l 1,19,-1
 950 905 l 1,20,-1
 778 905 l 1,21,-1
 751 684 l 1,22,-1
 927 684 l 1,23,-1
 927 561 l 1,24,-1
 739 561 l 1,25,-1
 708 295 l 1,26,-1
 567 295 l 1,27,-1
 599 561 l 1,0,-1
425 684 m 1,28,-1
 608 684 l 1,29,-1
 634 905 l 1,30,-1
 452 905 l 1,31,-1
 425 684 l 1,28,-1
EndSplineSet
EndChar

StartChar: dollar
Encoding: 36 36 7
Width: 1019
GlyphClass: 2
Flags: W
LayerCount: 2
Fore
SplineSet
576 1236 m 1,0,1
 650 1234 650 1234 778.5 1216.5 c 128,-1,2
 907 1199 907 1199 907 1172 c 2,3,-1
 907 1171 l 1,4,-1
 855 1040 l 1,5,6
 742 1087 742 1087 576 1098 c 1,7,-1
 576 709 l 1,8,9
 645 686 645 686 689.5 668 c 128,-1,10
 734 650 734 650 791 617.5 c 128,-1,11
 848 585 848 585 881.5 550 c 128,-1,12
 915 515 915 515 938.5 460.5 c 128,-1,13
 962 406 962 406 962 340 c 0,14,15
 962 253 962 253 932.5 186.5 c 128,-1,16
 903 120 903 120 849.5 78 c 128,-1,17
 796 36 796 36 728 12.5 c 128,-1,18
 660 -11 660 -11 576 -18 c 1,19,-1
 576 -178 l 1,20,-1
 473 -178 l 1,21,-1
 473 -20 l 1,22,23
 414 -16 414 -16 350 -2 c 128,-1,24
 286 12 286 12 243.5 24.5 c 128,-1,25
 201 37 201 37 124 63 c 1,26,-1
 173 207 l 1,27,28
 337 145 337 145 473 129 c 1,29,-1
 473 572 l 1,30,31
 428 582 428 582 402 588 c 128,-1,32
 376 594 376 594 335 605 c 128,-1,33
 294 616 294 616 270 626 c 128,-1,34
 246 636 246 636 213 652.5 c 128,-1,35
 180 669 180 669 161 686.5 c 128,-1,36
 142 704 142 704 120 729 c 128,-1,37
 98 754 98 754 86.5 782.5 c 128,-1,38
 75 811 75 811 67.5 848.5 c 128,-1,39
 60 886 60 886 60 929 c 0,40,41
 60 995 60 995 85 1048 c 128,-1,42
 110 1101 110 1101 151 1135 c 128,-1,43
 192 1169 192 1169 247 1193 c 128,-1,44
 302 1217 302 1217 357.5 1227.5 c 128,-1,45
 413 1238 413 1238 473 1240 c 1,46,-1
 473 1390 l 1,47,-1
 576 1390 l 1,48,-1
 576 1236 l 1,0,1
473 745 m 1,49,-1
 473 1100 l 1,50,51
 420 1100 420 1100 380.5 1093.5 c 128,-1,52
 341 1087 341 1087 302.5 1070 c 128,-1,53
 264 1053 264 1053 243.5 1016 c 128,-1,54
 223 979 223 979 223 924 c 0,55,56
 223 882 223 882 248 848.5 c 128,-1,57
 273 815 273 815 314 794.5 c 128,-1,58
 355 774 355 774 393.5 762.5 c 128,-1,59
 432 751 432 751 473 745 c 1,49,-1
576 539 m 1,60,-1
 576 134 l 1,61,62
 669 136 669 136 733 188 c 128,-1,63
 797 240 797 240 797 329 c 0,64,65
 797 349 797 349 793 367 c 128,-1,66
 789 385 789 385 784.5 399 c 128,-1,67
 780 413 780 413 768.5 426.5 c 128,-1,68
 757 440 757 440 749.5 449 c 128,-1,69
 742 458 742 458 725 469 c 128,-1,70
 708 480 708 480 699 486 c 128,-1,71
 690 492 690 492 668.5 501.5 c 128,-1,72
 647 511 647 511 639 514.5 c 128,-1,73
 631 518 631 518 607 527 c 128,-1,74
 583 536 583 536 576 539 c 1,60,-1
EndSplineSet
EndChar

StartChar: percent
Encoding: 37 37 8
Width: 1671
GlyphClass: 2
Flags: W
LayerCount: 2
Fore
SplineSet
1103 393 m 0,0,1
 1103 692 1103 692 1291 692 c 128,-1,2
 1479 692 1479 692 1479 393 c 0,3,4
 1479 89 1479 89 1291 89 c 128,-1,5
 1103 89 1103 89 1103 393 c 0,0,1
970 372 m 0,6,7
 970 295 970 295 989 226 c 128,-1,8
 1008 157 1008 157 1045.5 101 c 128,-1,9
 1083 45 1083 45 1146 12 c 128,-1,10
 1209 -21 1209 -21 1291 -21 c 0,11,12
 1357 -21 1357 -21 1411.5 0.5 c 128,-1,13
 1466 22 1466 22 1502.5 59 c 128,-1,14
 1539 96 1539 96 1564 146.5 c 128,-1,15
 1589 197 1589 197 1600.5 253.5 c 128,-1,16
 1612 310 1612 310 1612 372 c 0,17,18
 1612 459 1612 459 1596.5 530.5 c 128,-1,19
 1581 602 1581 602 1546 664 c 128,-1,20
 1511 726 1511 726 1446 761 c 128,-1,21
 1381 796 1381 796 1291 796 c 128,-1,22
 1201 796 1201 796 1136 761 c 128,-1,23
 1071 726 1071 726 1036 664 c 128,-1,24
 1001 602 1001 602 985.5 530.5 c 128,-1,25
 970 459 970 459 970 372 c 0,6,7
192 1092 m 0,26,27
 192 1391 192 1391 380 1391 c 128,-1,28
 568 1391 568 1391 568 1092 c 0,29,30
 568 788 568 788 380 788 c 128,-1,31
 192 788 192 788 192 1092 c 0,26,27
59 1071 m 0,32,33
 59 994 59 994 78 925 c 128,-1,34
 97 856 97 856 134.5 800 c 128,-1,35
 172 744 172 744 235 711 c 128,-1,36
 298 678 298 678 380 678 c 0,37,38
 446 678 446 678 500.5 699.5 c 128,-1,39
 555 721 555 721 591.5 758 c 128,-1,40
 628 795 628 795 653 845.5 c 128,-1,41
 678 896 678 896 689.5 952.5 c 128,-1,42
 701 1009 701 1009 701 1071 c 0,43,44
 701 1158 701 1158 685.5 1229.5 c 128,-1,45
 670 1301 670 1301 635 1363 c 128,-1,46
 600 1425 600 1425 535 1460 c 128,-1,47
 470 1495 470 1495 380 1495 c 128,-1,48
 290 1495 290 1495 225 1460 c 128,-1,49
 160 1425 160 1425 125 1363 c 128,-1,50
 90 1301 90 1301 74.5 1229.5 c 128,-1,51
 59 1158 59 1158 59 1071 c 0,32,33
425 37 m 1,52,-1
 1107 1497 l 1,53,-1
 1236 1430 l 1,54,-1
 555 -22 l 1,55,-1
 425 37 l 1,52,-1
EndSplineSet
EndChar

StartChar: ampersand
Encoding: 38 38 9
Width: 1536
GlyphClass: 2
Flags: W
LayerCount: 2
Fore
SplineSet
631 -39 m 0,0,1
 544 -39 544 -39 465 -25 c 128,-1,2
 386 -11 386 -11 311.5 22 c 128,-1,3
 237 55 237 55 183 104 c 128,-1,4
 129 153 129 153 96.5 228 c 128,-1,5
 64 303 64 303 64 396 c 0,6,7
 64 727 64 727 398 822 c 1,8,9
 321 870 321 870 258.5 952.5 c 128,-1,10
 196 1035 196 1035 196 1113 c 0,11,12
 196 1197 196 1197 228.5 1262 c 128,-1,13
 261 1327 261 1327 317.5 1366.5 c 128,-1,14
 374 1406 374 1406 444 1425.5 c 128,-1,15
 514 1445 514 1445 595 1445 c 0,16,17
 675 1445 675 1445 745.5 1425.5 c 128,-1,18
 816 1406 816 1406 873 1367 c 128,-1,19
 930 1328 930 1328 963 1263.5 c 128,-1,20
 996 1199 996 1199 996 1115 c 0,21,22
 996 1070 996 1070 984.5 1031.5 c 128,-1,23
 973 993 973 993 956 964.5 c 128,-1,24
 939 936 939 936 909 910 c 128,-1,25
 879 884 879 884 853 867.5 c 128,-1,26
 827 851 827 851 784.5 833.5 c 128,-1,27
 742 816 742 816 713 806 c 128,-1,28
 684 796 684 796 637 781 c 1,29,-1
 1132 391 l 1,30,31
 1146 601 1146 601 1146 796 c 1,32,-1
 1310 796 l 1,33,34
 1310 518 1310 518 1263 277 c 1,35,-1
 1489 95 l 1,36,-1
 1403 -7 l 1,37,-1
 1192 170 l 1,38,39
 1161 112 1161 112 1092.5 68.5 c 128,-1,40
 1024 25 1024 25 939.5 3 c 128,-1,41
 855 -19 855 -19 778 -29 c 128,-1,42
 701 -39 701 -39 631 -39 c 0,0,1
246 418 m 0,43,44
 246 324 246 324 272.5 260.5 c 128,-1,45
 299 197 299 197 352 162.5 c 128,-1,46
 405 128 405 128 471.5 114 c 128,-1,47
 538 100 538 100 631 100 c 0,48,49
 981 100 981 100 1080 256 c 1,50,-1
 492 726 l 1,51,52
 246 674 246 674 246 418 c 0,43,44
836 1119 m 0,53,54
 836 1216 836 1216 767 1263 c 128,-1,55
 698 1310 698 1310 595 1310 c 0,56,57
 362 1310 362 1310 362 1121 c 0,58,59
 362 1055 362 1055 420.5 987 c 128,-1,60
 479 919 479 919 547 883 c 1,61,62
 555 885 555 885 586.5 894.5 c 128,-1,63
 618 904 618 904 628.5 907 c 128,-1,64
 639 910 639 910 667 919.5 c 128,-1,65
 695 929 695 929 706.5 935 c 128,-1,66
 718 941 718 941 740.5 953 c 128,-1,67
 763 965 763 965 773 975.5 c 128,-1,68
 783 986 783 986 798 1002 c 128,-1,69
 813 1018 813 1018 819.5 1034.5 c 128,-1,70
 826 1051 826 1051 831 1073 c 128,-1,71
 836 1095 836 1095 836 1119 c 0,53,54
EndSplineSet
EndChar

StartChar: quotesingle
Encoding: 39 39 10
Width: 353
GlyphClass: 2
Flags: W
LayerCount: 2
Fore
SplineSet
61 1508 m 2,0,1
 60 1515 60 1515 60 1531 c 0,2,3
 60 1539 60 1539 60.5 1555.5 c 128,-1,4
 61 1572 61 1572 61 1579 c 1,5,-1
 289 1579 l 1,6,7
 289 1572 289 1572 289.5 1555.5 c 128,-1,8
 290 1539 290 1539 290 1531 c 0,9,10
 290 1515 290 1515 289 1508 c 2,11,-1
 229 1058 l 1,12,-1
 121 1058 l 1,13,-1
 61 1508 l 2,0,1
EndSplineSet
EndChar

StartChar: parenleft
Encoding: 40 40 11
Width: 467
GlyphClass: 2
Flags: W
LayerCount: 2
Fore
SplineSet
491 1493 m 1,0,1
 390 1404 390 1404 320 1263.5 c 128,-1,2
 250 1123 250 1123 219.5 979.5 c 128,-1,3
 189 836 189 836 189 694 c 0,4,5
 189 597 189 597 205 488.5 c 128,-1,6
 221 380 221 380 253.5 268.5 c 128,-1,7
 286 157 286 157 343.5 58.5 c 128,-1,8
 401 -40 401 -40 475 -97 c 1,9,-1
 392 -205 l 1,10,11
 293 -142 293 -142 216 -34.5 c 128,-1,12
 139 73 139 73 94 198.5 c 128,-1,13
 49 324 49 324 26 450.5 c 128,-1,14
 3 577 3 577 3 696 c 128,-1,15
 3 815 3 815 25.5 940.5 c 128,-1,16
 48 1066 48 1066 92 1188.5 c 128,-1,17
 136 1311 136 1311 210.5 1419 c 128,-1,18
 285 1527 285 1527 380 1595 c 1,19,-1
 491 1493 l 1,0,1
EndSplineSet
EndChar

StartChar: parenright
Encoding: 41 41 12
Width: 469
GlyphClass: 2
Flags: W
LayerCount: 2
Fore
SplineSet
281 694 m 0,0,1
 281 831 281 831 254 975 c 128,-1,2
 227 1119 227 1119 160 1264.5 c 128,-1,3
 93 1410 93 1410 -4 1491 c 1,4,-1
 79 1599 l 1,5,6
 177 1532 177 1532 253.5 1426.5 c 128,-1,7
 330 1321 330 1321 375.5 1200.5 c 128,-1,8
 421 1080 421 1080 444.5 955 c 128,-1,9
 468 830 468 830 468 710 c 0,10,11
 468 582 468 582 446.5 455.5 c 128,-1,12
 425 329 425 329 380.5 205.5 c 128,-1,13
 336 82 336 82 259 -26 c 128,-1,14
 182 -134 182 -134 79 -205 c 1,15,-1
 -21 -99 l 1,16,17
 126 28 126 28 203.5 252 c 128,-1,18
 281 476 281 476 281 694 c 0,0,1
EndSplineSet
EndChar

StartChar: asterisk
Encoding: 42 42 13
Width: 1017
GlyphClass: 2
Flags: W
LayerCount: 2
Fore
SplineSet
508 1292 m 1,0,-1
 647 1567 l 1,1,-1
 750 1509 l 1,2,-1
 592 1237 l 1,3,-1
 903 1237 l 1,4,-1
 903 1145 l 1,5,-1
 594 1145 l 1,6,-1
 764 872 l 1,7,-1
 662 815 l 1,8,-1
 508 1090 l 1,9,-1
 354 815 l 1,10,-1
 252 872 l 1,11,-1
 422 1145 l 1,12,-1
 113 1145 l 1,13,-1
 113 1237 l 1,14,-1
 424 1237 l 1,15,-1
 266 1509 l 1,16,-1
 369 1567 l 1,17,-1
 508 1292 l 1,0,-1
EndSplineSet
EndChar

StartChar: plus
Encoding: 43 43 14
Width: 1005
GlyphClass: 2
Flags: W
LayerCount: 2
Fore
SplineSet
886 518 m 1,0,-1
 572 518 l 1,1,-1
 572 174 l 1,2,-1
 431 174 l 1,3,-1
 431 518 l 1,4,-1
 118 518 l 1,5,-1
 118 651 l 1,6,-1
 431 651 l 1,7,-1
 431 995 l 1,8,-1
 572 995 l 1,9,-1
 572 651 l 1,10,-1
 886 651 l 1,11,-1
 886 518 l 1,0,-1
EndSplineSet
EndChar

StartChar: comma
Encoding: 44 44 15
Width: 522
GlyphClass: 2
Flags: W
LayerCount: 2
Fore
SplineSet
121 0 m 1,0,-1
 121 293 l 1,1,-1
 402 293 l 1,2,-1
 402 44 l 2,3,4
 402 -70 402 -70 343 -145.5 c 128,-1,5
 284 -221 284 -221 173 -253 c 1,6,-1
 122 -159 l 1,7,8
 191 -135 191 -135 222 -101 c 128,-1,9
 253 -67 253 -67 252 0 c 1,10,-1
 121 0 l 1,0,-1
EndSplineSet
EndChar

StartChar: hyphen
Encoding: 45 45 16
Width: 923
GlyphClass: 2
Flags: W
LayerCount: 2
Fore
SplineSet
799 508 m 1,0,-1
 123 508 l 1,1,-1
 123 665 l 1,2,-1
 799 665 l 1,3,-1
 799 508 l 1,0,-1
EndSplineSet
EndChar

StartChar: period
Encoding: 46 46 17
Width: 456
GlyphClass: 2
Flags: W
LayerCount: 2
Fore
SplineSet
230 213 m 0,0,1
 278 213 278 213 308 179.5 c 128,-1,2
 338 146 338 146 338 98 c 128,-1,3
 338 50 338 50 308 16.5 c 128,-1,4
 278 -17 278 -17 230 -17 c 128,-1,5
 182 -17 182 -17 150 16.5 c 128,-1,6
 118 50 118 50 118 98 c 0,7,8
 118 145 118 145 150.5 179 c 128,-1,9
 183 213 183 213 230 213 c 0,0,1
EndSplineSet
EndChar

StartChar: slash
Encoding: 47 47 18
Width: 727
GlyphClass: 2
Flags: W
LayerCount: 2
Fore
SplineSet
-33 -117 m 1,0,-1
 592 1731 l 1,1,-1
 761 1669 l 1,2,-1
 137 -179 l 1,3,-1
 -33 -117 l 1,0,-1
EndSplineSet
EndChar

StartChar: zero
Encoding: 48 48 19
Width: 1374
GlyphClass: 2
Flags: W
LayerCount: 2
Fore
SplineSet
685 1069 m 0,0,1
 600 1069 600 1069 534 1043.5 c 128,-1,2
 468 1018 468 1018 425.5 974.5 c 128,-1,3
 383 931 383 931 355 869 c 128,-1,4
 327 807 327 807 315.5 739 c 128,-1,5
 304 671 304 671 304 592 c 0,6,7
 304 512 304 512 316 443.5 c 128,-1,8
 328 375 328 375 356 312.5 c 128,-1,9
 384 250 384 250 427 206 c 128,-1,10
 470 162 470 162 536 136.5 c 128,-1,11
 602 111 602 111 685 111 c 0,12,13
 772 111 772 111 840 138 c 128,-1,14
 908 165 908 165 950.5 210.5 c 128,-1,15
 993 256 993 256 1020.5 321 c 128,-1,16
 1048 386 1048 386 1059 455.5 c 128,-1,17
 1070 525 1070 525 1070 606 c 0,18,19
 1070 704 1070 704 1049 785 c 128,-1,20
 1028 866 1028 866 983.5 931 c 128,-1,21
 939 996 939 996 863 1032.5 c 128,-1,22
 787 1069 787 1069 685 1069 c 0,0,1
1256 590 m 128,-1,24
 1256 412 1256 412 1191.5 273 c 128,-1,25
 1127 134 1127 134 996 51.5 c 128,-1,26
 865 -31 865 -31 685 -31 c 0,27,28
 551 -31 551 -31 442.5 17 c 128,-1,29
 334 65 334 65 263.5 149.5 c 128,-1,30
 193 234 193 234 155.5 346.5 c 128,-1,31
 118 459 118 459 118 590 c 0,32,33
 118 724 118 724 154.5 836.5 c 128,-1,34
 191 949 191 949 260.5 1032.5 c 128,-1,35
 330 1116 330 1116 439 1163 c 128,-1,36
 548 1210 548 1210 685 1210 c 0,37,38
 866 1210 866 1210 997 1127.5 c 128,-1,39
 1128 1045 1128 1045 1192 906.5 c 128,-1,23
 1256 768 1256 768 1256 590 c 128,-1,24
EndSplineSet
EndChar

StartChar: one
Encoding: 49 49 20
Width: 650
GlyphClass: 2
Flags: W
LayerCount: 2
Fore
SplineSet
348 0 m 1,0,-1
 348 1057 l 1,1,-1
 141 957 l 1,2,-1
 88 1083 l 1,3,-1
 345 1202 l 1,4,-1
 535 1202 l 1,5,-1
 535 0 l 1,6,-1
 348 0 l 1,0,-1
EndSplineSet
EndChar

StartChar: two
Encoding: 50 50 21
Width: 1054
GlyphClass: 2
Flags: W
LayerCount: 2
Fore
SplineSet
337 152 m 1,0,-1
 933 152 l 1,1,-1
 933 0 l 1,2,-1
 118 0 l 1,3,-1
 118 146 l 1,4,-1
 526 480 l 2,5,6
 573 519 573 519 598 540.5 c 128,-1,7
 623 562 623 562 661.5 602.5 c 128,-1,8
 700 643 700 643 720 675.5 c 128,-1,9
 740 708 740 708 755.5 753.5 c 128,-1,10
 771 799 771 799 771 846 c 0,11,12
 771 904 771 904 748 947 c 128,-1,13
 725 990 725 990 685 1013.5 c 128,-1,14
 645 1037 645 1037 597.5 1048 c 128,-1,15
 550 1059 550 1059 495 1059 c 0,16,17
 368 1059 368 1059 230 992 c 1,18,-1
 177 1108 l 1,19,20
 306 1198 306 1198 517 1198 c 0,21,22
 607 1198 607 1198 681 1178 c 128,-1,23
 755 1158 755 1158 812.5 1117 c 128,-1,24
 870 1076 870 1076 901.5 1006.5 c 128,-1,25
 933 937 933 937 933 845 c 0,26,27
 933 774 933 774 901 700.5 c 128,-1,28
 869 627 869 627 824 569.5 c 128,-1,29
 779 512 779 512 707 445.5 c 128,-1,30
 635 379 635 379 580 337 c 128,-1,31
 525 295 525 295 447.5 236.5 c 128,-1,32
 370 178 370 178 337 152 c 1,0,-1
EndSplineSet
EndChar

StartChar: three
Encoding: 51 51 22
Width: 988
GlyphClass: 2
Flags: W
LayerCount: 2
Fore
SplineSet
724 843 m 0,0,1
 724 908 724 908 701.5 952.5 c 128,-1,2
 679 997 679 997 637 1020.5 c 128,-1,3
 595 1044 595 1044 546.5 1053.5 c 128,-1,4
 498 1063 498 1063 435 1063 c 0,5,6
 285 1063 285 1063 138 992 c 1,7,-1
 88 1125 l 1,8,9
 269 1206 269 1206 441 1206 c 0,10,11
 528 1206 528 1206 604 1188 c 128,-1,12
 680 1170 680 1170 746 1132 c 128,-1,13
 812 1094 812 1094 850.5 1026 c 128,-1,14
 889 958 889 958 889 866 c 0,15,16
 889 740 889 740 807 643 c 128,-1,17
 725 546 725 546 600 545 c 1,18,19
 753 513 753 513 840.5 416.5 c 128,-1,20
 928 320 928 320 928 166 c 0,21,22
 928 75 928 75 886.5 3 c 128,-1,23
 845 -69 845 -69 776.5 -111.5 c 128,-1,24
 708 -154 708 -154 627 -176 c 128,-1,25
 546 -198 546 -198 460 -198 c 0,26,27
 252 -198 252 -198 55 -102 c 1,28,-1
 109 31 l 1,29,30
 185 -10 185 -10 282 -34.5 c 128,-1,31
 379 -59 379 -59 464 -59 c 0,32,33
 595 -59 595 -59 671.5 0 c 128,-1,34
 748 59 748 59 748 186 c 0,35,36
 748 434 748 434 412 471 c 1,37,-1
 412 614 l 1,38,39
 473 614 473 614 525 625 c 128,-1,40
 577 636 577 636 623.5 661 c 128,-1,41
 670 686 670 686 697 732.5 c 128,-1,42
 724 779 724 779 724 843 c 0,0,1
EndSplineSet
EndChar

StartChar: four
Encoding: 52 52 23
Width: 1253
GlyphClass: 2
Flags: W
LayerCount: 2
Fore
SplineSet
794 1208 m 1,0,-1
 956 1169 l 1,1,-1
 956 207 l 1,2,-1
 1142 207 l 1,3,-1
 1142 68 l 1,4,-1
 956 68 l 1,5,-1
 956 -260 l 1,6,-1
 785 -260 l 1,7,-1
 785 68 l 1,8,-1
 138 68 l 1,9,-1
 110 205 l 1,10,-1
 794 1208 l 1,0,-1
785 930 m 1,11,-1
 295 205 l 1,12,-1
 785 205 l 1,13,-1
 785 930 l 1,11,-1
EndSplineSet
EndChar

StartChar: five
Encoding: 53 53 24
Width: 990
GlyphClass: 2
Flags: W
LayerCount: 2
Fore
SplineSet
441 -56 m 0,0,1
 758 -56 758 -56 758 244 c 0,2,3
 758 391 758 391 682.5 476.5 c 128,-1,4
 607 562 607 562 461 562 c 0,5,6
 354 562 354 562 162 468 c 1,7,-1
 94 537 l 1,8,-1
 94 1169 l 1,9,-1
 842 1169 l 1,10,-1
 842 1018 l 1,11,-1
 239 1018 l 1,12,-1
 239 622 l 1,13,14
 274 661 274 661 344.5 679.5 c 128,-1,15
 415 698 415 698 479 698 c 0,16,17
 681 698 681 698 805.5 574 c 128,-1,18
 930 450 930 450 930 248 c 0,19,20
 930 31 930 31 794.5 -88 c 128,-1,21
 659 -207 659 -207 439 -207 c 0,22,23
 343 -207 343 -207 260 -184.5 c 128,-1,24
 177 -162 177 -162 58 -114 c 1,25,-1
 109 31 l 1,26,27
 280 -56 280 -56 441 -56 c 0,0,1
EndSplineSet
EndChar

StartChar: six
Encoding: 54 54 25
Width: 1235
GlyphClass: 2
Flags: W
LayerCount: 2
Fore
SplineSet
945 335 m 0,0,1
 945 182 945 182 858.5 84 c 128,-1,2
 772 -14 772 -14 621 -14 c 0,3,4
 548 -14 548 -14 491 8.5 c 128,-1,5
 434 31 434 31 397.5 69 c 128,-1,6
 361 107 361 107 337.5 161.5 c 128,-1,7
 314 216 314 216 304 274.5 c 128,-1,8
 294 333 294 333 294 401 c 0,9,10
 294 483 294 483 300 523 c 1,11,12
 349 578 349 578 461.5 617.5 c 128,-1,13
 574 657 574 657 655 657 c 0,14,15
 793 657 793 657 869 567 c 128,-1,16
 945 477 945 477 945 335 c 0,0,1
116 425 m 0,17,18
 116 300 116 300 146 196 c 128,-1,19
 176 92 176 92 235.5 12.5 c 128,-1,20
 295 -67 295 -67 393.5 -111.5 c 128,-1,21
 492 -156 492 -156 621 -156 c 0,22,23
 844 -156 844 -156 982.5 -21 c 128,-1,24
 1121 114 1121 114 1121 335 c 0,25,26
 1121 542 1121 542 991.5 667.5 c 128,-1,27
 862 793 862 793 655 793 c 0,28,29
 434 793 434 793 314 649 c 1,30,31
 352 853 352 853 507 991 c 128,-1,32
 662 1129 662 1129 874 1174 c 1,33,-1
 831 1319 l 1,34,35
 501 1241 501 1241 308.5 1002 c 128,-1,36
 116 763 116 763 116 425 c 0,17,18
EndSplineSet
EndChar

StartChar: seven
Encoding: 55 55 26
Width: 1114
GlyphClass: 2
Flags: W
LayerCount: 2
Fore
SplineSet
952 1229 m 1,0,-1
 1009 1107 l 1,1,-1
 437 -176 l 1,2,-1
 269 -100 l 1,3,-1
 794 1074 l 1,4,-1
 116 1074 l 1,5,-1
 116 1229 l 1,6,-1
 952 1229 l 1,0,-1
EndSplineSet
EndChar

StartChar: eight
Encoding: 56 56 27
Width: 1186
GlyphClass: 2
Flags: W
LayerCount: 2
Fore
SplineSet
599 1334 m 0,0,1
 510 1334 510 1334 428 1313 c 128,-1,2
 346 1292 346 1292 275.5 1250 c 128,-1,3
 205 1208 205 1208 162.5 1135 c 128,-1,4
 120 1062 120 1062 120 968 c 0,5,6
 120 845 120 845 190.5 760.5 c 128,-1,7
 261 676 261 676 382 636 c 1,8,9
 249 594 249 594 184.5 487 c 128,-1,10
 120 380 120 380 120 233 c 0,11,12
 120 134 120 134 160.5 58.5 c 128,-1,13
 201 -17 201 -17 270 -61 c 128,-1,14
 339 -105 339 -105 422 -126.5 c 128,-1,15
 505 -148 505 -148 599 -148 c 128,-1,16
 693 -148 693 -148 774.5 -126.5 c 128,-1,17
 856 -105 856 -105 922.5 -61 c 128,-1,18
 989 -17 989 -17 1027.5 58 c 128,-1,19
 1066 133 1066 133 1066 231 c 0,20,21
 1066 378 1066 378 1001.5 485 c 128,-1,22
 937 592 937 592 804 634 c 1,23,24
 926 676 926 676 996 759.5 c 128,-1,25
 1066 843 1066 843 1066 966 c 0,26,27
 1066 1042 1066 1042 1039.5 1104.5 c 128,-1,28
 1013 1167 1013 1167 968 1209 c 128,-1,29
 923 1251 923 1251 862.5 1279.5 c 128,-1,30
 802 1308 802 1308 736 1321 c 128,-1,31
 670 1334 670 1334 599 1334 c 0,0,1
599 -9 m 128,-1,33
 449 -9 449 -9 373.5 51 c 128,-1,34
 298 111 298 111 298 255 c 0,35,36
 298 389 298 389 382 482 c 128,-1,37
 466 575 466 575 599 575 c 0,38,39
 729 575 729 575 808.5 480 c 128,-1,40
 888 385 888 385 888 253 c 0,41,42
 888 108 888 108 818.5 49.5 c 128,-1,32
 749 -9 749 -9 599 -9 c 128,-1,33
599 691 m 0,43,44
 480 691 480 691 389 770 c 128,-1,45
 298 849 298 849 298 966 c 0,46,47
 298 1031 298 1031 323 1077.5 c 128,-1,48
 348 1124 348 1124 391.5 1150 c 128,-1,49
 435 1176 435 1176 486.5 1187.5 c 128,-1,50
 538 1199 538 1199 599 1199 c 128,-1,51
 660 1199 660 1199 710.5 1186.5 c 128,-1,52
 761 1174 761 1174 801.5 1147.5 c 128,-1,53
 842 1121 842 1121 865 1074.5 c 128,-1,54
 888 1028 888 1028 888 964 c 0,55,56
 888 848 888 848 802 769.5 c 128,-1,57
 716 691 716 691 599 691 c 0,43,44
EndSplineSet
EndChar

StartChar: nine
Encoding: 57 57 28
Width: 1235
GlyphClass: 2
Flags: W
LayerCount: 2
Fore
SplineSet
291 823 m 0,0,1
 291 976 291 976 377.5 1074 c 128,-1,2
 464 1172 464 1172 615 1172 c 0,3,4
 688 1172 688 1172 745 1149.5 c 128,-1,5
 802 1127 802 1127 838.5 1089 c 128,-1,6
 875 1051 875 1051 898.5 996.5 c 128,-1,7
 922 942 922 942 932 883.5 c 128,-1,8
 942 825 942 825 942 757 c 0,9,10
 942 675 942 675 936 635 c 1,11,12
 889 580 889 580 776 540.5 c 128,-1,13
 663 501 663 501 581 501 c 0,14,15
 443 501 443 501 367 591 c 128,-1,16
 291 681 291 681 291 823 c 0,0,1
1120 733 m 0,17,18
 1120 858 1120 858 1090 962 c 128,-1,19
 1060 1066 1060 1066 1000.5 1145.5 c 128,-1,20
 941 1225 941 1225 842.5 1269.5 c 128,-1,21
 744 1314 744 1314 615 1314 c 0,22,23
 392 1314 392 1314 253.5 1179 c 128,-1,24
 115 1044 115 1044 115 823 c 0,25,26
 115 615 115 615 244 490 c 128,-1,27
 373 365 373 365 581 365 c 0,28,29
 802 365 802 365 922 509 c 1,30,31
 884 306 884 306 728.5 166.5 c 128,-1,32
 573 27 573 27 362 -16 c 1,33,-1
 405 -161 l 1,34,35
 735 -84 735 -84 927.5 155.5 c 128,-1,36
 1120 395 1120 395 1120 733 c 0,17,18
EndSplineSet
EndChar

StartChar: colon
Encoding: 58 58 29
Width: 528
GlyphClass: 2
Flags: W
LayerCount: 2
Fore
SplineSet
129 281 m 1,0,-1
 399 281 l 1,1,-1
 399 0 l 1,2,-1
 129 0 l 1,3,-1
 129 281 l 1,0,-1
129 864 m 1,4,-1
 399 864 l 1,5,-1
 399 583 l 1,6,-1
 129 583 l 1,7,-1
 129 864 l 1,4,-1
EndSplineSet
EndChar

StartChar: semicolon
Encoding: 59 59 30
Width: 535
GlyphClass: 2
Flags: W
LayerCount: 2
Fore
SplineSet
128 864 m 1,0,-1
 408 864 l 1,1,-1
 408 583 l 1,2,-1
 128 583 l 1,3,-1
 128 864 l 1,0,-1
127 0 m 1,4,-1
 127 293 l 1,5,-1
 408 293 l 1,6,-1
 408 44 l 2,7,8
 408 -70 408 -70 349 -145.5 c 128,-1,9
 290 -221 290 -221 179 -253 c 1,10,-1
 128 -159 l 1,11,12
 197 -135 197 -135 228 -101 c 128,-1,13
 259 -67 259 -67 258 0 c 1,14,-1
 127 0 l 1,4,-1
EndSplineSet
EndChar

StartChar: less
Encoding: 60 60 31
Width: 868
GlyphClass: 2
Flags: W
LayerCount: 2
Fore
SplineSet
52 663 m 1,0,-1
 707 1266 l 1,1,-1
 809 1156 l 1,2,-1
 258 663 l 1,3,-1
 809 170 l 1,4,-1
 707 60 l 1,5,-1
 52 663 l 1,0,-1
EndSplineSet
EndChar

StartChar: equal
Encoding: 61 61 32
Width: 835
GlyphClass: 2
Flags: W
LayerCount: 2
Fore
SplineSet
711 508 m 1,0,-1
 123 508 l 1,1,-1
 123 639 l 1,2,-1
 711 639 l 1,3,-1
 711 508 l 1,0,-1
711 280 m 1,4,-1
 123 280 l 1,5,-1
 123 411 l 1,6,-1
 711 411 l 1,7,-1
 711 280 l 1,4,-1
EndSplineSet
EndChar

StartChar: greater
Encoding: 62 62 33
Width: 694
GlyphClass: 2
Flags: W
LayerCount: 2
Fore
SplineSet
730 663 m 1,0,-1
 75 1266 l 1,1,-1
 -27 1156 l 1,2,-1
 524 663 l 1,3,-1
 -27 170 l 1,4,-1
 75 60 l 1,5,-1
 730 663 l 1,0,-1
EndSplineSet
EndChar

StartChar: question
Encoding: 63 63 34
Width: 971
GlyphClass: 2
Flags: W
LayerCount: 2
Fore
SplineSet
386 675 m 1,0,-1
 386 292 l 1,1,-1
 206 292 l 1,2,-1
 206 777 l 1,3,4
 404 844 404 844 495 892 c 1,5,6
 728 1018 728 1018 729 1197 c 0,7,8
 729 1254 729 1254 711.5 1295 c 128,-1,9
 694 1336 694 1336 667 1359.5 c 128,-1,10
 640 1383 640 1383 597 1396.5 c 128,-1,11
 554 1410 554 1410 513.5 1414 c 128,-1,12
 473 1418 473 1418 418 1418 c 0,13,14
 337 1418 337 1418 245.5 1395 c 128,-1,15
 154 1372 154 1372 90 1332 c 1,16,-1
 31 1475 l 1,17,18
 114 1523 114 1523 226.5 1551 c 128,-1,19
 339 1579 339 1579 437 1579 c 0,20,21
 513 1579 513 1579 580 1568.5 c 128,-1,22
 647 1558 647 1558 711 1532 c 128,-1,23
 775 1506 775 1506 820 1466 c 128,-1,24
 865 1426 865 1426 892.5 1362 c 128,-1,25
 920 1298 920 1298 920 1216 c 0,26,27
 920 1149 920 1149 903.5 1090 c 128,-1,28
 887 1031 887 1031 860.5 985 c 128,-1,29
 834 939 834 939 791.5 897.5 c 128,-1,30
 749 856 749 856 706 826 c 128,-1,31
 663 796 663 796 605.5 766.5 c 128,-1,32
 548 737 548 737 498.5 717 c 128,-1,33
 449 697 449 697 386 675 c 1,0,-1
287 -40 m 0,34,35
 243 -40 243 -40 213 -7 c 128,-1,36
 183 26 183 26 183 70 c 0,37,38
 183 112 183 112 216 140.5 c 128,-1,39
 249 169 249 169 291 169 c 0,40,41
 332 169 332 169 362 137 c 128,-1,42
 392 105 392 105 392 64 c 0,43,44
 392 21 392 21 361 -9.5 c 128,-1,45
 330 -40 330 -40 287 -40 c 0,34,35
EndSplineSet
EndChar

StartChar: at
Encoding: 64 64 35
Width: 1873
GlyphClass: 2
Flags: W
LayerCount: 2
Fore
SplineSet
1207 987 m 1,0,1
 1107 1008 1107 1008 1031 1008 c 0,2,3
 850 1008 850 1008 726.5 881.5 c 128,-1,4
 603 755 603 755 603 573 c 0,5,6
 603 330 603 330 828 330 c 0,7,8
 1202 330 1202 330 1207 987 c 1,0,1
1440 134 m 1,9,-1
 1531 42 l 1,10,11
 1467 -29 1467 -29 1360.5 -75.5 c 128,-1,12
 1254 -122 1254 -122 1151.5 -138.5 c 128,-1,13
 1049 -155 1049 -155 943 -155 c 0,14,15
 801 -155 801 -155 676.5 -127 c 128,-1,16
 552 -99 552 -99 447 -40.5 c 128,-1,17
 342 18 342 18 267 103.5 c 128,-1,18
 192 189 192 189 150 310 c 128,-1,19
 108 431 108 431 108 578 c 0,20,21
 108 761 108 761 171.5 923 c 128,-1,22
 235 1085 235 1085 346 1202.5 c 128,-1,23
 457 1320 457 1320 616.5 1388 c 128,-1,24
 776 1456 776 1456 960 1456 c 0,25,26
 1127 1456 1127 1456 1271 1412.5 c 128,-1,27
 1415 1369 1415 1369 1527.5 1284.5 c 128,-1,28
 1640 1200 1640 1200 1704.5 1064 c 128,-1,29
 1769 928 1769 928 1769 756 c 0,30,31
 1769 674 1769 674 1752.5 595.5 c 128,-1,32
 1736 517 1736 517 1700.5 445 c 128,-1,33
 1665 373 1665 373 1614 318.5 c 128,-1,34
 1563 264 1563 264 1489.5 231.5 c 128,-1,35
 1416 199 1416 199 1328 199 c 0,36,37
 1220 199 1220 199 1220 383 c 0,38,39
 1220 417 1220 417 1224 474 c 128,-1,40
 1228 531 1228 531 1228 548 c 1,41,42
 1196 392 1196 392 1083 295.5 c 128,-1,43
 970 199 970 199 812 199 c 0,44,45
 638 199 638 199 543 306 c 128,-1,46
 448 413 448 413 448 590 c 0,47,48
 448 734 448 734 529.5 859 c 128,-1,49
 611 984 611 984 742 1056 c 128,-1,50
 873 1128 873 1128 1015 1128 c 0,51,52
 1104 1128 1104 1128 1300 1096 c 1,53,-1
 1355 987 l 1,54,-1
 1355 317 l 1,55,-1
 1358 317 l 2,56,57
 1609 317 1609 317 1609 758 c 0,58,59
 1609 904 1609 904 1560.5 1013.5 c 128,-1,60
 1512 1123 1512 1123 1423.5 1188 c 128,-1,61
 1335 1253 1335 1253 1221 1285 c 128,-1,62
 1107 1317 1107 1317 966 1317 c 0,63,64
 804 1317 804 1317 672 1261.5 c 128,-1,65
 540 1206 540 1206 451.5 1107.5 c 128,-1,66
 363 1009 363 1009 315 873.5 c 128,-1,67
 267 738 267 738 267 578 c 0,68,69
 267 455 267 455 301.5 355.5 c 128,-1,70
 336 256 336 256 397 187.5 c 128,-1,71
 458 119 458 119 544.5 72.5 c 128,-1,72
 631 26 631 26 732.5 5 c 128,-1,73
 834 -16 834 -16 953 -16 c 0,74,75
 1100 -16 1100 -16 1218 18 c 128,-1,76
 1336 52 1336 52 1440 134 c 1,9,-1
EndSplineSet
EndChar

StartChar: A
Encoding: 65 65 36
Width: 1501
GlyphClass: 2
Flags: W
LayerCount: 2
Fore
SplineSet
1067 485 m 1,0,-1
 750 1460 l 1,1,-1
 433 485 l 1,2,-1
 1067 485 l 1,0,-1
1100 383 m 1,3,-1
 400 383 l 1,4,-1
 277 0 l 1,5,-1
 84 0 l 1,6,-1
 600 1579 l 1,7,-1
 900 1579 l 1,8,-1
 1416 0 l 1,9,-1
 1223 0 l 1,10,-1
 1100 383 l 1,3,-1
EndSplineSet
EndChar

StartChar: B
Encoding: 66 66 37
Width: 1350
GlyphClass: 2
Flags: W
LayerCount: 2
Fore
SplineSet
996 1188 m 0,0,1
 996 1237 996 1237 980.5 1276 c 128,-1,2
 965 1315 965 1315 941 1341 c 128,-1,3
 917 1367 917 1367 878 1385 c 128,-1,4
 839 1403 839 1403 803.5 1413 c 128,-1,5
 768 1423 768 1423 717.5 1428.5 c 128,-1,6
 667 1434 667 1434 631.5 1435 c 128,-1,7
 596 1436 596 1436 546 1436 c 2,8,-1
 488 1436 l 1,9,-1
 317 1436 l 1,10,-1
 317 915 l 1,11,-1
 576 915 l 2,12,13
 627 915 627 915 665 917 c 128,-1,14
 703 919 703 919 749.5 925 c 128,-1,15
 796 931 796 931 829 942.5 c 128,-1,16
 862 954 862 954 895.5 974.5 c 128,-1,17
 929 995 929 995 949.5 1023 c 128,-1,18
 970 1051 970 1051 983 1093 c 128,-1,19
 996 1135 996 1135 996 1188 c 0,0,1
543 143 m 2,20,21
 594 143 594 143 627 143.5 c 128,-1,22
 660 144 660 144 708 147.5 c 128,-1,23
 756 151 756 151 788.5 157 c 128,-1,24
 821 163 821 163 861 174.5 c 128,-1,25
 901 186 901 186 927.5 202 c 128,-1,26
 954 218 954 218 981.5 242.5 c 128,-1,27
 1009 267 1009 267 1025 298.5 c 128,-1,28
 1041 330 1041 330 1051 372.5 c 128,-1,29
 1061 415 1061 415 1061 466 c 0,30,31
 1061 527 1061 527 1046.5 576 c 128,-1,32
 1032 625 1032 625 1008 658 c 128,-1,33
 984 691 984 691 946 715 c 128,-1,34
 908 739 908 739 869.5 752.5 c 128,-1,35
 831 766 831 766 778.5 774 c 128,-1,36
 726 782 726 782 682 784 c 128,-1,37
 638 786 638 786 580 786 c 2,38,-1
 317 786 l 1,39,-1
 317 143 l 1,40,-1
 543 143 l 2,20,21
836 862 m 1,41,42
 1033 840 1033 840 1138 734 c 128,-1,43
 1243 628 1243 628 1243 434 c 0,44,45
 1243 353 1243 353 1219.5 288 c 128,-1,46
 1196 223 1196 223 1157.5 178.5 c 128,-1,47
 1119 134 1119 134 1061.5 100.5 c 128,-1,48
 1004 67 1004 67 945.5 48.5 c 128,-1,49
 887 30 887 30 813 18.5 c 128,-1,50
 739 7 739 7 677 3.5 c 128,-1,51
 615 0 615 0 543 0 c 2,52,-1
 123 0 l 1,53,-1
 123 1579 l 1,54,-1
 484 1579 l 2,55,56
 546 1579 546 1579 586.5 1578 c 128,-1,57
 627 1577 627 1577 689 1573.5 c 128,-1,58
 751 1570 751 1570 793 1562.5 c 128,-1,59
 835 1555 835 1555 888.5 1541.5 c 128,-1,60
 942 1528 942 1528 978 1508.5 c 128,-1,61
 1014 1489 1014 1489 1051.5 1459 c 128,-1,62
 1089 1429 1089 1429 1111 1391.5 c 128,-1,63
 1133 1354 1133 1354 1147 1302 c 128,-1,64
 1161 1250 1161 1250 1161 1188 c 0,65,66
 1161 1036 1161 1036 1079 961 c 128,-1,67
 997 886 997 886 836 862 c 1,41,42
EndSplineSet
EndChar

StartChar: C
Encoding: 67 67 38
Width: 1328
GlyphClass: 2
Flags: W
LayerCount: 2
Fore
SplineSet
794 1458 m 0,0,1
 677 1458 677 1458 589.5 1419 c 128,-1,2
 502 1380 502 1380 450.5 1318 c 128,-1,3
 399 1256 399 1256 367.5 1164.5 c 128,-1,4
 336 1073 336 1073 325.5 983.5 c 128,-1,5
 315 894 315 894 315 784 c 128,-1,6
 315 674 315 674 326 583.5 c 128,-1,7
 337 493 337 493 369 402 c 128,-1,8
 401 311 401 311 452.5 249.5 c 128,-1,9
 504 188 504 188 591 149.5 c 128,-1,10
 678 111 678 111 794 111 c 0,11,12
 832 111 832 111 868.5 116.5 c 128,-1,13
 905 122 905 122 951 136.5 c 128,-1,14
 997 151 997 151 1019.5 159 c 128,-1,15
 1042 167 1042 167 1099.5 190.5 c 128,-1,16
 1157 214 1157 214 1168 218 c 1,17,-1
 1224 79 l 1,18,19
 1047 7 1047 7 977 -12 c 0,20,21
 873 -41 873 -41 774 -41 c 0,22,23
 627 -41 627 -41 512 3.5 c 128,-1,24
 397 48 397 48 323.5 123.5 c 128,-1,25
 250 199 250 199 202 306.5 c 128,-1,26
 154 414 154 414 134 532 c 128,-1,27
 114 650 114 650 114 788 c 0,28,29
 114 931 114 931 136 1052 c 128,-1,30
 158 1173 158 1173 209 1277.5 c 128,-1,31
 260 1382 260 1382 337 1454.5 c 128,-1,32
 414 1527 414 1527 530.5 1568.5 c 128,-1,33
 647 1610 647 1610 794 1610 c 0,34,35
 833 1610 833 1610 870.5 1606.5 c 128,-1,36
 908 1603 908 1603 934.5 1599.5 c 128,-1,37
 961 1596 961 1596 1000.5 1586 c 128,-1,38
 1040 1576 1040 1576 1059.5 1570.5 c 128,-1,39
 1079 1565 1079 1565 1127 1550.5 c 128,-1,40
 1175 1536 1175 1536 1196 1530 c 1,41,-1
 1151 1385 l 1,42,43
 956 1458 956 1458 794 1458 c 0,0,1
EndSplineSet
EndChar

StartChar: D
Encoding: 68 68 39
Width: 1469
GlyphClass: 2
Flags: W
LayerCount: 2
Fore
SplineSet
698 1436 m 2,0,-1
 317 1436 l 1,1,-1
 317 143 l 1,2,-1
 698 143 l 2,3,4
 812 143 812 143 896 180 c 128,-1,5
 980 217 980 217 1029 276 c 128,-1,6
 1078 335 1078 335 1107.5 423 c 128,-1,7
 1137 511 1137 511 1146.5 596.5 c 128,-1,8
 1156 682 1156 682 1156 789 c 0,9,10
 1156 863 1156 863 1151 926.5 c 128,-1,11
 1146 990 1146 990 1133 1057.5 c 128,-1,12
 1120 1125 1120 1125 1098.5 1179 c 128,-1,13
 1077 1233 1077 1233 1041.5 1282.5 c 128,-1,14
 1006 1332 1006 1332 959 1364.5 c 128,-1,15
 912 1397 912 1397 845.5 1416.5 c 128,-1,16
 779 1436 779 1436 698 1436 c 2,0,-1
698 1579 m 2,17,18
 1357 1579 1357 1579 1357 788 c 0,19,20
 1357 0 1357 0 698 0 c 2,21,-1
 123 0 l 1,22,-1
 123 1579 l 1,23,-1
 698 1579 l 2,17,18
EndSplineSet
PairPos2: "'kern' Horizontal Kerning lookup 1 per glyph data 0" Y dx=0 dy=0 dh=-21 dv=0 dx=0 dy=0 dh=0 dv=0
PairPos2: "'kern' Horizontal Kerning lookup 1 per glyph data 0" X dx=0 dy=0 dh=-16 dv=0 dx=0 dy=0 dh=0 dv=0
PairPos2: "'kern' Horizontal Kerning lookup 1 per glyph data 0" W dx=0 dy=0 dh=-9 dv=0 dx=0 dy=0 dh=0 dv=0
PairPos2: "'kern' Horizontal Kerning lookup 1 per glyph data 0" W dx=0 dy=0 dh=-70 dv=0 dx=0 dy=0 dh=0 dv=0
PairPos2: "'kern' Horizontal Kerning lookup 1 per glyph data 0" V dx=0 dy=0 dh=-70 dv=0 dx=0 dy=0 dh=0 dv=0
PairPos2: "'kern' Horizontal Kerning lookup 1 per glyph data 0" V dx=0 dy=0 dh=-20 dv=0 dx=0 dy=0 dh=0 dv=0
PairPos2: "'kern' Horizontal Kerning lookup 1 per glyph data 0" T dx=0 dy=0 dh=-21 dv=0 dx=0 dy=0 dh=0 dv=0
PairPos2: "'kern' Horizontal Kerning lookup 1 per glyph data 0" A dx=0 dy=0 dh=-70 dv=0 dx=0 dy=0 dh=0 dv=0
PairPos2: "'kern' Horizontal Kerning lookup 1 per glyph data 0" period dx=0 dy=0 dh=-115 dv=0 dx=0 dy=0 dh=0 dv=0
PairPos2: "'kern' Horizontal Kerning lookup 1 per glyph data 0" comma dx=0 dy=0 dh=-100 dv=0 dx=0 dy=0 dh=0 dv=0
EndChar

StartChar: E
Encoding: 69 69 40
Width: 1219
GlyphClass: 2
Flags: W
LayerCount: 2
Fore
SplineSet
1106 0 m 1,0,-1
 123 0 l 1,1,-1
 123 1579 l 1,2,-1
 1093 1579 l 1,3,-1
 1093 1436 l 1,4,-1
 317 1436 l 1,5,-1
 317 891 l 1,6,-1
 995 891 l 1,7,-1
 995 776 l 1,8,-1
 317 776 l 1,9,-1
 317 143 l 1,10,-1
 1106 143 l 1,11,-1
 1106 0 l 1,0,-1
EndSplineSet
EndChar

StartChar: F
Encoding: 70 70 41
Width: 1154
GlyphClass: 2
Flags: W
LayerCount: 2
Fore
SplineSet
319 762 m 1,0,-1
 319 0 l 1,1,-1
 123 0 l 1,2,-1
 123 1579 l 1,3,-1
 1044 1579 l 1,4,-1
 1044 1436 l 1,5,-1
 319 1436 l 1,6,-1
 319 879 l 1,7,-1
 983 879 l 1,8,-1
 983 762 l 1,9,-1
 319 762 l 1,0,-1
EndSplineSet
PairPos2: "'kern' Horizontal Kerning lookup 1 per glyph data 0" oe dx=0 dy=0 dh=-23 dv=0 dx=0 dy=0 dh=0 dv=0
PairPos2: "'kern' Horizontal Kerning lookup 1 per glyph data 0" oslash dx=0 dy=0 dh=-23 dv=0 dx=0 dy=0 dh=0 dv=0
PairPos2: "'kern' Horizontal Kerning lookup 1 per glyph data 0" odieresis dx=0 dy=0 dh=-23 dv=0 dx=0 dy=0 dh=0 dv=0
PairPos2: "'kern' Horizontal Kerning lookup 1 per glyph data 0" otilde dx=0 dy=0 dh=-23 dv=0 dx=0 dy=0 dh=0 dv=0
PairPos2: "'kern' Horizontal Kerning lookup 1 per glyph data 0" ocircumflex dx=0 dy=0 dh=-23 dv=0 dx=0 dy=0 dh=0 dv=0
PairPos2: "'kern' Horizontal Kerning lookup 1 per glyph data 0" oacute dx=0 dy=0 dh=-23 dv=0 dx=0 dy=0 dh=0 dv=0
PairPos2: "'kern' Horizontal Kerning lookup 1 per glyph data 0" ograve dx=0 dy=0 dh=-23 dv=0 dx=0 dy=0 dh=0 dv=0
PairPos2: "'kern' Horizontal Kerning lookup 1 per glyph data 0" edieresis dx=0 dy=0 dh=-23 dv=0 dx=0 dy=0 dh=0 dv=0
PairPos2: "'kern' Horizontal Kerning lookup 1 per glyph data 0" ecircumflex dx=0 dy=0 dh=-23 dv=0 dx=0 dy=0 dh=0 dv=0
PairPos2: "'kern' Horizontal Kerning lookup 1 per glyph data 0" eacute dx=0 dy=0 dh=-23 dv=0 dx=0 dy=0 dh=0 dv=0
PairPos2: "'kern' Horizontal Kerning lookup 1 per glyph data 0" egrave dx=0 dy=0 dh=-23 dv=0 dx=0 dy=0 dh=0 dv=0
PairPos2: "'kern' Horizontal Kerning lookup 1 per glyph data 0" ae dx=0 dy=0 dh=-23 dv=0 dx=0 dy=0 dh=0 dv=0
PairPos2: "'kern' Horizontal Kerning lookup 1 per glyph data 0" q dx=0 dy=0 dh=-23 dv=0 dx=0 dy=0 dh=0 dv=0
PairPos2: "'kern' Horizontal Kerning lookup 1 per glyph data 0" o dx=0 dy=0 dh=-23 dv=0 dx=0 dy=0 dh=0 dv=0
PairPos2: "'kern' Horizontal Kerning lookup 1 per glyph data 0" e dx=0 dy=0 dh=-23 dv=0 dx=0 dy=0 dh=0 dv=0
PairPos2: "'kern' Horizontal Kerning lookup 1 per glyph data 0" d dx=0 dy=0 dh=-23 dv=0 dx=0 dy=0 dh=0 dv=0
PairPos2: "'kern' Horizontal Kerning lookup 1 per glyph data 0" c dx=0 dy=0 dh=-23 dv=0 dx=0 dy=0 dh=0 dv=0
PairPos2: "'kern' Horizontal Kerning lookup 1 per glyph data 0" period dx=0 dy=0 dh=-180 dv=0 dx=0 dy=0 dh=0 dv=0
PairPos2: "'kern' Horizontal Kerning lookup 1 per glyph data 0" .notdef dx=0 dy=0 dh=-23 dv=0 dx=0 dy=0 dh=0 dv=0
EndChar

StartChar: G
Encoding: 71 71 42
Width: 1473
GlyphClass: 2
Flags: W
LayerCount: 2
Fore
SplineSet
745 -41 m 0,0,1
 633 -41 633 -41 538.5 -7.5 c 128,-1,2
 444 26 444 26 376 85.5 c 128,-1,3
 308 145 308 145 257 223 c 128,-1,4
 206 301 206 301 175 395 c 128,-1,5
 144 489 144 489 129 586.5 c 128,-1,6
 114 684 114 684 114 786 c 0,7,8
 114 927 114 927 136 1047.5 c 128,-1,9
 158 1168 158 1168 208 1273 c 128,-1,10
 258 1378 258 1378 334.5 1452 c 128,-1,11
 411 1526 411 1526 526.5 1568 c 128,-1,12
 642 1610 642 1610 788 1610 c 0,13,14
 1018 1610 1018 1610 1230 1476 c 1,15,-1
 1164 1341 l 1,16,17
 1098 1397 1098 1397 990.5 1427.5 c 128,-1,18
 883 1458 883 1458 786 1458 c 0,19,20
 702 1458 702 1458 633 1437.5 c 128,-1,21
 564 1417 564 1417 516 1382 c 128,-1,22
 468 1347 468 1347 431.5 1295 c 128,-1,23
 395 1243 395 1243 373 1187 c 128,-1,24
 351 1131 351 1131 338 1060 c 128,-1,25
 325 989 325 989 320 923.5 c 128,-1,26
 315 858 315 858 315 782 c 0,27,28
 315 705 315 705 320 639.5 c 128,-1,29
 325 574 325 574 339 504 c 128,-1,30
 353 434 353 434 375 378 c 128,-1,31
 397 322 397 322 434 271 c 128,-1,32
 471 220 471 220 520 185.5 c 128,-1,33
 569 151 569 151 638 131 c 128,-1,34
 707 111 707 111 792 111 c 0,35,36
 866 111 866 111 930 126 c 128,-1,37
 994 141 994 141 1049 173.5 c 128,-1,38
 1104 206 1104 206 1136 263.5 c 128,-1,39
 1168 321 1168 321 1168 399 c 2,40,-1
 1168 684 l 1,41,-1
 766 684 l 1,42,-1
 766 811 l 1,43,-1
 1353 811 l 1,44,-1
 1353 0 l 1,45,-1
 1265 0 l 1,46,-1
 1212 213 l 1,47,48
 1194 141 1194 141 1144.5 88.5 c 128,-1,49
 1095 36 1095 36 1026 9.5 c 128,-1,50
 957 -17 957 -17 888 -29 c 128,-1,51
 819 -41 819 -41 745 -41 c 0,0,1
EndSplineSet
EndChar

StartChar: H
Encoding: 72 72 43
Width: 1467
GlyphClass: 2
Flags: W
LayerCount: 2
Fore
SplineSet
1149 0 m 1,0,-1
 1149 764 l 1,1,-1
 317 764 l 1,2,-1
 317 0 l 1,3,-1
 123 0 l 1,4,-1
 123 1579 l 1,5,-1
 317 1579 l 1,6,-1
 317 879 l 1,7,-1
 1149 879 l 1,8,-1
 1149 1579 l 1,9,-1
 1343 1579 l 1,10,-1
 1343 0 l 1,11,-1
 1149 0 l 1,0,-1
EndSplineSet
EndChar

StartChar: I
Encoding: 73 73 44
Width: 823
GlyphClass: 2
Flags: W
LayerCount: 2
Fore
SplineSet
114 112 m 1,0,-1
 318 112 l 1,1,-1
 318 1461 l 1,2,-1
 114 1461 l 1,3,-1
 114 1579 l 1,4,-1
 707 1579 l 1,5,-1
 707 1461 l 1,6,-1
 501 1461 l 1,7,-1
 501 112 l 1,8,-1
 707 112 l 1,9,-1
 707 0 l 1,10,-1
 114 0 l 1,11,-1
 114 112 l 1,0,-1
EndSplineSet
EndChar

StartChar: J
Encoding: 74 74 45
Width: 727
GlyphClass: 2
Flags: W
LayerCount: 2
Fore
SplineSet
136 -90 m 1,0,-1
 89 37 l 1,1,2
 135 44 135 44 172.5 53 c 128,-1,3
 210 62 210 62 240.5 74.5 c 128,-1,4
 271 87 271 87 294.5 100 c 128,-1,5
 318 113 318 113 335.5 133 c 128,-1,6
 353 153 353 153 365.5 171 c 128,-1,7
 378 189 378 189 386.5 217.5 c 128,-1,8
 395 246 395 246 400 270 c 128,-1,9
 405 294 405 294 407.5 331.5 c 128,-1,10
 410 369 410 369 410.5 400.5 c 128,-1,11
 411 432 411 432 411 479 c 2,12,-1
 411 1579 l 1,13,-1
 603 1579 l 1,14,-1
 603 514 l 2,15,16
 603 434 603 434 598.5 371 c 128,-1,17
 594 308 594 308 581.5 243 c 128,-1,18
 569 178 569 178 547.5 130.5 c 128,-1,19
 526 83 526 83 491 39.5 c 128,-1,20
 456 -4 456 -4 407.5 -31 c 128,-1,21
 359 -58 359 -58 290.5 -74 c 128,-1,22
 222 -90 222 -90 136 -90 c 1,0,-1
EndSplineSet
EndChar

StartChar: K
Encoding: 75 75 46
Width: 1366
GlyphClass: 2
Flags: W
LayerCount: 2
Fore
SplineSet
317 747 m 1,0,-1
 317 0 l 1,1,-1
 123 0 l 1,2,-1
 123 1579 l 1,3,-1
 317 1579 l 1,4,-1
 317 854 l 1,5,-1
 540 854 l 1,6,-1
 1030 1579 l 1,7,-1
 1223 1579 l 1,8,-1
 694 798 l 1,9,-1
 1290 0 l 1,10,-1
 1087 0 l 1,11,-1
 532 747 l 1,12,-1
 317 747 l 1,0,-1
EndSplineSet
EndChar

StartChar: L
Encoding: 76 76 47
Width: 1175
GlyphClass: 2
Flags: W
LayerCount: 2
Fore
SplineSet
1063 0 m 1,0,-1
 123 0 l 1,1,-1
 123 1579 l 1,2,-1
 317 1579 l 1,3,-1
 317 143 l 1,4,-1
 1063 143 l 1,5,-1
 1063 0 l 1,0,-1
EndSplineSet
PairPos2: "'kern' Horizontal Kerning lookup 1 per glyph data 0" quotedblright dx=0 dy=0 dh=-80 dv=0 dx=0 dy=0 dh=0 dv=0
PairPos2: "'kern' Horizontal Kerning lookup 1 per glyph data 0" quoteright dx=0 dy=0 dh=-80 dv=0 dx=0 dy=0 dh=0 dv=0
PairPos2: "'kern' Horizontal Kerning lookup 1 per glyph data 0" OE dx=0 dy=0 dh=-50 dv=0 dx=0 dy=0 dh=0 dv=0
PairPos2: "'kern' Horizontal Kerning lookup 1 per glyph data 0" Oslash dx=0 dy=0 dh=-50 dv=0 dx=0 dy=0 dh=0 dv=0
PairPos2: "'kern' Horizontal Kerning lookup 1 per glyph data 0" Odieresis dx=0 dy=0 dh=-50 dv=0 dx=0 dy=0 dh=0 dv=0
PairPos2: "'kern' Horizontal Kerning lookup 1 per glyph data 0" Otilde dx=0 dy=0 dh=-50 dv=0 dx=0 dy=0 dh=0 dv=0
PairPos2: "'kern' Horizontal Kerning lookup 1 per glyph data 0" Ocircumflex dx=0 dy=0 dh=-50 dv=0 dx=0 dy=0 dh=0 dv=0
PairPos2: "'kern' Horizontal Kerning lookup 1 per glyph data 0" Oacute dx=0 dy=0 dh=-50 dv=0 dx=0 dy=0 dh=0 dv=0
PairPos2: "'kern' Horizontal Kerning lookup 1 per glyph data 0" Ograve dx=0 dy=0 dh=-50 dv=0 dx=0 dy=0 dh=0 dv=0
PairPos2: "'kern' Horizontal Kerning lookup 1 per glyph data 0" Ccedilla dx=0 dy=0 dh=-50 dv=0 dx=0 dy=0 dh=0 dv=0
PairPos2: "'kern' Horizontal Kerning lookup 1 per glyph data 0" W dx=0 dy=0 dh=-65 dv=0 dx=0 dy=0 dh=0 dv=0
PairPos2: "'kern' Horizontal Kerning lookup 1 per glyph data 0" V dx=0 dy=0 dh=-115 dv=0 dx=0 dy=0 dh=0 dv=0
PairPos2: "'kern' Horizontal Kerning lookup 1 per glyph data 0" T dx=0 dy=0 dh=-99 dv=0 dx=0 dy=0 dh=0 dv=0
PairPos2: "'kern' Horizontal Kerning lookup 1 per glyph data 0" Q dx=0 dy=0 dh=-50 dv=0 dx=0 dy=0 dh=0 dv=0
PairPos2: "'kern' Horizontal Kerning lookup 1 per glyph data 0" O dx=0 dy=0 dh=-50 dv=0 dx=0 dy=0 dh=0 dv=0
PairPos2: "'kern' Horizontal Kerning lookup 1 per glyph data 0" G dx=0 dy=0 dh=-50 dv=0 dx=0 dy=0 dh=0 dv=0
PairPos2: "'kern' Horizontal Kerning lookup 1 per glyph data 0" D dx=0 dy=0 dh=-50 dv=0 dx=0 dy=0 dh=0 dv=0
PairPos2: "'kern' Horizontal Kerning lookup 1 per glyph data 0" C dx=0 dy=0 dh=-50 dv=0 dx=0 dy=0 dh=0 dv=0
PairPos2: "'kern' Horizontal Kerning lookup 1 per glyph data 0" six dx=0 dy=0 dh=-50 dv=0 dx=0 dy=0 dh=0 dv=0
EndChar

StartChar: M
Encoding: 77 77 48
Width: 1779
GlyphClass: 2
Flags: W
LayerCount: 2
Fore
SplineSet
791 0 m 1,0,-1
 278 1469 l 1,1,-1
 278 0 l 1,2,-1
 123 0 l 1,3,-1
 123 1579 l 1,4,-1
 414 1579 l 1,5,-1
 889 178 l 1,6,-1
 1364 1579 l 1,7,-1
 1655 1579 l 1,8,-1
 1655 0 l 1,9,-1
 1500 0 l 1,10,-1
 1500 1469 l 1,11,-1
 987 0 l 1,12,-1
 791 0 l 1,0,-1
EndSplineSet
EndChar

StartChar: N
Encoding: 78 78 49
Width: 1500
GlyphClass: 2
Flags: W
LayerCount: 2
Fore
SplineSet
1214 145 m 1,0,-1
 1214 1579 l 1,1,-1
 1376 1579 l 1,2,-1
 1376 0 l 1,3,-1
 1114 0 l 1,4,-1
 285 1434 l 1,5,-1
 285 0 l 1,6,-1
 123 0 l 1,7,-1
 123 1579 l 1,8,-1
 385 1579 l 1,9,-1
 1214 145 l 1,0,-1
EndSplineSet
EndChar

StartChar: O
Encoding: 79 79 50
Width: 1536
GlyphClass: 2
Flags: W
LayerCount: 2
Fore
SplineSet
1424 784 m 0,0,1
 1424 646 1424 646 1404.5 528.5 c 128,-1,2
 1385 411 1385 411 1337.5 304 c 128,-1,3
 1290 197 1290 197 1216.5 122 c 128,-1,4
 1143 47 1143 47 1028.5 3 c 128,-1,5
 914 -41 914 -41 768 -41 c 0,6,7
 623 -41 623 -41 509.5 2 c 128,-1,8
 396 45 396 45 322.5 119.5 c 128,-1,9
 249 194 249 194 201.5 300.5 c 128,-1,10
 154 407 154 407 134 525.5 c 128,-1,11
 114 644 114 644 114 784 c 0,12,13
 114 919 114 919 133.5 1036 c 128,-1,14
 153 1153 153 1153 200 1260 c 128,-1,15
 247 1367 247 1367 318.5 1443.5 c 128,-1,16
 390 1520 390 1520 501.5 1565 c 128,-1,17
 613 1610 613 1610 754 1610 c 0,18,19
 903 1610 903 1610 1019.5 1567 c 128,-1,20
 1136 1524 1136 1524 1211 1450 c 128,-1,21
 1286 1376 1286 1376 1335 1269.5 c 128,-1,22
 1384 1163 1384 1163 1404 1044 c 128,-1,23
 1424 925 1424 925 1424 784 c 0,0,1
1224 784 m 0,24,25
 1224 871 1224 871 1217 945 c 128,-1,26
 1210 1019 1210 1019 1193 1099.5 c 128,-1,27
 1176 1180 1176 1180 1143 1241.5 c 128,-1,28
 1110 1303 1110 1303 1061.5 1353.5 c 128,-1,29
 1013 1404 1013 1404 938.5 1431 c 128,-1,30
 864 1458 864 1458 770 1458 c 0,31,32
 688 1458 688 1458 621 1437 c 128,-1,33
 554 1416 554 1416 507.5 1380.5 c 128,-1,34
 461 1345 461 1345 425.5 1292 c 128,-1,35
 390 1239 390 1239 369.5 1182.5 c 128,-1,36
 349 1126 349 1126 336 1055.5 c 128,-1,37
 323 985 323 985 318.5 921.5 c 128,-1,38
 314 858 314 858 314 784 c 0,39,40
 314 696 314 696 321.5 620.5 c 128,-1,41
 329 545 329 545 347 465.5 c 128,-1,42
 365 386 365 386 399 324.5 c 128,-1,43
 433 263 433 263 483 213.5 c 128,-1,44
 533 164 533 164 608 137.5 c 128,-1,45
 683 111 683 111 779 111 c 0,46,47
 1224 111 1224 111 1224 784 c 0,24,25
EndSplineSet
EndChar

StartChar: P
Encoding: 80 80 51
Width: 1330
GlyphClass: 2
Flags: W
LayerCount: 2
Fore
SplineSet
487 784 m 2,0,1
 548 784 548 784 588 785 c 128,-1,2
 628 786 628 786 691.5 792 c 128,-1,3
 755 798 755 798 797.5 809 c 128,-1,4
 840 820 840 820 889.5 842.5 c 128,-1,5
 939 865 939 865 968.5 896 c 128,-1,6
 998 927 998 927 1018 975 c 128,-1,7
 1038 1023 1038 1023 1038 1084 c 0,8,9
 1038 1167 1038 1167 1022.5 1227.5 c 128,-1,10
 1007 1288 1007 1288 971.5 1326 c 128,-1,11
 936 1364 936 1364 898.5 1387 c 128,-1,12
 861 1410 861 1410 794.5 1420 c 128,-1,13
 728 1430 728 1430 674.5 1433 c 128,-1,14
 621 1436 621 1436 532 1436 c 2,15,-1
 317 1436 l 1,16,-1
 317 784 l 1,17,-1
 487 784 l 2,0,1
1220 1108 m 0,18,19
 1220 1035 1220 1035 1203.5 974 c 128,-1,20
 1187 913 1187 913 1160.5 868.5 c 128,-1,21
 1134 824 1134 824 1091.5 788 c 128,-1,22
 1049 752 1049 752 1005.5 728.5 c 128,-1,23
 962 705 962 705 901.5 687.5 c 128,-1,24
 841 670 841 670 789 661 c 128,-1,25
 737 652 737 652 667.5 647 c 128,-1,26
 598 642 598 642 547 640.5 c 128,-1,27
 496 639 496 639 427 639 c 2,28,-1
 317 639 l 1,29,-1
 317 0 l 1,30,-1
 123 0 l 1,31,-1
 123 1579 l 1,32,-1
 520 1579 l 2,33,34
 605 1579 605 1579 671 1575.5 c 128,-1,35
 737 1572 737 1572 813 1560.5 c 128,-1,36
 889 1549 889 1549 945 1528.5 c 128,-1,37
 1001 1508 1001 1508 1055.5 1472.5 c 128,-1,38
 1110 1437 1110 1437 1144 1388.5 c 128,-1,39
 1178 1340 1178 1340 1199 1268.5 c 128,-1,40
 1220 1197 1220 1197 1220 1108 c 0,18,19
EndSplineSet
PairPos2: "'kern' Horizontal Kerning lookup 1 per glyph data 0" oe dx=0 dy=0 dh=-81 dv=0 dx=0 dy=0 dh=0 dv=0
PairPos2: "'kern' Horizontal Kerning lookup 1 per glyph data 0" oslash dx=0 dy=0 dh=-81 dv=0 dx=0 dy=0 dh=0 dv=0
PairPos2: "'kern' Horizontal Kerning lookup 1 per glyph data 0" odieresis dx=0 dy=0 dh=-81 dv=0 dx=0 dy=0 dh=0 dv=0
PairPos2: "'kern' Horizontal Kerning lookup 1 per glyph data 0" otilde dx=0 dy=0 dh=-81 dv=0 dx=0 dy=0 dh=0 dv=0
PairPos2: "'kern' Horizontal Kerning lookup 1 per glyph data 0" ocircumflex dx=0 dy=0 dh=-81 dv=0 dx=0 dy=0 dh=0 dv=0
PairPos2: "'kern' Horizontal Kerning lookup 1 per glyph data 0" oacute dx=0 dy=0 dh=-81 dv=0 dx=0 dy=0 dh=0 dv=0
PairPos2: "'kern' Horizontal Kerning lookup 1 per glyph data 0" ograve dx=0 dy=0 dh=-81 dv=0 dx=0 dy=0 dh=0 dv=0
PairPos2: "'kern' Horizontal Kerning lookup 1 per glyph data 0" edieresis dx=0 dy=0 dh=-81 dv=0 dx=0 dy=0 dh=0 dv=0
PairPos2: "'kern' Horizontal Kerning lookup 1 per glyph data 0" ecircumflex dx=0 dy=0 dh=-81 dv=0 dx=0 dy=0 dh=0 dv=0
PairPos2: "'kern' Horizontal Kerning lookup 1 per glyph data 0" eacute dx=0 dy=0 dh=-81 dv=0 dx=0 dy=0 dh=0 dv=0
PairPos2: "'kern' Horizontal Kerning lookup 1 per glyph data 0" egrave dx=0 dy=0 dh=-81 dv=0 dx=0 dy=0 dh=0 dv=0
PairPos2: "'kern' Horizontal Kerning lookup 1 per glyph data 0" ae dx=0 dy=0 dh=-81 dv=0 dx=0 dy=0 dh=0 dv=0
PairPos2: "'kern' Horizontal Kerning lookup 1 per glyph data 0" x dx=0 dy=0 dh=-14 dv=0 dx=0 dy=0 dh=0 dv=0
PairPos2: "'kern' Horizontal Kerning lookup 1 per glyph data 0" r dx=0 dy=0 dh=-34 dv=0 dx=0 dy=0 dh=0 dv=0
PairPos2: "'kern' Horizontal Kerning lookup 1 per glyph data 0" q dx=0 dy=0 dh=-81 dv=0 dx=0 dy=0 dh=0 dv=0
PairPos2: "'kern' Horizontal Kerning lookup 1 per glyph data 0" o dx=0 dy=0 dh=-81 dv=0 dx=0 dy=0 dh=0 dv=0
PairPos2: "'kern' Horizontal Kerning lookup 1 per glyph data 0" e dx=0 dy=0 dh=-81 dv=0 dx=0 dy=0 dh=0 dv=0
PairPos2: "'kern' Horizontal Kerning lookup 1 per glyph data 0" d dx=0 dy=0 dh=-81 dv=0 dx=0 dy=0 dh=0 dv=0
PairPos2: "'kern' Horizontal Kerning lookup 1 per glyph data 0" c dx=0 dy=0 dh=-81 dv=0 dx=0 dy=0 dh=0 dv=0
PairPos2: "'kern' Horizontal Kerning lookup 1 per glyph data 0" a dx=0 dy=0 dh=-81 dv=0 dx=0 dy=0 dh=0 dv=0
PairPos2: "'kern' Horizontal Kerning lookup 1 per glyph data 0" X dx=0 dy=0 dh=-84 dv=0 dx=0 dy=0 dh=0 dv=0
PairPos2: "'kern' Horizontal Kerning lookup 1 per glyph data 0" period dx=0 dy=0 dh=-110 dv=0 dx=0 dy=0 dh=0 dv=0
PairPos2: "'kern' Horizontal Kerning lookup 1 per glyph data 0" comma dx=0 dy=0 dh=-110 dv=0 dx=0 dy=0 dh=0 dv=0
PairPos2: "'kern' Horizontal Kerning lookup 1 per glyph data 0" .notdef dx=0 dy=0 dh=-81 dv=0 dx=0 dy=0 dh=0 dv=0
EndChar

StartChar: Q
Encoding: 81 81 52
Width: 1549
GlyphClass: 2
Flags: W
LayerCount: 2
Fore
SplineSet
776 1458 m 0,0,1
 694 1458 694 1458 627 1437 c 128,-1,2
 560 1416 560 1416 512.5 1380.5 c 128,-1,3
 465 1345 465 1345 429 1292.5 c 128,-1,4
 393 1240 393 1240 371.5 1183.5 c 128,-1,5
 350 1127 350 1127 336.5 1057 c 128,-1,6
 323 987 323 987 318 922.5 c 128,-1,7
 313 858 313 858 313 784 c 0,8,9
 313 711 313 711 318 646.5 c 128,-1,10
 323 582 323 582 336.5 512 c 128,-1,11
 350 442 350 442 372 385 c 128,-1,12
 394 328 394 328 430 276 c 128,-1,13
 466 224 466 224 513 188.5 c 128,-1,14
 560 153 560 153 627 132 c 128,-1,15
 694 111 694 111 776 111 c 128,-1,16
 858 111 858 111 925 132 c 128,-1,17
 992 153 992 153 1039.5 188.5 c 128,-1,18
 1087 224 1087 224 1123 276 c 128,-1,19
 1159 328 1159 328 1180.5 385 c 128,-1,20
 1202 442 1202 442 1215.5 511.5 c 128,-1,21
 1229 581 1229 581 1234 645.5 c 128,-1,22
 1239 710 1239 710 1239 784 c 0,23,24
 1239 1458 1239 1458 776 1458 c 0,0,1
1439 784 m 0,25,26
 1439 666 1439 666 1424.5 563 c 128,-1,27
 1410 460 1410 460 1372.5 357.5 c 128,-1,28
 1335 255 1335 255 1277 178.5 c 128,-1,29
 1219 102 1219 102 1125.5 46 c 128,-1,30
 1032 -10 1032 -10 911 -29 c 1,31,-1
 1290 -293 l 1,32,-1
 1171 -424 l 1,33,-1
 678 -35 l 1,34,35
 570 -23 570 -23 482 15.5 c 128,-1,36
 394 54 394 54 333 114.5 c 128,-1,37
 272 175 272 175 228 249.5 c 128,-1,38
 184 324 184 324 159.5 414.5 c 128,-1,39
 135 505 135 505 123.5 597 c 128,-1,40
 112 689 112 689 112 792 c 0,41,42
 112 927 112 927 133.5 1045 c 128,-1,43
 155 1163 155 1163 205 1268 c 128,-1,44
 255 1373 255 1373 330 1448 c 128,-1,45
 405 1523 405 1523 519 1566.5 c 128,-1,46
 633 1610 633 1610 776 1610 c 0,47,48
 920 1610 920 1610 1034 1566.5 c 128,-1,49
 1148 1523 1148 1523 1223 1448 c 128,-1,50
 1298 1373 1298 1373 1347.5 1267 c 128,-1,51
 1397 1161 1397 1161 1418 1041.5 c 128,-1,52
 1439 922 1439 922 1439 784 c 0,25,26
EndSplineSet
EndChar

StartChar: R
Encoding: 82 82 53
Width: 1333
GlyphClass: 2
Flags: W
LayerCount: 2
Fore
SplineSet
803 797 m 1,0,1
 901 786 901 786 973.5 760.5 c 128,-1,2
 1046 735 1046 735 1101.5 689 c 128,-1,3
 1157 643 1157 643 1185.5 569.5 c 128,-1,4
 1214 496 1214 496 1214 397 c 2,5,-1
 1214 0 l 1,6,-1
 1032 0 l 1,7,8
 1032 65 1032 65 1034 168.5 c 128,-1,9
 1036 272 1036 272 1036 312 c 0,10,11
 1036 375 1036 375 1033 419 c 128,-1,12
 1030 463 1030 463 1020.5 507 c 128,-1,13
 1011 551 1011 551 994 580.5 c 128,-1,14
 977 610 977 610 949 637.5 c 128,-1,15
 921 665 921 665 881.5 681 c 128,-1,16
 842 697 842 697 786.5 710 c 128,-1,17
 731 723 731 723 660 728 c 128,-1,18
 589 733 589 733 497 733 c 2,19,-1
 317 733 l 1,20,-1
 317 0 l 1,21,-1
 123 0 l 1,22,-1
 123 1579 l 1,23,-1
 499 1579 l 2,24,25
 570 1579 570 1579 607.5 1578.5 c 128,-1,26
 645 1578 645 1578 715 1574.5 c 128,-1,27
 785 1571 785 1571 825.5 1564 c 128,-1,28
 866 1557 866 1557 926 1542.5 c 128,-1,29
 986 1528 986 1528 1021.5 1507.5 c 128,-1,30
 1057 1487 1057 1487 1098.5 1455 c 128,-1,31
 1140 1423 1140 1423 1162.5 1382 c 128,-1,32
 1185 1341 1185 1341 1200.5 1284.5 c 128,-1,33
 1216 1228 1216 1228 1216 1160 c 0,34,35
 1216 992 1216 992 1095.5 894.5 c 128,-1,36
 975 797 975 797 803 797 c 1,0,1
317 862 m 1,37,-1
 558 862 l 2,38,39
 608 862 608 862 648.5 864 c 128,-1,40
 689 866 689 866 741.5 873 c 128,-1,41
 794 880 794 880 834.5 892 c 128,-1,42
 875 904 875 904 916.5 925.5 c 128,-1,43
 958 947 958 947 985 976.5 c 128,-1,44
 1012 1006 1012 1006 1029 1050.5 c 128,-1,45
 1046 1095 1046 1095 1046 1150 c 128,-1,46
 1046 1205 1046 1205 1032.5 1249.5 c 128,-1,47
 1019 1294 1019 1294 997.5 1323.5 c 128,-1,48
 976 1353 976 1353 941 1374.5 c 128,-1,49
 906 1396 906 1396 871.5 1408 c 128,-1,50
 837 1420 837 1420 789.5 1426.5 c 128,-1,51
 742 1433 742 1433 703 1435 c 128,-1,52
 664 1437 664 1437 612 1437 c 0,53,54
 592 1437 592 1437 554.5 1436.5 c 128,-1,55
 517 1436 517 1436 499 1436 c 2,56,-1
 317 1436 l 1,57,-1
 317 862 l 1,37,-1
EndSplineSet
EndChar

StartChar: S
Encoding: 83 83 54
Width: 1096
GlyphClass: 2
Flags: W
LayerCount: 2
Fore
SplineSet
70 72 m 1,0,-1
 90 222 l 1,1,2
 204 162 204 162 293 136.5 c 128,-1,3
 382 111 382 111 500 111 c 0,4,5
 568 111 568 111 624.5 118.5 c 128,-1,6
 681 126 681 126 736 146.5 c 128,-1,7
 791 167 791 167 828 200.5 c 128,-1,8
 865 234 865 234 888 288.5 c 128,-1,9
 911 343 911 343 911 416 c 0,10,11
 911 488 911 488 880 543 c 128,-1,12
 849 598 849 598 796 634 c 128,-1,13
 743 670 743 670 675 698.5 c 128,-1,14
 607 727 607 727 531.5 750.5 c 128,-1,15
 456 774 456 774 380.5 799 c 128,-1,16
 305 824 305 824 237 859.5 c 128,-1,17
 169 895 169 895 116 940.5 c 128,-1,18
 63 986 63 986 32 1056.5 c 128,-1,19
 1 1127 1 1127 1 1217 c 0,20,21
 1 1317 1 1317 44.5 1394.5 c 128,-1,22
 88 1472 88 1472 160.5 1518 c 128,-1,23
 233 1564 233 1564 319.5 1587 c 128,-1,24
 406 1610 406 1610 500 1610 c 0,25,26
 771 1610 771 1610 993 1484 c 1,27,-1
 963 1337 l 1,28,29
 877 1392 877 1392 769 1425 c 128,-1,30
 661 1458 661 1458 562 1458 c 0,31,32
 500 1458 500 1458 452 1453.5 c 128,-1,33
 404 1449 404 1449 351.5 1433.5 c 128,-1,34
 299 1418 299 1418 264 1391.5 c 128,-1,35
 229 1365 229 1365 206.5 1318.5 c 128,-1,36
 184 1272 184 1272 184 1208 c 0,37,38
 184 1146 184 1146 215 1100 c 128,-1,39
 246 1054 246 1054 299 1024.5 c 128,-1,40
 352 995 352 995 420 972 c 128,-1,41
 488 949 488 949 564 927.5 c 128,-1,42
 640 906 640 906 715.5 881.5 c 128,-1,43
 791 857 791 857 859 819.5 c 128,-1,44
 927 782 927 782 980 732 c 128,-1,45
 1033 682 1033 682 1064 604 c 128,-1,46
 1095 526 1095 526 1095 426 c 0,47,48
 1095 328 1095 328 1065.5 249 c 128,-1,49
 1036 170 1036 170 985 116.5 c 128,-1,50
 934 63 934 63 862 27 c 128,-1,51
 790 -9 790 -9 708 -25 c 128,-1,52
 626 -41 626 -41 532 -41 c 0,53,54
 415 -41 415 -41 286 -12 c 128,-1,55
 157 17 157 17 70 72 c 1,0,-1
EndSplineSet
EndChar

StartChar: T
Encoding: 84 84 55
Width: 1341
GlyphClass: 2
Flags: W
LayerCount: 2
Fore
SplineSet
1224 1436 m 1,0,-1
 766 1436 l 1,1,-1
 766 0 l 1,2,-1
 576 0 l 1,3,-1
 576 1436 l 1,4,-1
 116 1436 l 1,5,-1
 116 1579 l 1,6,-1
 1224 1579 l 1,7,-1
 1224 1436 l 1,0,-1
EndSplineSet
PairPos2: "'kern' Horizontal Kerning lookup 1 per glyph data 0" oe dx=0 dy=0 dh=-58 dv=0 dx=0 dy=0 dh=0 dv=0
PairPos2: "'kern' Horizontal Kerning lookup 1 per glyph data 0" OE dx=0 dy=0 dh=-21 dv=0 dx=0 dy=0 dh=0 dv=0
PairPos2: "'kern' Horizontal Kerning lookup 1 per glyph data 0" oslash dx=0 dy=0 dh=-58 dv=0 dx=0 dy=0 dh=0 dv=0
PairPos2: "'kern' Horizontal Kerning lookup 1 per glyph data 0" odieresis dx=0 dy=0 dh=-58 dv=0 dx=0 dy=0 dh=0 dv=0
PairPos2: "'kern' Horizontal Kerning lookup 1 per glyph data 0" otilde dx=0 dy=0 dh=-58 dv=0 dx=0 dy=0 dh=0 dv=0
PairPos2: "'kern' Horizontal Kerning lookup 1 per glyph data 0" ocircumflex dx=0 dy=0 dh=-58 dv=0 dx=0 dy=0 dh=0 dv=0
PairPos2: "'kern' Horizontal Kerning lookup 1 per glyph data 0" oacute dx=0 dy=0 dh=-58 dv=0 dx=0 dy=0 dh=0 dv=0
PairPos2: "'kern' Horizontal Kerning lookup 1 per glyph data 0" ograve dx=0 dy=0 dh=-58 dv=0 dx=0 dy=0 dh=0 dv=0
PairPos2: "'kern' Horizontal Kerning lookup 1 per glyph data 0" edieresis dx=0 dy=0 dh=-58 dv=0 dx=0 dy=0 dh=0 dv=0
PairPos2: "'kern' Horizontal Kerning lookup 1 per glyph data 0" ecircumflex dx=0 dy=0 dh=-58 dv=0 dx=0 dy=0 dh=0 dv=0
PairPos2: "'kern' Horizontal Kerning lookup 1 per glyph data 0" eacute dx=0 dy=0 dh=-58 dv=0 dx=0 dy=0 dh=0 dv=0
PairPos2: "'kern' Horizontal Kerning lookup 1 per glyph data 0" egrave dx=0 dy=0 dh=-58 dv=0 dx=0 dy=0 dh=0 dv=0
PairPos2: "'kern' Horizontal Kerning lookup 1 per glyph data 0" ae dx=0 dy=0 dh=-58 dv=0 dx=0 dy=0 dh=0 dv=0
PairPos2: "'kern' Horizontal Kerning lookup 1 per glyph data 0" Oslash dx=0 dy=0 dh=-21 dv=0 dx=0 dy=0 dh=0 dv=0
PairPos2: "'kern' Horizontal Kerning lookup 1 per glyph data 0" Odieresis dx=0 dy=0 dh=-21 dv=0 dx=0 dy=0 dh=0 dv=0
PairPos2: "'kern' Horizontal Kerning lookup 1 per glyph data 0" Otilde dx=0 dy=0 dh=-21 dv=0 dx=0 dy=0 dh=0 dv=0
PairPos2: "'kern' Horizontal Kerning lookup 1 per glyph data 0" Ocircumflex dx=0 dy=0 dh=-21 dv=0 dx=0 dy=0 dh=0 dv=0
PairPos2: "'kern' Horizontal Kerning lookup 1 per glyph data 0" Oacute dx=0 dy=0 dh=-21 dv=0 dx=0 dy=0 dh=0 dv=0
PairPos2: "'kern' Horizontal Kerning lookup 1 per glyph data 0" Ograve dx=0 dy=0 dh=-21 dv=0 dx=0 dy=0 dh=0 dv=0
PairPos2: "'kern' Horizontal Kerning lookup 1 per glyph data 0" Ccedilla dx=0 dy=0 dh=-21 dv=0 dx=0 dy=0 dh=0 dv=0
PairPos2: "'kern' Horizontal Kerning lookup 1 per glyph data 0" y dx=0 dy=0 dh=-58 dv=0 dx=0 dy=0 dh=0 dv=0
PairPos2: "'kern' Horizontal Kerning lookup 1 per glyph data 0" w dx=0 dy=0 dh=-69 dv=0 dx=0 dy=0 dh=0 dv=0
PairPos2: "'kern' Horizontal Kerning lookup 1 per glyph data 0" w dx=0 dy=0 dh=-44 dv=0 dx=0 dy=0 dh=0 dv=0
PairPos2: "'kern' Horizontal Kerning lookup 1 per glyph data 0" v dx=0 dy=0 dh=-33 dv=0 dx=0 dy=0 dh=0 dv=0
PairPos2: "'kern' Horizontal Kerning lookup 1 per glyph data 0" q dx=0 dy=0 dh=-58 dv=0 dx=0 dy=0 dh=0 dv=0
PairPos2: "'kern' Horizontal Kerning lookup 1 per glyph data 0" o dx=0 dy=0 dh=-58 dv=0 dx=0 dy=0 dh=0 dv=0
PairPos2: "'kern' Horizontal Kerning lookup 1 per glyph data 0" e dx=0 dy=0 dh=-81 dv=0 dx=0 dy=0 dh=0 dv=0
PairPos2: "'kern' Horizontal Kerning lookup 1 per glyph data 0" d dx=0 dy=0 dh=-58 dv=0 dx=0 dy=0 dh=0 dv=0
PairPos2: "'kern' Horizontal Kerning lookup 1 per glyph data 0" c dx=0 dy=0 dh=-58 dv=0 dx=0 dy=0 dh=0 dv=0
PairPos2: "'kern' Horizontal Kerning lookup 1 per glyph data 0" a dx=0 dy=0 dh=-23 dv=0 dx=0 dy=0 dh=0 dv=0
PairPos2: "'kern' Horizontal Kerning lookup 1 per glyph data 0" Q dx=0 dy=0 dh=-21 dv=0 dx=0 dy=0 dh=0 dv=0
PairPos2: "'kern' Horizontal Kerning lookup 1 per glyph data 0" O dx=0 dy=0 dh=-21 dv=0 dx=0 dy=0 dh=0 dv=0
PairPos2: "'kern' Horizontal Kerning lookup 1 per glyph data 0" G dx=0 dy=0 dh=-21 dv=0 dx=0 dy=0 dh=0 dv=0
PairPos2: "'kern' Horizontal Kerning lookup 1 per glyph data 0" D dx=0 dy=0 dh=-21 dv=0 dx=0 dy=0 dh=0 dv=0
PairPos2: "'kern' Horizontal Kerning lookup 1 per glyph data 0" C dx=0 dy=0 dh=-21 dv=0 dx=0 dy=0 dh=0 dv=0
PairPos2: "'kern' Horizontal Kerning lookup 1 per glyph data 0" six dx=0 dy=0 dh=-21 dv=0 dx=0 dy=0 dh=0 dv=0
PairPos2: "'kern' Horizontal Kerning lookup 1 per glyph data 0" period dx=0 dy=0 dh=-30 dv=0 dx=0 dy=0 dh=0 dv=0
PairPos2: "'kern' Horizontal Kerning lookup 1 per glyph data 0" .notdef dx=0 dy=0 dh=-58 dv=0 dx=0 dy=0 dh=0 dv=0
EndChar

StartChar: U
Encoding: 85 85 56
Width: 1499
GlyphClass: 2
Flags: W
LayerCount: 2
Fore
SplineSet
748 -41 m 0,0,1
 605 -41 605 -41 496.5 -3.5 c 128,-1,2
 388 34 388 34 317.5 99 c 128,-1,3
 247 164 247 164 202.5 261 c 128,-1,4
 158 358 158 358 140 468 c 128,-1,5
 122 578 122 578 122 715 c 2,6,-1
 122 1579 l 1,7,-1
 314 1579 l 1,8,-1
 314 711 l 2,9,10
 314 631 314 631 317.5 570 c 128,-1,11
 321 509 321 509 332 442.5 c 128,-1,12
 343 376 343 376 362 328 c 128,-1,13
 381 280 381 280 414 234.5 c 128,-1,14
 447 189 447 189 492 161 c 128,-1,15
 537 133 537 133 601.5 116.5 c 128,-1,16
 666 100 666 100 748 100 c 128,-1,17
 830 100 830 100 895 117 c 128,-1,18
 960 134 960 134 1005 162 c 128,-1,19
 1050 190 1050 190 1082.5 235.5 c 128,-1,20
 1115 281 1115 281 1134 329 c 128,-1,21
 1153 377 1153 377 1164 443.5 c 128,-1,22
 1175 510 1175 510 1178.5 570.5 c 128,-1,23
 1182 631 1182 631 1182 711 c 2,24,-1
 1182 1579 l 1,25,-1
 1378 1579 l 1,26,-1
 1378 715 l 2,27,28
 1378 578 1378 578 1360 468 c 128,-1,29
 1342 358 1342 358 1297 261 c 128,-1,30
 1252 164 1252 164 1181.5 99 c 128,-1,31
 1111 34 1111 34 1001.5 -3.5 c 128,-1,32
 892 -41 892 -41 748 -41 c 0,0,1
EndSplineSet
EndChar

StartChar: V
Encoding: 86 86 57
Width: 1406
GlyphClass: 2
Flags: W
LayerCount: 2
Fore
SplineSet
582 0 m 1,0,-1
 86 1579 l 1,1,-1
 270 1579 l 1,2,-1
 704 180 l 1,3,-1
 1138 1579 l 1,4,-1
 1320 1579 l 1,5,-1
 826 0 l 1,6,-1
 582 0 l 1,0,-1
EndSplineSet
PairPos2: "'kern' Horizontal Kerning lookup 1 per glyph data 0" oe dx=0 dy=0 dh=-46 dv=0 dx=0 dy=0 dh=0 dv=0
PairPos2: "'kern' Horizontal Kerning lookup 1 per glyph data 0" OE dx=0 dy=0 dh=-70 dv=0 dx=0 dy=0 dh=0 dv=0
PairPos2: "'kern' Horizontal Kerning lookup 1 per glyph data 0" oslash dx=0 dy=0 dh=-46 dv=0 dx=0 dy=0 dh=0 dv=0
PairPos2: "'kern' Horizontal Kerning lookup 1 per glyph data 0" odieresis dx=0 dy=0 dh=-46 dv=0 dx=0 dy=0 dh=0 dv=0
PairPos2: "'kern' Horizontal Kerning lookup 1 per glyph data 0" otilde dx=0 dy=0 dh=-46 dv=0 dx=0 dy=0 dh=0 dv=0
PairPos2: "'kern' Horizontal Kerning lookup 1 per glyph data 0" ocircumflex dx=0 dy=0 dh=-46 dv=0 dx=0 dy=0 dh=0 dv=0
PairPos2: "'kern' Horizontal Kerning lookup 1 per glyph data 0" oacute dx=0 dy=0 dh=-46 dv=0 dx=0 dy=0 dh=0 dv=0
PairPos2: "'kern' Horizontal Kerning lookup 1 per glyph data 0" ograve dx=0 dy=0 dh=-46 dv=0 dx=0 dy=0 dh=0 dv=0
PairPos2: "'kern' Horizontal Kerning lookup 1 per glyph data 0" edieresis dx=0 dy=0 dh=-46 dv=0 dx=0 dy=0 dh=0 dv=0
PairPos2: "'kern' Horizontal Kerning lookup 1 per glyph data 0" ecircumflex dx=0 dy=0 dh=-46 dv=0 dx=0 dy=0 dh=0 dv=0
PairPos2: "'kern' Horizontal Kerning lookup 1 per glyph data 0" eacute dx=0 dy=0 dh=-46 dv=0 dx=0 dy=0 dh=0 dv=0
PairPos2: "'kern' Horizontal Kerning lookup 1 per glyph data 0" egrave dx=0 dy=0 dh=-46 dv=0 dx=0 dy=0 dh=0 dv=0
PairPos2: "'kern' Horizontal Kerning lookup 1 per glyph data 0" ae dx=0 dy=0 dh=-46 dv=0 dx=0 dy=0 dh=0 dv=0
PairPos2: "'kern' Horizontal Kerning lookup 1 per glyph data 0" Oslash dx=0 dy=0 dh=-70 dv=0 dx=0 dy=0 dh=0 dv=0
PairPos2: "'kern' Horizontal Kerning lookup 1 per glyph data 0" Odieresis dx=0 dy=0 dh=-70 dv=0 dx=0 dy=0 dh=0 dv=0
PairPos2: "'kern' Horizontal Kerning lookup 1 per glyph data 0" Otilde dx=0 dy=0 dh=-70 dv=0 dx=0 dy=0 dh=0 dv=0
PairPos2: "'kern' Horizontal Kerning lookup 1 per glyph data 0" Ocircumflex dx=0 dy=0 dh=-70 dv=0 dx=0 dy=0 dh=0 dv=0
PairPos2: "'kern' Horizontal Kerning lookup 1 per glyph data 0" Oacute dx=0 dy=0 dh=-70 dv=0 dx=0 dy=0 dh=0 dv=0
PairPos2: "'kern' Horizontal Kerning lookup 1 per glyph data 0" Ograve dx=0 dy=0 dh=-70 dv=0 dx=0 dy=0 dh=0 dv=0
PairPos2: "'kern' Horizontal Kerning lookup 1 per glyph data 0" Ccedilla dx=0 dy=0 dh=-70 dv=0 dx=0 dy=0 dh=0 dv=0
PairPos2: "'kern' Horizontal Kerning lookup 1 per glyph data 0" y dx=0 dy=0 dh=-58 dv=0 dx=0 dy=0 dh=0 dv=0
PairPos2: "'kern' Horizontal Kerning lookup 1 per glyph data 0" w dx=0 dy=0 dh=-58 dv=0 dx=0 dy=0 dh=0 dv=0
PairPos2: "'kern' Horizontal Kerning lookup 1 per glyph data 0" v dx=0 dy=0 dh=-58 dv=0 dx=0 dy=0 dh=0 dv=0
PairPos2: "'kern' Horizontal Kerning lookup 1 per glyph data 0" q dx=0 dy=0 dh=-46 dv=0 dx=0 dy=0 dh=0 dv=0
PairPos2: "'kern' Horizontal Kerning lookup 1 per glyph data 0" o dx=0 dy=0 dh=-46 dv=0 dx=0 dy=0 dh=0 dv=0
PairPos2: "'kern' Horizontal Kerning lookup 1 per glyph data 0" e dx=0 dy=0 dh=-46 dv=0 dx=0 dy=0 dh=0 dv=0
PairPos2: "'kern' Horizontal Kerning lookup 1 per glyph data 0" d dx=0 dy=0 dh=-46 dv=0 dx=0 dy=0 dh=0 dv=0
PairPos2: "'kern' Horizontal Kerning lookup 1 per glyph data 0" c dx=0 dy=0 dh=-46 dv=0 dx=0 dy=0 dh=0 dv=0
PairPos2: "'kern' Horizontal Kerning lookup 1 per glyph data 0" a dx=0 dy=0 dh=-34 dv=0 dx=0 dy=0 dh=0 dv=0
PairPos2: "'kern' Horizontal Kerning lookup 1 per glyph data 0" W dx=0 dy=0 dh=-80 dv=0 dx=0 dy=0 dh=0 dv=0
PairPos2: "'kern' Horizontal Kerning lookup 1 per glyph data 0" Q dx=0 dy=0 dh=-70 dv=0 dx=0 dy=0 dh=0 dv=0
PairPos2: "'kern' Horizontal Kerning lookup 1 per glyph data 0" O dx=0 dy=0 dh=-70 dv=0 dx=0 dy=0 dh=0 dv=0
PairPos2: "'kern' Horizontal Kerning lookup 1 per glyph data 0" G dx=0 dy=0 dh=-70 dv=0 dx=0 dy=0 dh=0 dv=0
PairPos2: "'kern' Horizontal Kerning lookup 1 per glyph data 0" D dx=0 dy=0 dh=-70 dv=0 dx=0 dy=0 dh=0 dv=0
PairPos2: "'kern' Horizontal Kerning lookup 1 per glyph data 0" C dx=0 dy=0 dh=-70 dv=0 dx=0 dy=0 dh=0 dv=0
PairPos2: "'kern' Horizontal Kerning lookup 1 per glyph data 0" semicolon dx=0 dy=0 dh=-80 dv=0 dx=0 dy=0 dh=0 dv=0
PairPos2: "'kern' Horizontal Kerning lookup 1 per glyph data 0" colon dx=0 dy=0 dh=-50 dv=0 dx=0 dy=0 dh=0 dv=0
PairPos2: "'kern' Horizontal Kerning lookup 1 per glyph data 0" six dx=0 dy=0 dh=-70 dv=0 dx=0 dy=0 dh=0 dv=0
PairPos2: "'kern' Horizontal Kerning lookup 1 per glyph data 0" period dx=0 dy=0 dh=-80 dv=0 dx=0 dy=0 dh=0 dv=0
PairPos2: "'kern' Horizontal Kerning lookup 1 per glyph data 0" comma dx=0 dy=0 dh=-80 dv=0 dx=0 dy=0 dh=0 dv=0
PairPos2: "'kern' Horizontal Kerning lookup 1 per glyph data 0" .notdef dx=0 dy=0 dh=-46 dv=0 dx=0 dy=0 dh=0 dv=0
EndChar

StartChar: W
Encoding: 87 87 58
Width: 2020
GlyphClass: 2
Flags: W
LayerCount: 2
Fore
SplineSet
1147 1489 m 1,0,-1
 1441 175 l 1,1,-1
 1751 1579 l 1,2,-1
 1931 1579 l 1,3,-1
 1575 0 l 1,4,-1
 1309 0 l 1,5,-1
 1010 1333 l 1,6,-1
 711 0 l 1,7,-1
 444 0 l 1,8,-1
 88 1579 l 1,9,-1
 269 1579 l 1,10,-1
 579 175 l 1,11,-1
 873 1489 l 1,12,-1
 1147 1489 l 1,0,-1
EndSplineSet
EndChar

StartChar: X
Encoding: 88 88 59
Width: 1404
GlyphClass: 2
Flags: W
LayerCount: 2
Fore
SplineSet
314 0 m 1,0,-1
 96 0 l 1,1,-1
 593 800 l 1,2,-1
 98 1579 l 1,3,-1
 294 1579 l 1,4,-1
 702 923 l 1,5,-1
 1110 1579 l 1,6,-1
 1306 1579 l 1,7,-1
 811 800 l 1,8,-1
 1308 0 l 1,9,-1
 1090 0 l 1,10,-1
 702 626 l 1,11,12
 572 418 572 418 314 0 c 1,0,-1
EndSplineSet
EndChar

StartChar: Y
Encoding: 89 89 60
Width: 1383
GlyphClass: 2
Flags: W
LayerCount: 2
Fore
SplineSet
696 677 m 1,0,-1
 1109 1579 l 1,1,-1
 1300 1579 l 1,2,-1
 786 485 l 1,3,-1
 786 0 l 1,4,-1
 596 0 l 1,5,-1
 596 485 l 1,6,-1
 82 1579 l 1,7,-1
 279 1579 l 1,8,9
 483 1119 483 1119 696 677 c 1,0,-1
EndSplineSet
EndChar

StartChar: Z
Encoding: 90 90 61
Width: 1270
GlyphClass: 2
Flags: W
LayerCount: 2
Fore
SplineSet
1149 1579 m 1,0,-1
 1149 1419 l 1,1,-1
 316 143 l 1,2,-1
 1151 143 l 1,3,-1
 1151 0 l 1,4,-1
 119 0 l 1,5,-1
 119 180 l 1,6,-1
 948 1447 l 1,7,-1
 119 1447 l 1,8,-1
 119 1579 l 1,9,-1
 1149 1579 l 1,0,-1
EndSplineSet
EndChar

StartChar: bracketleft
Encoding: 91 91 62
Width: 900
GlyphClass: 2
Flags: W
LayerCount: 2
Fore
SplineSet
121 1579 m 1,0,-1
 785 1579 l 1,1,-1
 785 1436 l 1,2,-1
 314 1436 l 1,3,-1
 314 143 l 1,4,-1
 785 143 l 1,5,-1
 785 0 l 1,6,-1
 121 0 l 1,7,-1
 121 1579 l 1,0,-1
EndSplineSet
EndChar

StartChar: backslash
Encoding: 92 92 63
Width: 714
GlyphClass: 2
Flags: W
LayerCount: 2
Fore
SplineSet
125 1731 m 1,0,-1
 748 -114 l 1,1,-1
 588 -172 l 1,2,-1
 -33 1679 l 1,3,-1
 125 1731 l 1,0,-1
EndSplineSet
EndChar

StartChar: bracketright
Encoding: 93 93 64
Width: 900
GlyphClass: 2
Flags: W
LayerCount: 2
Fore
SplineSet
116 1579 m 1,0,-1
 780 1579 l 1,1,-1
 780 0 l 1,2,-1
 116 0 l 1,3,-1
 116 143 l 1,4,-1
 587 143 l 1,5,-1
 587 1436 l 1,6,-1
 116 1436 l 1,7,-1
 116 1579 l 1,0,-1
EndSplineSet
EndChar

StartChar: asciicircum
Encoding: 94 94 65
Width: 877
GlyphClass: 2
Flags: W
LayerCount: 2
Fore
SplineSet
438 809 m 1,0,-1
 650 432 l 1,1,-1
 778 510 l 1,2,-1
 486 1011 l 1,3,-1
 390 1011 l 1,4,-1
 98 510 l 1,5,-1
 226 432 l 1,6,-1
 438 809 l 1,0,-1
EndSplineSet
EndChar

StartChar: underscore
Encoding: 95 95 66
Width: 1187
GlyphClass: 2
Flags: W
LayerCount: 2
Fore
SplineSet
1063 -111 m 1,0,-1
 123 -111 l 1,1,-1
 123 33 l 1,2,-1
 1063 33 l 1,3,-1
 1063 -111 l 1,0,-1
EndSplineSet
EndChar

StartChar: grave
Encoding: 96 96 67
Width: 458
GlyphClass: 2
Flags: W
LayerCount: 2
Fore
SplineSet
424 356 m 1,0,-1
 357 330 l 1,1,-1
 29 885 l 1,2,-1
 271 974 l 1,3,-1
 424 356 l 1,0,-1
EndSplineSet
EndChar

StartChar: a
Encoding: 97 97 68
Width: 1193
GlyphClass: 2
Flags: W
LayerCount: 2
Fore
SplineSet
549 117 m 0,0,1
 720 117 720 117 885 271 c 1,2,-1
 885 569 l 1,3,4
 754 590 754 590 623 590 c 0,5,6
 566 590 566 590 522.5 585 c 128,-1,7
 479 580 479 580 435.5 565 c 128,-1,8
 392 550 392 550 364 525 c 128,-1,9
 336 500 336 500 318.5 457 c 128,-1,10
 301 414 301 414 301 356 c 0,11,12
 301 228 301 228 361 172.5 c 128,-1,13
 421 117 421 117 549 117 c 0,0,1
885 665 m 1,14,-1
 885 713 l 2,15,16
 885 784 885 784 880 830 c 128,-1,17
 875 876 875 876 859.5 921 c 128,-1,18
 844 966 844 966 814.5 991 c 128,-1,19
 785 1016 785 1016 735 1031.5 c 128,-1,20
 685 1047 685 1047 613 1047 c 0,21,22
 526 1047 526 1047 426.5 1015.5 c 128,-1,23
 327 984 327 984 250 935 c 1,24,-1
 183 1057 l 1,25,26
 298 1122 298 1122 396.5 1156 c 128,-1,27
 495 1190 495 1190 603 1190 c 0,28,29
 742 1190 742 1190 833 1162.5 c 128,-1,30
 924 1135 924 1135 978 1071 c 128,-1,31
 1032 1007 1032 1007 1053.5 916 c 128,-1,32
 1075 825 1075 825 1075 686 c 2,33,-1
 1075 0 l 1,34,-1
 935 0 l 1,35,-1
 907 178 l 1,36,37
 762 -20 762 -20 502 -20 c 0,38,39
 318 -20 318 -20 214 71.5 c 128,-1,40
 110 163 110 163 110 343 c 0,41,42
 110 437 110 437 146 510 c 128,-1,43
 182 583 182 583 244 627 c 128,-1,44
 306 671 306 671 384.5 693 c 128,-1,45
 463 715 463 715 554 715 c 0,46,47
 623 715 623 715 725 700.5 c 128,-1,48
 827 686 827 686 885 665 c 1,14,-1
EndSplineSet
EndChar

StartChar: b
Encoding: 98 98 69
Width: 1252
GlyphClass: 2
Flags: W
LayerCount: 2
Fore
SplineSet
664 -20 m 0,0,1
 560 -20 560 -20 464.5 35 c 128,-1,2
 369 90 369 90 294 178 c 1,3,-1
 266 0 l 1,4,-1
 126 0 l 1,5,-1
 126 1579 l 1,6,-1
 316 1614 l 1,7,-1
 316 1030 l 1,8,9
 383 1097 383 1097 480 1143.5 c 128,-1,10
 577 1190 577 1190 664 1190 c 0,11,12
 764 1190 764 1190 846 1155 c 128,-1,13
 928 1120 928 1120 981.5 1062 c 128,-1,14
 1035 1004 1035 1004 1071.5 924.5 c 128,-1,15
 1108 845 1108 845 1124 759 c 128,-1,16
 1140 673 1140 673 1140 580 c 0,17,18
 1140 486 1140 486 1124 401 c 128,-1,19
 1108 316 1108 316 1071.5 238 c 128,-1,20
 1035 160 1035 160 981 103.5 c 128,-1,21
 927 47 927 47 845.5 13.5 c 128,-1,22
 764 -20 764 -20 664 -20 c 0,0,1
958 584 m 0,23,24
 958 1047 958 1047 671 1047 c 0,25,26
 585 1047 585 1047 482.5 1005 c 128,-1,27
 380 963 380 963 316 902 c 1,28,-1
 316 273 l 1,29,30
 474 117 474 117 671 117 c 0,31,32
 731 117 731 117 778 137.5 c 128,-1,33
 825 158 825 158 855.5 195.5 c 128,-1,34
 886 233 886 233 907 277.5 c 128,-1,35
 928 322 928 322 938.5 377.5 c 128,-1,36
 949 433 949 433 953.5 481.5 c 128,-1,37
 958 530 958 530 958 584 c 0,23,24
EndSplineSet
PairPos2: "'kern' Horizontal Kerning lookup 1 per glyph data 0" z dx=0 dy=0 dh=-49 dv=0 dx=0 dy=0 dh=0 dv=0
PairPos2: "'kern' Horizontal Kerning lookup 1 per glyph data 0" x dx=0 dy=0 dh=-60 dv=0 dx=0 dy=0 dh=0 dv=0
PairPos2: "'kern' Horizontal Kerning lookup 1 per glyph data 0" w dx=0 dy=0 dh=-46 dv=0 dx=0 dy=0 dh=0 dv=0
PairPos2: "'kern' Horizontal Kerning lookup 1 per glyph data 0" v dx=0 dy=0 dh=-17 dv=0 dx=0 dy=0 dh=0 dv=0
PairPos2: "'kern' Horizontal Kerning lookup 1 per glyph data 0" v dx=0 dy=0 dh=-46 dv=0 dx=0 dy=0 dh=0 dv=0
PairPos2: "'kern' Horizontal Kerning lookup 1 per glyph data 0" b dx=0 dy=0 dh=-27 dv=0 dx=0 dy=0 dh=0 dv=0
PairPos2: "'kern' Horizontal Kerning lookup 1 per glyph data 0" period dx=0 dy=0 dh=-90 dv=0 dx=0 dy=0 dh=0 dv=0
EndChar

StartChar: c
Encoding: 99 99 70
Width: 1115
GlyphClass: 2
Flags: W
LayerCount: 2
Fore
SplineSet
301 580 m 0,0,1
 301 654 301 654 310 717 c 128,-1,2
 319 780 319 780 342.5 841 c 128,-1,3
 366 902 366 902 403 945 c 128,-1,4
 440 988 440 988 500.5 1014 c 128,-1,5
 561 1040 561 1040 639 1040 c 0,6,7
 819 1040 819 1040 953 924 c 1,8,-1
 1010 1057 l 1,9,10
 823 1190 823 1190 622 1190 c 0,11,12
 494 1190 494 1190 394 1140.5 c 128,-1,13
 294 1091 294 1091 233.5 1005.5 c 128,-1,14
 173 920 173 920 142 812 c 128,-1,15
 111 704 111 704 111 580 c 0,16,17
 111 457 111 457 142 350.5 c 128,-1,18
 173 244 173 244 233 160.5 c 128,-1,19
 293 77 293 77 392.5 28.5 c 128,-1,20
 492 -20 492 -20 619 -20 c 0,21,22
 823 -20 823 -20 1010 111 c 1,23,-1
 953 245 l 1,24,25
 825 117 825 117 624 117 c 0,26,27
 550 117 550 117 492.5 144.5 c 128,-1,28
 435 172 435 172 399.5 216 c 128,-1,29
 364 260 364 260 341 322 c 128,-1,30
 318 384 318 384 309.5 447 c 128,-1,31
 301 510 301 510 301 580 c 0,0,1
EndSplineSet
EndChar

StartChar: d
Encoding: 100 100 71
Width: 1253
GlyphClass: 2
Flags: W
LayerCount: 2
Fore
SplineSet
113 584 m 0,0,1
 113 673 113 673 129 757 c 128,-1,2
 145 841 145 841 180.5 920.5 c 128,-1,3
 216 1000 216 1000 268.5 1059 c 128,-1,4
 321 1118 321 1118 400 1154 c 128,-1,5
 479 1190 479 1190 575 1190 c 0,6,7
 674 1190 674 1190 777.5 1145.5 c 128,-1,8
 881 1101 881 1101 940 1028 c 1,9,-1
 940 1614 l 1,10,-1
 1130 1579 l 1,11,-1
 1130 0 l 1,12,-1
 989 0 l 1,13,-1
 961 179 l 1,14,15
 895 94 895 94 796.5 37 c 128,-1,16
 698 -20 698 -20 597 -20 c 0,17,18
 495 -20 495 -20 412.5 13.5 c 128,-1,19
 330 47 330 47 275 103.5 c 128,-1,20
 220 160 220 160 183 238 c 128,-1,21
 146 316 146 316 129.5 402 c 128,-1,22
 113 488 113 488 113 584 c 0,0,1
295 587 m 0,23,24
 295 117 295 117 593 117 c 0,25,26
 685 117 685 117 781.5 161 c 128,-1,27
 878 205 878 205 940 275 c 1,28,-1
 940 903 l 1,29,30
 751 1047 751 1047 587 1047 c 0,31,32
 295 1047 295 1047 295 587 c 0,23,24
EndSplineSet
EndChar

StartChar: e
Encoding: 101 101 72
Width: 1182
GlyphClass: 2
Flags: W
LayerCount: 2
Fore
SplineSet
903 717 m 2,0,1
 903 788 903 788 888.5 847 c 128,-1,2
 874 906 874 906 843 954.5 c 128,-1,3
 812 1003 812 1003 757.5 1030 c 128,-1,4
 703 1057 703 1057 629 1057 c 0,5,6
 336 1057 336 1057 304 682 c 1,7,-1
 903 682 l 1,8,-1
 903 717 l 2,0,1
300 563 m 1,9,10
 301 489 301 489 311.5 425.5 c 128,-1,11
 322 362 322 362 347.5 304 c 128,-1,12
 373 246 373 246 411.5 205.5 c 128,-1,13
 450 165 450 165 510.5 141 c 128,-1,14
 571 117 571 117 649 117 c 0,15,16
 818 117 818 117 955 244 c 1,17,-1
 1017 99 l 1,18,19
 943 47 943 47 835.5 13.5 c 128,-1,20
 728 -20 728 -20 637 -20 c 0,21,22
 505 -20 505 -20 403 26.5 c 128,-1,23
 301 73 301 73 238.5 155 c 128,-1,24
 176 237 176 237 144.5 344 c 128,-1,25
 113 451 113 451 113 578 c 0,26,27
 113 700 113 700 144.5 808.5 c 128,-1,28
 176 917 176 917 237.5 1003 c 128,-1,29
 299 1089 299 1089 399.5 1139.5 c 128,-1,30
 500 1190 500 1190 628 1190 c 0,31,32
 739 1190 739 1190 825.5 1149.5 c 128,-1,33
 912 1109 912 1109 965 1038 c 128,-1,34
 1018 967 1018 967 1044.5 875.5 c 128,-1,35
 1071 784 1071 784 1071 676 c 0,36,37
 1071 631 1071 631 1060 563 c 1,38,-1
 300 563 l 1,9,10
EndSplineSet
EndChar

StartChar: f
Encoding: 102 102 73
Width: 898
GlyphClass: 2
Flags: W
LayerCount: 2
Fore
SplineSet
617 1516 m 0,0,1
 564 1516 564 1516 529 1501.5 c 128,-1,2
 494 1487 494 1487 476.5 1459 c 128,-1,3
 459 1431 459 1431 453 1399.5 c 128,-1,4
 447 1368 447 1368 447 1324 c 0,5,6
 447 1300 447 1300 449.5 1247.5 c 128,-1,7
 452 1195 452 1195 452 1169 c 1,8,-1
 800 1169 l 1,9,-1
 800 1064 l 1,10,-1
 452 1064 l 1,11,-1
 452 0 l 1,12,-1
 262 0 l 1,13,-1
 262 1064 l 1,14,-1
 67 1064 l 1,15,-1
 67 1169 l 1,16,-1
 262 1169 l 1,17,18
 262 1230 262 1230 264.5 1276 c 128,-1,19
 267 1322 267 1322 275 1376 c 128,-1,20
 283 1430 283 1430 296.5 1468.5 c 128,-1,21
 310 1507 310 1507 335 1545 c 128,-1,22
 360 1583 360 1583 394.5 1606.5 c 128,-1,23
 429 1630 429 1630 479 1644.5 c 128,-1,24
 529 1659 529 1659 593 1659 c 0,25,26
 650 1659 650 1659 716 1632.5 c 128,-1,27
 782 1606 782 1606 835 1567 c 1,28,-1
 772 1442 l 1,29,30
 690 1516 690 1516 617 1516 c 0,0,1
EndSplineSet
EndChar

StartChar: g
Encoding: 103 103 74
Width: 1225
GlyphClass: 2
Flags: W
LayerCount: 2
Fore
SplineSet
240 -110 m 0,0,1
 240 -54 240 -54 265.5 -3.5 c 128,-1,2
 291 47 291 47 337 76 c 1,3,-1
 659 76 l 2,4,5
 709 76 709 76 743.5 73.5 c 128,-1,6
 778 71 778 71 821 60.5 c 128,-1,7
 864 50 864 50 890.5 31 c 128,-1,8
 917 12 917 12 935.5 -24 c 128,-1,9
 954 -60 954 -60 954 -111 c 0,10,11
 954 -144 954 -144 941 -170 c 128,-1,12
 928 -196 928 -196 908 -213.5 c 128,-1,13
 888 -231 888 -231 856.5 -243 c 128,-1,14
 825 -255 825 -255 797 -261.5 c 128,-1,15
 769 -268 769 -268 730.5 -271.5 c 128,-1,16
 692 -275 692 -275 665.5 -276 c 128,-1,17
 639 -277 639 -277 605 -277 c 2,18,-1
 572 -277 l 1,19,-1
 539 -277 l 2,20,21
 500 -277 500 -277 472.5 -275.5 c 128,-1,22
 445 -274 445 -274 406.5 -269.5 c 128,-1,23
 368 -265 368 -265 342 -253.5 c 128,-1,24
 316 -242 316 -242 290.5 -224.5 c 128,-1,25
 265 -207 265 -207 252.5 -178 c 128,-1,26
 240 -149 240 -149 240 -110 c 0,0,1
279 845 m 0,27,28
 279 904 279 904 301.5 947 c 128,-1,29
 324 990 324 990 364.5 1013.5 c 128,-1,30
 405 1037 405 1037 452 1047.5 c 128,-1,31
 499 1058 499 1058 555 1058 c 0,32,33
 602 1058 602 1058 638 1054 c 128,-1,34
 674 1050 674 1050 710 1037.5 c 128,-1,35
 746 1025 746 1025 769.5 1003.5 c 128,-1,36
 793 982 793 982 807.5 946 c 128,-1,37
 822 910 822 910 822 860 c 0,38,39
 822 804 822 804 813.5 761.5 c 128,-1,40
 805 719 805 719 791 689 c 128,-1,41
 777 659 777 659 752.5 637.5 c 128,-1,42
 728 616 728 616 701.5 602.5 c 128,-1,43
 675 589 675 589 636 580 c 128,-1,44
 597 571 597 571 560 565 c 128,-1,45
 523 559 523 559 472 553 c 0,46,47
 465 552 465 552 462 552 c 1,48,49
 382 587 382 587 330.5 671.5 c 128,-1,50
 279 756 279 756 279 845 c 0,27,28
248 107 m 1,51,52
 82 32 82 32 82 -125 c 0,53,54
 82 -184 82 -184 99.5 -230.5 c 128,-1,55
 117 -277 117 -277 145 -308 c 128,-1,56
 173 -339 173 -339 216 -362 c 128,-1,57
 259 -385 259 -385 300.5 -397 c 128,-1,58
 342 -409 342 -409 397.5 -416 c 128,-1,59
 453 -423 453 -423 495.5 -425 c 128,-1,60
 538 -427 538 -427 592 -427 c 0,61,62
 661 -427 661 -427 726.5 -419.5 c 128,-1,63
 792 -412 792 -412 865 -390 c 128,-1,64
 938 -368 938 -368 991.5 -334 c 128,-1,65
 1045 -300 1045 -300 1080.5 -241 c 128,-1,66
 1116 -182 1116 -182 1116 -106 c 0,67,68
 1116 -38 1116 -38 1094.5 15.5 c 128,-1,69
 1073 69 1073 69 1032.5 103.5 c 128,-1,70
 992 138 992 138 943 161 c 128,-1,71
 894 184 894 184 829 196 c 128,-1,72
 764 208 764 208 705 212.5 c 128,-1,73
 646 217 646 217 575 217 c 0,74,75
 518 217 518 217 420.5 213.5 c 128,-1,76
 323 210 323 210 289 210 c 1,77,78
 268 279 268 279 268 322 c 0,79,80
 268 355 268 355 299 376 c 128,-1,81
 330 397 330 397 380.5 405.5 c 128,-1,82
 431 414 431 414 496 424 c 128,-1,83
 561 434 561 434 628.5 444 c 128,-1,84
 696 454 696 454 761 480 c 128,-1,85
 826 506 826 506 876.5 544 c 128,-1,86
 927 582 927 582 958 650.5 c 128,-1,87
 989 719 989 719 989 812 c 0,88,89
 989 977 989 977 906 1026 c 1,90,-1
 1144 1026 l 1,91,-1
 1144 1171 l 1,92,93
 1045 1170 1045 1170 975.5 1159.5 c 128,-1,94
 906 1149 906 1149 839 1114 c 1,95,96
 741 1190 741 1190 559 1190 c 0,97,98
 496 1190 496 1190 435 1178 c 128,-1,99
 374 1166 374 1166 316 1139 c 128,-1,100
 258 1112 258 1112 214.5 1074 c 128,-1,101
 171 1036 171 1036 144.5 979 c 128,-1,102
 118 922 118 922 118 854 c 0,103,104
 118 747 118 747 170 654.5 c 128,-1,105
 222 562 222 562 315 521 c 1,106,107
 238 509 238 509 183.5 452.5 c 128,-1,108
 129 396 129 396 129 320 c 0,109,110
 129 258 129 258 162 200.5 c 128,-1,111
 195 143 195 143 248 107 c 1,51,52
EndSplineSet
EndChar

StartChar: h
Encoding: 104 104 75
Width: 1229
GlyphClass: 2
Flags: W
LayerCount: 2
Fore
SplineSet
688 1047 m 0,0,1
 594 1047 594 1047 485.5 1001.5 c 128,-1,2
 377 956 377 956 313 888 c 1,3,-1
 313 0 l 1,4,-1
 123 0 l 1,5,-1
 123 1579 l 1,6,-1
 313 1616 l 1,7,-1
 313 1011 l 1,8,9
 405 1095 405 1095 497.5 1142.5 c 128,-1,10
 590 1190 590 1190 702 1190 c 0,11,12
 915 1190 915 1190 1012.5 1071.5 c 128,-1,13
 1110 953 1110 953 1110 727 c 2,14,-1
 1110 0 l 1,15,-1
 920 0 l 1,16,-1
 920 727 l 2,17,18
 920 781 920 781 914.5 824 c 128,-1,19
 909 867 909 867 894 910 c 128,-1,20
 879 953 879 953 854 982 c 128,-1,21
 829 1011 829 1011 786.5 1029 c 128,-1,22
 744 1047 744 1047 688 1047 c 0,0,1
EndSplineSet
EndChar

StartChar: i
Encoding: 105 105 76
Width: 468
GlyphClass: 2
Flags: W
LayerCount: 2
Fore
SplineSet
324 0 m 1,0,-1
 142 0 l 1,1,-1
 142 1169 l 1,2,-1
 324 1169 l 1,3,-1
 324 0 l 1,0,-1
237 1577 m 0,4,5
 285 1577 285 1577 315 1543.5 c 128,-1,6
 345 1510 345 1510 345 1462 c 128,-1,7
 345 1414 345 1414 315 1380.5 c 128,-1,8
 285 1347 285 1347 237 1347 c 128,-1,9
 189 1347 189 1347 157 1380.5 c 128,-1,10
 125 1414 125 1414 125 1462 c 0,11,12
 125 1509 125 1509 157.5 1543 c 128,-1,13
 190 1577 190 1577 237 1577 c 0,4,5
EndSplineSet
EndChar

StartChar: j
Encoding: 106 106 77
Width: 606
GlyphClass: 2
Flags: W
LayerCount: 2
Fore
SplineSet
93 -258 m 1,0,1
 144 -225 144 -225 179.5 -187.5 c 128,-1,2
 215 -150 215 -150 234.5 -113 c 128,-1,3
 254 -76 254 -76 264.5 -25.5 c 128,-1,4
 275 25 275 25 278 68 c 128,-1,5
 281 111 281 111 281 176 c 2,6,-1
 281 1169 l 1,7,-1
 471 1169 l 1,8,-1
 471 154 l 2,9,10
 471 67 471 67 452 -14.5 c 128,-1,11
 433 -96 433 -96 395 -170 c 128,-1,12
 357 -244 357 -244 291.5 -298 c 128,-1,13
 226 -352 226 -352 140 -373 c 1,14,-1
 93 -258 l 1,0,1
375 1577 m 0,15,16
 423 1577 423 1577 453 1543.5 c 128,-1,17
 483 1510 483 1510 483 1462 c 128,-1,18
 483 1414 483 1414 453 1380.5 c 128,-1,19
 423 1347 423 1347 375 1347 c 128,-1,20
 327 1347 327 1347 295 1380.5 c 128,-1,21
 263 1414 263 1414 263 1462 c 0,22,23
 263 1509 263 1509 295.5 1543 c 128,-1,24
 328 1577 328 1577 375 1577 c 0,15,16
EndSplineSet
EndChar

StartChar: k
Encoding: 107 107 78
Width: 1213
GlyphClass: 2
Flags: W
LayerCount: 2
Fore
SplineSet
1099 1169 m 1,0,-1
 546 648 l 1,1,-1
 1132 0 l 1,2,-1
 911 0 l 1,3,-1
 431 555 l 1,4,-1
 315 459 l 1,5,-1
 315 0 l 1,6,-1
 125 0 l 1,7,-1
 125 1579 l 1,8,-1
 315 1614 l 1,9,-1
 315 627 l 1,10,-1
 874 1169 l 1,11,-1
 1099 1169 l 1,0,-1
EndSplineSet
EndChar

StartChar: l
Encoding: 108 108 79
Width: 437
GlyphClass: 2
Flags: W
LayerCount: 2
Fore
SplineSet
123 0 m 1,0,-1
 123 1579 l 1,1,-1
 313 1614 l 1,2,-1
 313 0 l 1,3,-1
 123 0 l 1,0,-1
EndSplineSet
EndChar

StartChar: m
Encoding: 109 109 80
Width: 1901
GlyphClass: 2
Flags: W
LayerCount: 2
Fore
SplineSet
1005 967 m 1,0,1
 1074 1068 1074 1068 1188.5 1129 c 128,-1,2
 1303 1190 1303 1190 1425 1190 c 0,3,4
 1515 1190 1515 1190 1585 1156 c 128,-1,5
 1655 1122 1655 1122 1697 1062.5 c 128,-1,6
 1739 1003 1739 1003 1760 928 c 128,-1,7
 1781 853 1781 853 1781 766 c 2,8,-1
 1781 0 l 1,9,-1
 1591 0 l 1,10,-1
 1591 768 l 2,11,12
 1591 816 1591 816 1587.5 852.5 c 128,-1,13
 1584 889 1584 889 1572 927.5 c 128,-1,14
 1560 966 1560 966 1539.5 990.5 c 128,-1,15
 1519 1015 1519 1015 1483 1031 c 128,-1,16
 1447 1047 1447 1047 1397 1047 c 0,17,18
 1216 1047 1216 1047 1035 858 c 1,19,-1
 1035 0 l 1,20,-1
 845 0 l 1,21,-1
 845 768 l 2,22,23
 845 817 845 817 841.5 853 c 128,-1,24
 838 889 838 889 826.5 928 c 128,-1,25
 815 967 815 967 795 991 c 128,-1,26
 775 1015 775 1015 739 1031 c 128,-1,27
 703 1047 703 1047 653 1047 c 0,28,29
 500 1047 500 1047 313 860 c 1,30,-1
 313 0 l 1,31,-1
 123 0 l 1,32,-1
 123 1169 l 1,33,-1
 264 1169 l 1,34,-1
 291 963 l 1,35,36
 355 1065 355 1065 460.5 1127.5 c 128,-1,37
 566 1190 566 1190 684 1190 c 0,38,39
 799 1190 799 1190 884.5 1132 c 128,-1,40
 970 1074 970 1074 1005 967 c 1,0,1
EndSplineSet
EndChar

StartChar: n
Encoding: 110 110 81
Width: 1227
GlyphClass: 2
Flags: W
LayerCount: 2
Fore
SplineSet
313 880 m 1,0,-1
 313 0 l 1,1,-1
 123 0 l 1,2,-1
 123 1169 l 1,3,-1
 263 1169 l 1,4,-1
 287 982 l 1,5,6
 356 1069 356 1069 488.5 1128.5 c 128,-1,7
 621 1188 621 1188 736 1188 c 0,8,9
 836 1188 836 1188 909.5 1151.5 c 128,-1,10
 983 1115 983 1115 1025 1050 c 128,-1,11
 1067 985 1067 985 1087 904.5 c 128,-1,12
 1107 824 1107 824 1107 727 c 2,13,-1
 1107 0 l 1,14,-1
 917 0 l 1,15,-1
 917 727 l 2,16,17
 917 779 917 779 912 821 c 128,-1,18
 907 863 907 863 892.5 907 c 128,-1,19
 878 951 878 951 854.5 980.5 c 128,-1,20
 831 1010 831 1010 789.5 1028.5 c 128,-1,21
 748 1047 748 1047 693 1047 c 0,22,23
 613 1047 613 1047 495.5 993.5 c 128,-1,24
 378 940 378 940 313 880 c 1,0,-1
EndSplineSet
EndChar

StartChar: o
Encoding: 111 111 82
Width: 1285
GlyphClass: 2
Flags: W
LayerCount: 2
Fore
SplineSet
294 582 m 128,-1,1
 294 509 294 509 304 445 c 128,-1,2
 314 381 314 381 339 319.5 c 128,-1,3
 364 258 364 258 402.5 214 c 128,-1,4
 441 170 441 170 502.5 143.5 c 128,-1,5
 564 117 564 117 642 117 c 0,6,7
 721 117 721 117 782.5 143.5 c 128,-1,8
 844 170 844 170 882.5 213.5 c 128,-1,9
 921 257 921 257 945.5 318.5 c 128,-1,10
 970 380 970 380 980 444.5 c 128,-1,11
 990 509 990 509 990 582 c 128,-1,12
 990 655 990 655 980 719.5 c 128,-1,13
 970 784 970 784 945 846 c 128,-1,14
 920 908 920 908 881.5 952.5 c 128,-1,15
 843 997 843 997 782 1024 c 128,-1,16
 721 1051 721 1051 642 1051 c 128,-1,17
 563 1051 563 1051 502 1024 c 128,-1,18
 441 997 441 997 402.5 952.5 c 128,-1,19
 364 908 364 908 339 846 c 128,-1,20
 314 784 314 784 304 719.5 c 128,-1,0
 294 655 294 655 294 582 c 128,-1,1
112 582 m 128,-1,22
 112 709 112 709 145 817.5 c 128,-1,23
 178 926 178 926 242 1010 c 128,-1,24
 306 1094 306 1094 408.5 1142 c 128,-1,25
 511 1190 511 1190 642 1190 c 128,-1,26
 773 1190 773 1190 876 1142 c 128,-1,27
 979 1094 979 1094 1043 1010.5 c 128,-1,28
 1107 927 1107 927 1140 818 c 128,-1,29
 1173 709 1173 709 1173 582 c 128,-1,30
 1173 455 1173 455 1140 347 c 128,-1,31
 1107 239 1107 239 1043 156.5 c 128,-1,32
 979 74 979 74 876 27 c 128,-1,33
 773 -20 773 -20 642 -20 c 128,-1,34
 511 -20 511 -20 408.5 27 c 128,-1,35
 306 74 306 74 242 156.5 c 128,-1,36
 178 239 178 239 145 347 c 128,-1,21
 112 455 112 455 112 582 c 128,-1,22
EndSplineSet
EndChar

StartChar: p
Encoding: 112 112 83
Width: 1256
GlyphClass: 2
Flags: W
LayerCount: 2
Fore
SplineSet
675 -20 m 0,0,1
 574 -20 574 -20 479 30.5 c 128,-1,2
 384 81 384 81 316 164 c 1,3,-1
 316 -465 l 1,4,-1
 126 -487 l 1,5,-1
 126 1169 l 1,6,-1
 267 1169 l 1,7,-1
 300 971 l 1,8,9
 371 1066 371 1066 469 1128 c 128,-1,10
 567 1190 567 1190 674 1190 c 0,11,12
 774 1190 774 1190 854.5 1155.5 c 128,-1,13
 935 1121 935 1121 988 1063 c 128,-1,14
 1041 1005 1041 1005 1077 926 c 128,-1,15
 1113 847 1113 847 1128.5 762 c 128,-1,16
 1144 677 1144 677 1144 584 c 0,17,18
 1144 493 1144 493 1128 408.5 c 128,-1,19
 1112 324 1112 324 1075.5 245 c 128,-1,20
 1039 166 1039 166 986 108 c 128,-1,21
 933 50 933 50 853 15 c 128,-1,22
 773 -20 773 -20 675 -20 c 0,0,1
962 543 m 0,23,24
 962 598 962 598 958.5 647.5 c 128,-1,25
 955 697 955 697 945 758 c 128,-1,26
 935 819 935 819 914.5 867.5 c 128,-1,27
 894 916 894 916 863.5 958 c 128,-1,28
 833 1000 833 1000 785 1023.5 c 128,-1,29
 737 1047 737 1047 675 1047 c 0,30,31
 592 1047 592 1047 483 999 c 128,-1,32
 374 951 374 951 316 890 c 1,33,-1
 316 285 l 1,34,35
 365 223 365 223 472.5 170 c 128,-1,36
 580 117 580 117 656 117 c 0,37,38
 726 117 726 117 780.5 141.5 c 128,-1,39
 835 166 835 166 868.5 205.5 c 128,-1,40
 902 245 902 245 923.5 301.5 c 128,-1,41
 945 358 945 358 953.5 416.5 c 128,-1,42
 962 475 962 475 962 543 c 0,23,24
EndSplineSet
EndChar

StartChar: q
Encoding: 113 113 84
Width: 1245
GlyphClass: 2
Flags: W
LayerCount: 2
Fore
SplineSet
570 1190 m 0,0,1
 679 1190 679 1190 784.5 1127.5 c 128,-1,2
 890 1065 890 1065 953 971 c 1,3,-1
 987 1169 l 1,4,-1
 1126 1169 l 1,5,-1
 1126 -479 l 1,6,-1
 936 -502 l 1,7,-1
 936 164 l 1,8,9
 871 81 871 81 776 30.5 c 128,-1,10
 681 -20 681 -20 580 -20 c 0,11,12
 481 -20 481 -20 400.5 14.5 c 128,-1,13
 320 49 320 49 267 107 c 128,-1,14
 214 165 214 165 177.5 243.5 c 128,-1,15
 141 322 141 322 125 407 c 128,-1,16
 109 492 109 492 109 584 c 128,-1,17
 109 676 109 676 123.5 760.5 c 128,-1,18
 138 845 138 845 173 924 c 128,-1,19
 208 1003 208 1003 259.5 1061.5 c 128,-1,20
 311 1120 311 1120 391 1155 c 128,-1,21
 471 1190 471 1190 570 1190 c 0,0,1
291 584 m 0,22,23
 291 517 291 517 297 458.5 c 128,-1,24
 303 400 303 400 322 334.5 c 128,-1,25
 341 269 341 269 371.5 223 c 128,-1,26
 402 177 402 177 455.5 147 c 128,-1,27
 509 117 509 117 580 117 c 0,28,29
 666 117 666 117 770.5 161 c 128,-1,30
 875 205 875 205 936 268 c 1,31,-1
 936 891 l 1,32,33
 872 955 872 955 765.5 1001 c 128,-1,34
 659 1047 659 1047 570 1047 c 0,35,36
 291 1047 291 1047 291 584 c 0,22,23
EndSplineSet
EndChar

StartChar: r
Encoding: 114 114 85
Width: 831
GlyphClass: 2
Flags: W
LayerCount: 2
Fore
SplineSet
618 1190 m 0,0,1
 675 1190 675 1190 718 1178 c 1,2,-1
 718 1026 l 1,3,4
 698 1030 698 1030 656 1030 c 0,5,6
 579 1030 579 1030 474 988.5 c 128,-1,7
 369 947 369 947 313 894 c 1,8,-1
 313 0 l 1,9,-1
 123 0 l 1,10,-1
 123 1169 l 1,11,-1
 266 1169 l 1,12,-1
 296 977 l 1,13,14
 460 1190 460 1190 618 1190 c 0,0,1
EndSplineSet
EndChar

StartChar: s
Encoding: 115 115 86
Width: 1007
GlyphClass: 2
Flags: W
LayerCount: 2
Fore
SplineSet
99 100 m 1,0,-1
 163 245 l 1,1,2
 227 190 227 190 318.5 153.5 c 128,-1,3
 410 117 410 117 490 117 c 0,4,5
 536 117 536 117 578 126 c 128,-1,6
 620 135 620 135 660.5 155.5 c 128,-1,7
 701 176 701 176 725 217 c 128,-1,8
 749 258 749 258 749 314 c 0,9,10
 749 376 749 376 712.5 418.5 c 128,-1,11
 676 461 676 461 618 485 c 128,-1,12
 560 509 560 509 489.5 528.5 c 128,-1,13
 419 548 419 548 348.5 573 c 128,-1,14
 278 598 278 598 220 633.5 c 128,-1,15
 162 669 162 669 125.5 734.5 c 128,-1,16
 89 800 89 800 89 891 c 0,17,18
 89 967 89 967 125 1026.5 c 128,-1,19
 161 1086 161 1086 220 1120.5 c 128,-1,20
 279 1155 279 1155 347 1172.5 c 128,-1,21
 415 1190 415 1190 486 1190 c 0,22,23
 569 1190 569 1190 689.5 1153 c 128,-1,24
 810 1116 810 1116 868 1067 c 1,25,-1
 806 924 l 1,26,27
 660 1042 660 1042 497 1042 c 0,28,29
 451 1042 451 1042 411.5 1035 c 128,-1,30
 372 1028 372 1028 333 1012 c 128,-1,31
 294 996 294 996 271.5 962 c 128,-1,32
 249 928 249 928 249 880 c 0,33,34
 249 834 249 834 286 800.5 c 128,-1,35
 323 767 323 767 382.5 745 c 128,-1,36
 442 723 442 723 513.5 701.5 c 128,-1,37
 585 680 585 680 656.5 650 c 128,-1,38
 728 620 728 620 787.5 579.5 c 128,-1,39
 847 539 847 539 884 469.5 c 128,-1,40
 921 400 921 400 921 309 c 0,41,42
 921 221 921 221 883 155 c 128,-1,43
 845 89 845 89 780.5 52 c 128,-1,44
 716 15 716 15 641.5 -2.5 c 128,-1,45
 567 -20 567 -20 483 -20 c 0,46,47
 397 -20 397 -20 278.5 15.5 c 128,-1,48
 160 51 160 51 99 100 c 1,0,-1
EndSplineSet
EndChar

StartChar: t
Encoding: 116 116 87
Width: 915
GlyphClass: 2
Flags: W
LayerCount: 2
Fore
SplineSet
815 40 m 1,0,1
 701 -14 701 -14 578 -14 c 0,2,3
 439 -14 439 -14 359 72.5 c 128,-1,4
 279 159 279 159 279 300 c 2,5,-1
 279 1065 l 1,6,-1
 96 1065 l 1,7,-1
 96 1169 l 1,8,-1
 307 1169 l 1,9,-1
 307 1530 l 1,10,-1
 469 1576 l 1,11,-1
 469 1169 l 1,12,-1
 802 1169 l 1,13,-1
 802 1065 l 1,14,-1
 469 1065 l 1,15,-1
 469 298 l 2,16,17
 469 224 469 224 504.5 174.5 c 128,-1,18
 540 125 540 125 610 125 c 0,19,20
 687 125 687 125 779 169 c 1,21,-1
 815 40 l 1,0,1
EndSplineSet
EndChar

StartChar: u
Encoding: 117 117 88
Width: 1210
GlyphClass: 2
Flags: W
LayerCount: 2
Fore
SplineSet
543 117 m 0,0,1
 737 117 737 117 897 274 c 1,2,-1
 897 1169 l 1,3,-1
 1087 1169 l 1,4,-1
 1087 0 l 1,5,-1
 946 0 l 1,6,-1
 919 176 l 1,7,8
 745 -20 745 -20 533 -20 c 0,9,10
 320 -20 320 -20 220.5 101.5 c 128,-1,11
 121 223 121 223 121 442 c 2,12,-1
 121 1169 l 1,13,-1
 311 1169 l 1,14,-1
 311 442 l 2,15,16
 311 373 311 373 320.5 320 c 128,-1,17
 330 267 330 267 354 218.5 c 128,-1,18
 378 170 378 170 425.5 143.5 c 128,-1,19
 473 117 473 117 543 117 c 0,0,1
EndSplineSet
EndChar

StartChar: v
Encoding: 118 118 89
Width: 1229
GlyphClass: 2
Flags: W
LayerCount: 2
Fore
SplineSet
707 0 m 1,0,-1
 521 0 l 1,1,-1
 93 1169 l 1,2,-1
 281 1169 l 1,3,-1
 617 199 l 1,4,-1
 947 1169 l 1,5,-1
 1137 1169 l 1,6,-1
 707 0 l 1,0,-1
EndSplineSet
PairPos2: "'kern' Horizontal Kerning lookup 1 per glyph data 0" oe dx=0 dy=0 dh=-50 dv=0 dx=0 dy=0 dh=0 dv=0
PairPos2: "'kern' Horizontal Kerning lookup 1 per glyph data 0" oslash dx=0 dy=0 dh=-50 dv=0 dx=0 dy=0 dh=0 dv=0
PairPos2: "'kern' Horizontal Kerning lookup 1 per glyph data 0" odieresis dx=0 dy=0 dh=-50 dv=0 dx=0 dy=0 dh=0 dv=0
PairPos2: "'kern' Horizontal Kerning lookup 1 per glyph data 0" otilde dx=0 dy=0 dh=-50 dv=0 dx=0 dy=0 dh=0 dv=0
PairPos2: "'kern' Horizontal Kerning lookup 1 per glyph data 0" ocircumflex dx=0 dy=0 dh=-50 dv=0 dx=0 dy=0 dh=0 dv=0
PairPos2: "'kern' Horizontal Kerning lookup 1 per glyph data 0" oacute dx=0 dy=0 dh=-50 dv=0 dx=0 dy=0 dh=0 dv=0
PairPos2: "'kern' Horizontal Kerning lookup 1 per glyph data 0" ograve dx=0 dy=0 dh=-50 dv=0 dx=0 dy=0 dh=0 dv=0
PairPos2: "'kern' Horizontal Kerning lookup 1 per glyph data 0" edieresis dx=0 dy=0 dh=-50 dv=0 dx=0 dy=0 dh=0 dv=0
PairPos2: "'kern' Horizontal Kerning lookup 1 per glyph data 0" ecircumflex dx=0 dy=0 dh=-50 dv=0 dx=0 dy=0 dh=0 dv=0
PairPos2: "'kern' Horizontal Kerning lookup 1 per glyph data 0" eacute dx=0 dy=0 dh=-50 dv=0 dx=0 dy=0 dh=0 dv=0
PairPos2: "'kern' Horizontal Kerning lookup 1 per glyph data 0" egrave dx=0 dy=0 dh=-50 dv=0 dx=0 dy=0 dh=0 dv=0
PairPos2: "'kern' Horizontal Kerning lookup 1 per glyph data 0" ae dx=0 dy=0 dh=-50 dv=0 dx=0 dy=0 dh=0 dv=0
PairPos2: "'kern' Horizontal Kerning lookup 1 per glyph data 0" q dx=0 dy=0 dh=-50 dv=0 dx=0 dy=0 dh=0 dv=0
PairPos2: "'kern' Horizontal Kerning lookup 1 per glyph data 0" q dx=0 dy=0 dh=-37 dv=0 dx=0 dy=0 dh=0 dv=0
PairPos2: "'kern' Horizontal Kerning lookup 1 per glyph data 0" o dx=0 dy=0 dh=-50 dv=0 dx=0 dy=0 dh=0 dv=0
PairPos2: "'kern' Horizontal Kerning lookup 1 per glyph data 0" e dx=0 dy=0 dh=-50 dv=0 dx=0 dy=0 dh=0 dv=0
PairPos2: "'kern' Horizontal Kerning lookup 1 per glyph data 0" d dx=0 dy=0 dh=-39 dv=0 dx=0 dy=0 dh=0 dv=0
PairPos2: "'kern' Horizontal Kerning lookup 1 per glyph data 0" d dx=0 dy=0 dh=-50 dv=0 dx=0 dy=0 dh=0 dv=0
PairPos2: "'kern' Horizontal Kerning lookup 1 per glyph data 0" c dx=0 dy=0 dh=-50 dv=0 dx=0 dy=0 dh=0 dv=0
PairPos2: "'kern' Horizontal Kerning lookup 1 per glyph data 0" a dx=0 dy=0 dh=-23 dv=0 dx=0 dy=0 dh=0 dv=0
PairPos2: "'kern' Horizontal Kerning lookup 1 per glyph data 0" comma dx=0 dy=0 dh=-120 dv=0 dx=0 dy=0 dh=0 dv=0
PairPos2: "'kern' Horizontal Kerning lookup 1 per glyph data 0" .notdef dx=0 dy=0 dh=-50 dv=0 dx=0 dy=0 dh=0 dv=0
EndChar

StartChar: w
Encoding: 119 119 90
Width: 1751
GlyphClass: 2
Flags: W
LayerCount: 2
Fore
SplineSet
876 996 m 1,0,-1
 628 0 l 1,1,-1
 422 0 l 1,2,-1
 93 1169 l 1,3,-1
 277 1169 l 1,4,-1
 527 153 l 1,5,-1
 778 1169 l 1,6,-1
 980 1169 l 1,7,-1
 1243 151 l 1,8,-1
 1477 1169 l 1,9,-1
 1656 1169 l 1,10,-1
 1336 0 l 1,11,-1
 1130 0 l 1,12,-1
 876 996 l 1,0,-1
EndSplineSet
PairPos2: "'kern' Horizontal Kerning lookup 1 per glyph data 0" oe dx=0 dy=0 dh=-50 dv=0 dx=0 dy=0 dh=0 dv=0
PairPos2: "'kern' Horizontal Kerning lookup 1 per glyph data 0" oslash dx=0 dy=0 dh=-50 dv=0 dx=0 dy=0 dh=0 dv=0
PairPos2: "'kern' Horizontal Kerning lookup 1 per glyph data 0" odieresis dx=0 dy=0 dh=-50 dv=0 dx=0 dy=0 dh=0 dv=0
PairPos2: "'kern' Horizontal Kerning lookup 1 per glyph data 0" otilde dx=0 dy=0 dh=-50 dv=0 dx=0 dy=0 dh=0 dv=0
PairPos2: "'kern' Horizontal Kerning lookup 1 per glyph data 0" ocircumflex dx=0 dy=0 dh=-50 dv=0 dx=0 dy=0 dh=0 dv=0
PairPos2: "'kern' Horizontal Kerning lookup 1 per glyph data 0" oacute dx=0 dy=0 dh=-50 dv=0 dx=0 dy=0 dh=0 dv=0
PairPos2: "'kern' Horizontal Kerning lookup 1 per glyph data 0" ograve dx=0 dy=0 dh=-50 dv=0 dx=0 dy=0 dh=0 dv=0
PairPos2: "'kern' Horizontal Kerning lookup 1 per glyph data 0" edieresis dx=0 dy=0 dh=-50 dv=0 dx=0 dy=0 dh=0 dv=0
PairPos2: "'kern' Horizontal Kerning lookup 1 per glyph data 0" ecircumflex dx=0 dy=0 dh=-50 dv=0 dx=0 dy=0 dh=0 dv=0
PairPos2: "'kern' Horizontal Kerning lookup 1 per glyph data 0" eacute dx=0 dy=0 dh=-50 dv=0 dx=0 dy=0 dh=0 dv=0
PairPos2: "'kern' Horizontal Kerning lookup 1 per glyph data 0" egrave dx=0 dy=0 dh=-50 dv=0 dx=0 dy=0 dh=0 dv=0
PairPos2: "'kern' Horizontal Kerning lookup 1 per glyph data 0" ae dx=0 dy=0 dh=-50 dv=0 dx=0 dy=0 dh=0 dv=0
PairPos2: "'kern' Horizontal Kerning lookup 1 per glyph data 0" q dx=0 dy=0 dh=-50 dv=0 dx=0 dy=0 dh=0 dv=0
PairPos2: "'kern' Horizontal Kerning lookup 1 per glyph data 0" q dx=0 dy=0 dh=-41 dv=0 dx=0 dy=0 dh=0 dv=0
PairPos2: "'kern' Horizontal Kerning lookup 1 per glyph data 0" o dx=0 dy=0 dh=-50 dv=0 dx=0 dy=0 dh=0 dv=0
PairPos2: "'kern' Horizontal Kerning lookup 1 per glyph data 0" e dx=0 dy=0 dh=-50 dv=0 dx=0 dy=0 dh=0 dv=0
PairPos2: "'kern' Horizontal Kerning lookup 1 per glyph data 0" d dx=0 dy=0 dh=-50 dv=0 dx=0 dy=0 dh=0 dv=0
PairPos2: "'kern' Horizontal Kerning lookup 1 per glyph data 0" d dx=0 dy=0 dh=-55 dv=0 dx=0 dy=0 dh=0 dv=0
PairPos2: "'kern' Horizontal Kerning lookup 1 per glyph data 0" c dx=0 dy=0 dh=-50 dv=0 dx=0 dy=0 dh=0 dv=0
PairPos2: "'kern' Horizontal Kerning lookup 1 per glyph data 0" a dx=0 dy=0 dh=-23 dv=0 dx=0 dy=0 dh=0 dv=0
PairPos2: "'kern' Horizontal Kerning lookup 1 per glyph data 0" period dx=0 dy=0 dh=-70 dv=0 dx=0 dy=0 dh=0 dv=0
PairPos2: "'kern' Horizontal Kerning lookup 1 per glyph data 0" comma dx=0 dy=0 dh=-120 dv=0 dx=0 dy=0 dh=0 dv=0
PairPos2: "'kern' Horizontal Kerning lookup 1 per glyph data 0" .notdef dx=0 dy=0 dh=-50 dv=0 dx=0 dy=0 dh=0 dv=0
EndChar

StartChar: x
Encoding: 120 120 91
Width: 1183
GlyphClass: 2
Flags: W
LayerCount: 2
Fore
SplineSet
92 1169 m 1,0,-1
 308 1169 l 1,1,-1
 590 702 l 1,2,-1
 880 1169 l 1,3,-1
 1090 1169 l 1,4,-1
 684 584 l 1,5,-1
 1082 0 l 1,6,-1
 878 0 l 1,7,-1
 596 477 l 1,8,-1
 308 0 l 1,9,-1
 96 0 l 1,10,-1
 504 584 l 1,11,-1
 92 1169 l 1,0,-1
EndSplineSet
PairPos2: "'kern' Horizontal Kerning lookup 1 per glyph data 0" oe dx=0 dy=0 dh=-60 dv=0 dx=0 dy=0 dh=0 dv=0
PairPos2: "'kern' Horizontal Kerning lookup 1 per glyph data 0" oslash dx=0 dy=0 dh=-60 dv=0 dx=0 dy=0 dh=0 dv=0
PairPos2: "'kern' Horizontal Kerning lookup 1 per glyph data 0" odieresis dx=0 dy=0 dh=-60 dv=0 dx=0 dy=0 dh=0 dv=0
PairPos2: "'kern' Horizontal Kerning lookup 1 per glyph data 0" otilde dx=0 dy=0 dh=-60 dv=0 dx=0 dy=0 dh=0 dv=0
PairPos2: "'kern' Horizontal Kerning lookup 1 per glyph data 0" ocircumflex dx=0 dy=0 dh=-60 dv=0 dx=0 dy=0 dh=0 dv=0
PairPos2: "'kern' Horizontal Kerning lookup 1 per glyph data 0" oacute dx=0 dy=0 dh=-60 dv=0 dx=0 dy=0 dh=0 dv=0
PairPos2: "'kern' Horizontal Kerning lookup 1 per glyph data 0" ograve dx=0 dy=0 dh=-60 dv=0 dx=0 dy=0 dh=0 dv=0
PairPos2: "'kern' Horizontal Kerning lookup 1 per glyph data 0" edieresis dx=0 dy=0 dh=-60 dv=0 dx=0 dy=0 dh=0 dv=0
PairPos2: "'kern' Horizontal Kerning lookup 1 per glyph data 0" ecircumflex dx=0 dy=0 dh=-60 dv=0 dx=0 dy=0 dh=0 dv=0
PairPos2: "'kern' Horizontal Kerning lookup 1 per glyph data 0" eacute dx=0 dy=0 dh=-60 dv=0 dx=0 dy=0 dh=0 dv=0
PairPos2: "'kern' Horizontal Kerning lookup 1 per glyph data 0" egrave dx=0 dy=0 dh=-60 dv=0 dx=0 dy=0 dh=0 dv=0
PairPos2: "'kern' Horizontal Kerning lookup 1 per glyph data 0" ae dx=0 dy=0 dh=-60 dv=0 dx=0 dy=0 dh=0 dv=0
PairPos2: "'kern' Horizontal Kerning lookup 1 per glyph data 0" q dx=0 dy=0 dh=-60 dv=0 dx=0 dy=0 dh=0 dv=0
PairPos2: "'kern' Horizontal Kerning lookup 1 per glyph data 0" o dx=0 dy=0 dh=-60 dv=0 dx=0 dy=0 dh=0 dv=0
PairPos2: "'kern' Horizontal Kerning lookup 1 per glyph data 0" e dx=0 dy=0 dh=-60 dv=0 dx=0 dy=0 dh=0 dv=0
PairPos2: "'kern' Horizontal Kerning lookup 1 per glyph data 0" d dx=0 dy=0 dh=-60 dv=0 dx=0 dy=0 dh=0 dv=0
PairPos2: "'kern' Horizontal Kerning lookup 1 per glyph data 0" d dx=0 dy=0 dh=-24 dv=0 dx=0 dy=0 dh=0 dv=0
PairPos2: "'kern' Horizontal Kerning lookup 1 per glyph data 0" c dx=0 dy=0 dh=-60 dv=0 dx=0 dy=0 dh=0 dv=0
PairPos2: "'kern' Horizontal Kerning lookup 1 per glyph data 0" .notdef dx=0 dy=0 dh=-60 dv=0 dx=0 dy=0 dh=0 dv=0
EndChar

StartChar: y
Encoding: 121 121 92
Width: 1209
GlyphClass: 2
Flags: W
LayerCount: 2
Fore
SplineSet
624 249 m 1,0,-1
 925 1169 l 1,1,-1
 1120 1169 l 1,2,-1
 683 -37 l 2,3,4
 666 -83 666 -83 656 -110.5 c 128,-1,5
 646 -138 646 -138 628 -179.5 c 128,-1,6
 610 -221 610 -221 596 -246 c 128,-1,7
 582 -271 582 -271 560.5 -304 c 128,-1,8
 539 -337 539 -337 517.5 -357 c 128,-1,9
 496 -377 496 -377 467 -398.5 c 128,-1,10
 438 -420 438 -420 406 -432 c 128,-1,11
 374 -444 374 -444 334 -451.5 c 128,-1,12
 294 -459 294 -459 249 -459 c 1,13,-1
 198 -334 l 1,14,15
 266 -322 266 -322 316 -300.5 c 128,-1,16
 366 -279 366 -279 399 -252.5 c 128,-1,17
 432 -226 432 -226 458 -180.5 c 128,-1,18
 484 -135 484 -135 500.5 -92 c 128,-1,19
 517 -49 517 -49 538 23 c 1,20,-1
 87 1169 l 1,21,-1
 269 1169 l 1,22,-1
 624 249 l 1,0,-1
EndSplineSet
EndChar

StartChar: z
Encoding: 122 122 93
Width: 1034
GlyphClass: 2
Flags: W
LayerCount: 2
Fore
SplineSet
916 1169 m 1,0,-1
 916 1004 l 1,1,-1
 290 145 l 1,2,-1
 916 145 l 1,3,-1
 916 0 l 1,4,-1
 114 0 l 1,5,-1
 114 166 l 1,6,-1
 752 1029 l 1,7,-1
 144 1029 l 1,8,-1
 144 1169 l 1,9,-1
 916 1169 l 1,0,-1
EndSplineSet
EndChar

StartChar: braceleft
Encoding: 123 123 94
Width: 766
GlyphClass: 2
Flags: W
LayerCount: 2
Fore
SplineSet
57 571 m 1,0,-1
 58 571 l 2,1,2
 131 571 131 571 178.5 544.5 c 128,-1,3
 226 518 226 518 248 472.5 c 128,-1,4
 270 427 270 427 281 368.5 c 128,-1,5
 292 310 292 310 297.5 245.5 c 128,-1,6
 303 181 303 181 311 116.5 c 128,-1,7
 319 52 319 52 342.5 -6.5 c 128,-1,8
 366 -65 366 -65 406 -110.5 c 128,-1,9
 446 -156 446 -156 521.5 -182.5 c 128,-1,10
 597 -209 597 -209 703 -209 c 2,11,-1
 704 -209 l 1,12,-1
 705 -40 l 1,13,-1
 702 -40 l 2,14,15
 630 -40 630 -40 582.5 -20 c 128,-1,16
 535 0 535 0 512 35.5 c 128,-1,17
 489 71 489 71 478.5 116.5 c 128,-1,18
 468 162 468 162 466 215 c 128,-1,19
 464 268 464 268 461.5 322.5 c 128,-1,20
 459 377 459 377 448.5 430 c 128,-1,21
 438 483 438 483 415.5 528 c 128,-1,22
 393 573 393 573 344.5 609.5 c 128,-1,23
 296 646 296 646 224 665 c 1,24,25
 296 684 296 684 344.5 720.5 c 128,-1,26
 393 757 393 757 415.5 802 c 128,-1,27
 438 847 438 847 448.5 900 c 128,-1,28
 459 953 459 953 461.5 1007.5 c 128,-1,29
 464 1062 464 1062 466 1115 c 128,-1,30
 468 1168 468 1168 478.5 1213.5 c 128,-1,31
 489 1259 489 1259 512 1294.5 c 128,-1,32
 535 1330 535 1330 582.5 1350 c 128,-1,33
 630 1370 630 1370 702 1370 c 2,34,-1
 705 1370 l 1,35,-1
 704 1539 l 1,36,-1
 703 1539 l 2,37,38
 597 1539 597 1539 521.5 1512.5 c 128,-1,39
 446 1486 446 1486 406 1440.5 c 128,-1,40
 366 1395 366 1395 342.5 1336.5 c 128,-1,41
 319 1278 319 1278 311 1213.5 c 128,-1,42
 303 1149 303 1149 297.5 1084.5 c 128,-1,43
 292 1020 292 1020 281 961.5 c 128,-1,44
 270 903 270 903 248 857.5 c 128,-1,45
 226 812 226 812 178.5 785.5 c 128,-1,46
 131 759 131 759 58 759 c 2,47,-1
 57 759 l 1,48,-1
 57 571 l 1,0,-1
EndSplineSet
EndChar

StartChar: bar
Encoding: 124 124 95
Width: 436
GlyphClass: 2
Flags: W
LayerCount: 2
Fore
SplineSet
129 -111 m 1,0,-1
 129 1696 l 1,1,-1
 307 1696 l 1,2,-1
 307 -111 l 1,3,-1
 129 -111 l 1,0,-1
EndSplineSet
EndChar

StartChar: braceright
Encoding: 125 125 96
Width: 766
GlyphClass: 2
Flags: W
LayerCount: 2
Fore
SplineSet
710 571 m 1,0,-1
 709 571 l 2,1,2
 636 571 636 571 588.5 544.5 c 128,-1,3
 541 518 541 518 519 472.5 c 128,-1,4
 497 427 497 427 486 368.5 c 128,-1,5
 475 310 475 310 469.5 245.5 c 128,-1,6
 464 181 464 181 456 116.5 c 128,-1,7
 448 52 448 52 424.5 -6.5 c 128,-1,8
 401 -65 401 -65 361 -110.5 c 128,-1,9
 321 -156 321 -156 245.5 -182.5 c 128,-1,10
 170 -209 170 -209 64 -209 c 2,11,-1
 63 -209 l 1,12,-1
 62 -40 l 1,13,-1
 65 -40 l 2,14,15
 137 -40 137 -40 184.5 -20 c 128,-1,16
 232 0 232 0 255 35.5 c 128,-1,17
 278 71 278 71 288.5 116.5 c 128,-1,18
 299 162 299 162 301 215 c 128,-1,19
 303 268 303 268 305.5 322.5 c 128,-1,20
 308 377 308 377 318.5 430 c 128,-1,21
 329 483 329 483 351.5 528 c 128,-1,22
 374 573 374 573 422.5 609.5 c 128,-1,23
 471 646 471 646 543 665 c 1,24,25
 471 684 471 684 423 720.5 c 128,-1,26
 375 757 375 757 352.5 802 c 128,-1,27
 330 847 330 847 319 900 c 128,-1,28
 308 953 308 953 305.5 1007.5 c 128,-1,29
 303 1062 303 1062 300.5 1115 c 128,-1,30
 298 1168 298 1168 287.5 1213.5 c 128,-1,31
 277 1259 277 1259 254.5 1294.5 c 128,-1,32
 232 1330 232 1330 184.5 1350 c 128,-1,33
 137 1370 137 1370 65 1370 c 2,34,-1
 62 1370 l 1,35,-1
 63 1539 l 1,36,-1
 64 1539 l 2,37,38
 170 1539 170 1539 245.5 1512.5 c 128,-1,39
 321 1486 321 1486 361 1440.5 c 128,-1,40
 401 1395 401 1395 424.5 1336.5 c 128,-1,41
 448 1278 448 1278 456 1213.5 c 128,-1,42
 464 1149 464 1149 469.5 1084.5 c 128,-1,43
 475 1020 475 1020 486 961.5 c 128,-1,44
 497 903 497 903 519 857.5 c 128,-1,45
 541 812 541 812 588.5 785.5 c 128,-1,46
 636 759 636 759 709 759 c 2,47,-1
 710 759 l 1,48,-1
 710 571 l 1,0,-1
EndSplineSet
EndChar

StartChar: asciitilde
Encoding: 126 126 97
Width: 972
GlyphClass: 2
Flags: W
LayerCount: 2
Fore
SplineSet
675 390 m 0,0,1
 612 390 612 390 540 420 c 128,-1,2
 468 450 468 450 409.5 479.5 c 128,-1,3
 351 509 351 509 322 509 c 0,4,5
 302 509 302 509 288.5 498 c 128,-1,6
 275 487 275 487 270.5 466 c 128,-1,7
 266 445 266 445 264.5 430.5 c 128,-1,8
 263 416 263 416 263 394 c 1,9,-1
 107 394 l 1,10,11
 107 654 107 654 308 654 c 0,12,13
 357 654 357 654 408.5 634.5 c 128,-1,14
 460 615 460 615 496 591.5 c 128,-1,15
 532 568 532 568 575 548.5 c 128,-1,16
 618 529 618 529 652 529 c 0,17,18
 711 529 711 529 711 640 c 1,19,-1
 867 640 l 1,20,21
 867 539 867 539 818.5 464.5 c 128,-1,22
 770 390 770 390 675 390 c 0,0,1
EndSplineSet
EndChar

StartChar: exclamdown
Encoding: 161 161 99
Width: 410
GlyphClass: 2
Flags: W
LayerCount: 2
Fore
SplineSet
281 1393 m 1,0,-1
 281 1595 l 1,1,-1
 72 1595 l 1,2,-1
 72 1393 l 1,3,-1
 281 1393 l 1,0,-1
296 1180 m 1,4,-1
 122 1180 l 1,5,-1
 122 0 l 1,6,-1
 296 0 l 1,7,-1
 296 1180 l 1,4,-1
EndSplineSet
EndChar

StartChar: cent
Encoding: 162 162 100
Width: 1014
GlyphClass: 2
Flags: W
LayerCount: 2
Fore
SplineSet
537 -159 m 1,0,-1
 640 -159 l 1,1,-1
 640 -19 l 1,2,3
 711 -18 711 -18 794.5 6.5 c 128,-1,4
 878 31 878 31 951 68 c 1,5,-1
 905 205 l 1,6,7
 781 130 781 130 640 130 c 1,8,-1
 640 1038 l 1,9,10
 706 1037 706 1037 777.5 1011 c 128,-1,11
 849 985 849 985 905 944 c 1,12,-1
 962 1077 l 1,13,14
 888 1122 888 1122 800.5 1153.5 c 128,-1,15
 713 1185 713 1185 640 1186 c 1,16,-1
 640 1329 l 1,17,-1
 537 1329 l 1,18,-1
 537 1189 l 1,19,20
 415 1177 415 1177 322.5 1125 c 128,-1,21
 230 1073 230 1073 174 990 c 128,-1,22
 118 907 118 907 90.5 804 c 128,-1,23
 63 701 63 701 63 580 c 0,24,25
 63 461 63 461 91 358 c 128,-1,26
 119 255 119 255 174.5 171.5 c 128,-1,27
 230 88 230 88 323 36.5 c 128,-1,28
 416 -15 416 -15 537 -22 c 1,29,-1
 537 -159 l 1,0,-1
537 129 m 1,30,31
 471 136 471 136 419.5 167 c 128,-1,32
 368 198 368 198 337.5 241.5 c 128,-1,33
 307 285 307 285 287 344 c 128,-1,34
 267 403 267 403 260 460 c 128,-1,35
 253 517 253 517 253 580 c 0,36,37
 253 1001 253 1001 537 1037 c 1,38,-1
 537 129 l 1,30,31
EndSplineSet
EndChar

StartChar: sterling
Encoding: 163 163 101
Width: 1009
GlyphClass: 2
Flags: W
LayerCount: 2
Fore
SplineSet
116 126 m 1,0,-1
 116 0 l 1,1,-1
 913 0 l 1,2,-1
 913 132 l 1,3,-1
 297 132 l 1,4,5
 356 213 356 213 386 347.5 c 128,-1,6
 416 482 416 482 416 603 c 1,7,-1
 844 603 l 1,8,-1
 844 706 l 1,9,-1
 416 706 l 1,10,11
 300 829 300 829 300 959 c 0,12,13
 300 1180 300 1180 568 1180 c 0,14,15
 709 1180 709 1180 898 1088 c 1,16,-1
 948 1219 l 1,17,18
 866 1271 866 1271 744.5 1296.5 c 128,-1,19
 623 1322 623 1322 509 1322 c 0,20,21
 407 1322 407 1322 317.5 1275 c 128,-1,22
 228 1228 228 1228 173 1143 c 128,-1,23
 118 1058 118 1058 118 956 c 0,24,25
 118 893 118 893 151.5 818 c 128,-1,26
 185 743 185 743 233 706 c 1,27,-1
 61 706 l 1,28,-1
 61 603 l 1,29,-1
 258 603 l 1,30,31
 258 482 258 482 221 342 c 128,-1,32
 184 202 184 202 116 126 c 1,0,-1
EndSplineSet
EndChar

StartChar: currency
Encoding: 164 164 102
Width: 1180
GlyphClass: 2
Flags: W
LayerCount: 2
Fore
SplineSet
306 975 m 0,0,1
 306 865 306 865 388.5 782 c 128,-1,2
 471 699 471 699 580 699 c 0,3,4
 694 699 694 699 783 788.5 c 128,-1,5
 872 878 872 878 872 992 c 0,6,7
 872 1102 872 1102 790 1184 c 128,-1,8
 708 1266 708 1266 598 1266 c 0,9,10
 482 1266 482 1266 394 1178.5 c 128,-1,11
 306 1091 306 1091 306 975 c 0,0,1
231 742 m 1,12,13
 163 846 163 846 163 967 c 0,14,15
 163 1097 163 1097 238 1208 c 1,16,-1
 44 1402 l 1,17,-1
 168 1526 l 1,18,-1
 362 1333 l 1,19,20
 474 1409 474 1409 605 1409 c 0,21,22
 726 1409 726 1409 830 1341 c 1,23,-1
 1016 1526 l 1,24,-1
 1140 1402 l 1,25,-1
 953 1215 l 1,26,27
 1014 1118 1014 1118 1014 1000 c 0,28,29
 1014 869 1014 869 938 757 c 1,30,-1
 1140 555 l 1,31,-1
 1016 430 l 1,32,-1
 813 633 l 1,33,34
 704 558 704 558 573 558 c 0,35,36
 454 558 454 558 357 619 c 1,37,-1
 168 430 l 1,38,-1
 44 555 l 1,39,-1
 231 742 l 1,12,13
EndSplineSet
EndChar

StartChar: yen
Encoding: 165 165 103
Width: 1060
GlyphClass: 2
Flags: W
LayerCount: 2
Fore
SplineSet
398 688 m 1,0,-1
 -85 1579 l 1,1,-1
 109 1579 l 1,2,-1
 529 788 l 1,3,-1
 949 1579 l 1,4,-1
 1143 1579 l 1,5,-1
 662 688 l 1,6,-1
 925 688 l 1,7,-1
 925 584 l 1,8,-1
 629 584 l 1,9,-1
 629 488 l 1,10,-1
 925 488 l 1,11,-1
 925 389 l 1,12,-1
 629 389 l 1,13,-1
 629 0 l 1,14,-1
 439 0 l 1,15,-1
 439 389 l 1,16,-1
 137 389 l 1,17,-1
 137 488 l 1,18,-1
 439 488 l 1,19,-1
 439 584 l 1,20,-1
 137 584 l 1,21,-1
 137 688 l 1,22,-1
 398 688 l 1,0,-1
EndSplineSet
EndChar

StartChar: brokenbar
Encoding: 166 166 104
Width: 430
GlyphClass: 2
Flags: W
LayerCount: 2
Fore
SplineSet
122 889 m 1,0,-1
 122 1579 l 1,1,-1
 310 1579 l 1,2,-1
 310 889 l 1,3,-1
 122 889 l 1,0,-1
122 0 m 1,4,-1
 122 690 l 1,5,-1
 310 690 l 1,6,-1
 310 0 l 1,7,-1
 122 0 l 1,4,-1
EndSplineSet
EndChar

StartChar: section
Encoding: 167 167 105
Width: 924
GlyphClass: 2
Flags: W
LayerCount: 2
Fore
SplineSet
89 20 m 1,0,-1
 150 158 l 1,1,2
 204 110 204 110 285.5 80 c 128,-1,3
 367 50 367 50 441 50 c 0,4,5
 489 50 489 50 530.5 57.5 c 128,-1,6
 572 65 572 65 612.5 83 c 128,-1,7
 653 101 653 101 676.5 137 c 128,-1,8
 700 173 700 173 700 223 c 0,9,10
 700 269 700 269 679 304 c 128,-1,11
 658 339 658 339 622 361 c 128,-1,12
 586 383 586 383 539 400 c 128,-1,13
 492 417 492 417 440.5 432 c 128,-1,14
 389 447 389 447 338 464 c 128,-1,15
 287 481 287 481 240 506 c 128,-1,16
 193 531 193 531 157 564.5 c 128,-1,17
 121 598 121 598 100 650.5 c 128,-1,18
 79 703 79 703 79 771 c 0,19,20
 79 838 79 838 118 888 c 128,-1,21
 157 938 157 938 212 962.5 c 128,-1,22
 267 987 267 987 334 995 c 1,23,24
 272 1019 272 1019 231 1041 c 128,-1,25
 190 1063 190 1063 152.5 1096.5 c 128,-1,26
 115 1130 115 1130 97 1176.5 c 128,-1,27
 79 1223 79 1223 79 1285 c 0,28,29
 79 1357 79 1357 113 1414 c 128,-1,30
 147 1471 147 1471 203 1503.5 c 128,-1,31
 259 1536 259 1536 323.5 1552.5 c 128,-1,32
 388 1569 388 1569 456 1569 c 0,33,34
 533 1569 533 1569 649.5 1533.5 c 128,-1,35
 766 1498 766 1498 818 1452 c 1,36,-1
 760 1316 l 1,37,38
 620 1424 620 1424 466 1424 c 0,39,40
 235 1424 235 1424 235 1275 c 0,41,42
 235 1237 235 1237 262 1207.5 c 128,-1,43
 289 1178 289 1178 333.5 1159.5 c 128,-1,44
 378 1141 378 1141 435 1120.5 c 128,-1,45
 492 1100 492 1100 551 1082.5 c 128,-1,46
 610 1065 610 1065 667 1035 c 128,-1,47
 724 1005 724 1005 768.5 969.5 c 128,-1,48
 813 934 813 934 840 876.5 c 128,-1,49
 867 819 867 819 867 746 c 0,50,51
 867 650 867 650 792.5 589.5 c 128,-1,52
 718 529 718 529 618 522 c 1,53,54
 740 480 740 480 804.5 409 c 128,-1,55
 869 338 869 338 869 219 c 0,56,57
 869 135 869 135 833 71.5 c 128,-1,58
 797 8 797 8 735.5 -27 c 128,-1,59
 674 -62 674 -62 603.5 -79 c 128,-1,60
 533 -96 533 -96 453 -96 c 128,-1,61
 373 -96 373 -96 259.5 -61.5 c 128,-1,62
 146 -27 146 -27 89 20 c 1,0,-1
468 600 m 0,63,64
 511 600 511 600 548.5 606 c 128,-1,65
 586 612 586 612 624 627.5 c 128,-1,66
 662 643 662 643 684.5 674.5 c 128,-1,67
 707 706 707 706 707 751 c 0,68,69
 707 791 707 791 692 820 c 128,-1,70
 677 849 677 849 654.5 865 c 128,-1,71
 632 881 632 881 598 891 c 128,-1,72
 564 901 564 901 534.5 903.5 c 128,-1,73
 505 906 505 906 468 906 c 0,74,75
 233 906 233 906 233 753 c 128,-1,76
 233 600 233 600 468 600 c 0,63,64
EndSplineSet
EndChar

StartChar: dieresis
Encoding: 168 168 106
Width: 820
GlyphClass: 2
Flags: W
LayerCount: 2
Fore
SplineSet
173 611 m 0,0,1
 221 611 221 611 251 577.5 c 128,-1,2
 281 544 281 544 281 496 c 128,-1,3
 281 448 281 448 251 414.5 c 128,-1,4
 221 381 221 381 173 381 c 128,-1,5
 125 381 125 381 93 414.5 c 128,-1,6
 61 448 61 448 61 496 c 0,7,8
 61 543 61 543 93.5 577 c 128,-1,9
 126 611 126 611 173 611 c 0,0,1
663 611 m 0,10,11
 711 611 711 611 741 577.5 c 128,-1,12
 771 544 771 544 771 496 c 128,-1,13
 771 448 771 448 741 414.5 c 128,-1,14
 711 381 711 381 663 381 c 128,-1,15
 615 381 615 381 583 414.5 c 128,-1,16
 551 448 551 448 551 496 c 0,17,18
 551 543 551 543 583.5 577 c 128,-1,19
 616 611 616 611 663 611 c 0,10,11
EndSplineSet
EndChar

StartChar: copyright
Encoding: 169 169 107
Width: 1817
GlyphClass: 2
Flags: W
LayerCount: 2
Fore
SplineSet
947 336 m 0,0,1
 1075 336 1075 336 1227 414 c 1,2,-1
 1227 540 l 1,3,4
 1077 464 1077 464 933 464 c 0,5,6
 742 464 742 464 664.5 549.5 c 128,-1,7
 587 635 587 635 587 831 c 128,-1,8
 587 1027 587 1027 664.5 1112.5 c 128,-1,9
 742 1198 742 1198 933 1198 c 0,10,11
 1077 1198 1077 1198 1227 1122 c 1,12,-1
 1227 1248 l 1,13,14
 1075 1326 1075 1326 947 1326 c 0,15,16
 693 1326 693 1326 559 1203 c 128,-1,17
 425 1080 425 1080 425 831 c 128,-1,18
 425 582 425 582 559 459 c 128,-1,19
 693 336 693 336 947 336 c 0,0,1
35 830 m 0,20,21
 35 651 35 651 104.5 491.5 c 128,-1,22
 174 332 174 332 292 220 c 128,-1,23
 410 108 410 108 571 42.5 c 128,-1,24
 732 -23 732 -23 910 -23 c 0,25,26
 1147 -23 1147 -23 1347.5 88 c 128,-1,27
 1548 199 1548 199 1666.5 395.5 c 128,-1,28
 1785 592 1785 592 1785 830 c 0,29,30
 1785 1006 1785 1006 1714.5 1165 c 128,-1,31
 1644 1324 1644 1324 1525.5 1438 c 128,-1,32
 1407 1552 1407 1552 1246 1619.5 c 128,-1,33
 1085 1687 1085 1687 910 1687 c 128,-1,34
 735 1687 735 1687 574 1619.5 c 128,-1,35
 413 1552 413 1552 294.5 1438 c 128,-1,36
 176 1324 176 1324 105.5 1165 c 128,-1,37
 35 1006 35 1006 35 830 c 0,20,21
183 829 m 0,38,39
 183 1027 183 1027 280 1195.5 c 128,-1,40
 377 1364 377 1364 544.5 1463 c 128,-1,41
 712 1562 712 1562 910 1562 c 0,42,43
 1058 1562 1058 1562 1193 1503.5 c 128,-1,44
 1328 1445 1328 1445 1425 1346 c 128,-1,45
 1522 1247 1522 1247 1579.5 1111.5 c 128,-1,46
 1637 976 1637 976 1637 829 c 0,47,48
 1637 622 1637 622 1543 455.5 c 128,-1,49
 1449 289 1449 289 1283 195 c 128,-1,50
 1117 101 1117 101 910 101 c 128,-1,51
 703 101 703 101 537 195 c 128,-1,52
 371 289 371 289 277 455.5 c 128,-1,53
 183 622 183 622 183 829 c 0,38,39
EndSplineSet
EndChar

StartChar: ordfeminine
Encoding: 170 170 108
Width: 913
GlyphClass: 2
Flags: W
LayerCount: 2
Fore
SplineSet
121 575 m 1,0,-1
 805 575 l 1,1,-1
 805 446 l 1,2,-1
 121 446 l 1,3,-1
 121 575 l 1,0,-1
412 781 m 0,4,5
 478 781 478 781 544.5 815 c 128,-1,6
 611 849 611 849 650 903 c 1,7,-1
 650 1141 l 1,8,9
 540 1158 540 1158 474 1158 c 0,10,11
 218 1158 218 1158 218 971 c 0,12,13
 218 865 218 865 261.5 823 c 128,-1,14
 305 781 305 781 412 781 c 0,4,5
57 960 m 0,15,16
 57 1036 57 1036 86 1094.5 c 128,-1,17
 115 1153 115 1153 166 1188 c 128,-1,18
 217 1223 217 1223 280 1240.5 c 128,-1,19
 343 1258 343 1258 416 1258 c 0,20,21
 532 1258 532 1258 650 1218 c 1,22,-1
 650 1276 l 2,23,24
 650 1339 650 1339 643.5 1377.5 c 128,-1,25
 637 1416 637 1416 618 1449.5 c 128,-1,26
 599 1483 599 1483 559.5 1498 c 128,-1,27
 520 1513 520 1513 458 1513 c 0,28,29
 386 1513 386 1513 307 1494.5 c 128,-1,30
 228 1476 228 1476 167 1443 c 1,31,-1
 114 1552 l 1,32,33
 183 1592 183 1592 275 1615 c 128,-1,34
 367 1638 367 1638 450 1638 c 0,35,36
 557 1638 557 1638 627.5 1614 c 128,-1,37
 698 1590 698 1590 738.5 1537.5 c 128,-1,38
 779 1485 779 1485 795 1413.5 c 128,-1,39
 811 1342 811 1342 811 1235 c 2,40,-1
 811 686 l 1,41,-1
 695 686 l 1,42,-1
 668 828 l 1,43,44
 634 752 634 752 549 710 c 128,-1,45
 464 668 464 668 374 668 c 0,46,47
 230 668 230 668 143.5 743.5 c 128,-1,48
 57 819 57 819 57 960 c 0,15,16
EndSplineSet
EndChar

StartChar: guillemotleft
Encoding: 171 171 109
Width: 1273
GlyphClass: 2
Flags: W
LayerCount: 2
Fore
SplineSet
1231 842 m 1,0,-1
 794 577 l 1,1,-1
 1231 306 l 1,2,-1
 1231 99 l 1,3,-1
 623 481 l 1,4,-1
 623 666 l 1,5,-1
 1231 1049 l 1,6,-1
 1231 842 l 1,0,-1
623 842 m 1,7,-1
 187 577 l 1,8,-1
 623 306 l 1,9,-1
 623 99 l 1,10,-1
 15 481 l 1,11,-1
 15 666 l 1,12,-1
 623 1049 l 1,13,-1
 623 842 l 1,7,-1
EndSplineSet
EndChar

StartChar: logicalnot
Encoding: 172 172 110
Width: 1452
GlyphClass: 2
Flags: W
LayerCount: 2
Fore
SplineSet
1355 338 m 1,0,-1
 1355 1174 l 1,1,-1
 1 1174 l 1,2,-1
 1 1023 l 1,3,-1
 1179 1023 l 1,4,-1
 1179 338 l 1,5,-1
 1355 338 l 1,0,-1
EndSplineSet
EndChar

StartChar: uni00AD
Encoding: 173 173 111
Width: 591
GlyphClass: 2
Flags: W
LayerCount: 2
Fore
SplineSet
536 508 m 1,0,-1
 68 508 l 1,1,-1
 68 639 l 1,2,-1
 536 639 l 1,3,-1
 536 508 l 1,0,-1
EndSplineSet
EndChar

StartChar: registered
Encoding: 174 174 112
Width: 1233
GlyphClass: 2
Flags: W
LayerCount: 2
Fore
SplineSet
594 1150 m 2,0,1
 627 1150 627 1150 650.5 1154 c 128,-1,2
 674 1158 674 1158 696.5 1168.5 c 128,-1,3
 719 1179 719 1179 730.5 1201 c 128,-1,4
 742 1223 742 1223 742 1256 c 0,5,6
 742 1326 742 1326 579 1326 c 2,7,-1
 546 1326 l 1,8,-1
 546 1150 l 1,9,-1
 594 1150 l 2,0,1
846 1261 m 0,10,11
 846 1180 846 1180 806 1143.5 c 128,-1,12
 766 1107 766 1107 680 1086 c 1,13,-1
 860 836 l 1,14,15
 846 831 846 831 760 785 c 1,16,-1
 586 1068 l 1,17,-1
 543 1068 l 1,18,-1
 543 807 l 1,19,-1
 437 807 l 1,20,-1
 437 1408 l 1,21,-1
 557 1408 l 2,22,23
 601 1408 601 1408 642.5 1403 c 128,-1,24
 684 1398 684 1398 734.5 1384.5 c 128,-1,25
 785 1371 785 1371 815.5 1339.5 c 128,-1,26
 846 1308 846 1308 846 1261 c 0,10,11
617 542 m 0,27,28
 458 542 458 542 323.5 614.5 c 128,-1,29
 189 687 189 687 108.5 817.5 c 128,-1,30
 28 948 28 948 28 1108 c 0,31,32
 28 1267 28 1267 109 1397.5 c 128,-1,33
 190 1528 190 1528 325 1601 c 128,-1,34
 460 1674 460 1674 617 1674 c 0,35,36
 775 1674 775 1674 910 1601.5 c 128,-1,37
 1045 1529 1045 1529 1126 1398 c 128,-1,38
 1207 1267 1207 1267 1207 1108 c 0,39,40
 1207 948 1207 948 1126 817.5 c 128,-1,41
 1045 687 1045 687 910 614.5 c 128,-1,42
 775 542 775 542 617 542 c 0,27,28
616 641 m 0,43,44
 747 641 747 641 857.5 700.5 c 128,-1,45
 968 760 968 760 1033.5 867 c 128,-1,46
 1099 974 1099 974 1099 1106 c 0,47,48
 1099 1306 1099 1306 958 1439 c 128,-1,49
 817 1572 817 1572 616 1572 c 0,50,51
 484 1572 484 1572 374.5 1512 c 128,-1,52
 265 1452 265 1452 200.5 1344.5 c 128,-1,53
 136 1237 136 1237 136 1105 c 0,54,55
 136 972 136 972 200.5 865.5 c 128,-1,56
 265 759 265 759 374.5 700 c 128,-1,57
 484 641 484 641 616 641 c 0,43,44
EndSplineSet
EndChar

StartChar: macron
Encoding: 175 175 113
Width: 836
GlyphClass: 2
Flags: W
LayerCount: 2
Fore
SplineSet
770 98 m 1,0,-1
 88 98 l 1,1,-1
 88 215 l 1,2,-1
 770 215 l 1,3,-1
 770 98 l 1,0,-1
EndSplineSet
EndChar

StartChar: degree
Encoding: 176 176 114
Width: 565
GlyphClass: 2
Flags: W
LayerCount: 2
Fore
SplineSet
285 1048 m 128,-1,1
 223 1048 223 1048 181.5 1004.5 c 128,-1,2
 140 961 140 961 140 899 c 0,3,4
 140 838 140 838 182.5 794 c 128,-1,5
 225 750 225 750 285 750 c 0,6,7
 347 750 347 750 386.5 793 c 128,-1,8
 426 836 426 836 426 899 c 128,-1,9
 426 962 426 962 386.5 1005 c 128,-1,0
 347 1048 347 1048 285 1048 c 128,-1,1
287 1139 m 0,10,11
 389 1139 389 1139 456 1070.5 c 128,-1,12
 523 1002 523 1002 523 899 c 128,-1,13
 523 796 523 796 456.5 728 c 128,-1,14
 390 660 390 660 287 660 c 0,15,16
 183 660 183 660 113 727.5 c 128,-1,17
 43 795 43 795 43 899 c 128,-1,18
 43 1003 43 1003 112.5 1071 c 128,-1,19
 182 1139 182 1139 287 1139 c 0,10,11
EndSplineSet
EndChar

StartChar: plusminus
Encoding: 177 177 115
Width: 852
GlyphClass: 2
Flags: W
LayerCount: 2
Fore
SplineSet
819 518 m 1,0,-1
 505 518 l 1,1,-1
 505 174 l 1,2,-1
 364 174 l 1,3,-1
 364 518 l 1,4,-1
 51 518 l 1,5,-1
 51 651 l 1,6,-1
 364 651 l 1,7,-1
 364 995 l 1,8,-1
 505 995 l 1,9,-1
 505 651 l 1,10,-1
 819 651 l 1,11,-1
 819 518 l 1,0,-1
786 -55 m 1,12,-1
 85 -55 l 1,13,-1
 85 88 l 1,14,-1
 786 88 l 1,15,-1
 786 -55 l 1,12,-1
EndSplineSet
EndChar

StartChar: uni00B2
Encoding: 178 178 116
Width: 777
GlyphClass: 2
Flags: W
LayerCount: 2
Fore
SplineSet
283 820 m 1,0,-1
 689 820 l 1,1,-1
 689 668 l 1,2,-1
 51 668 l 1,3,-1
 51 805 l 1,4,5
 68 820 68 820 121.5 863.5 c 128,-1,6
 175 907 175 907 224.5 948 c 128,-1,7
 274 989 274 989 335 1046 c 128,-1,8
 396 1103 396 1103 440 1153 c 128,-1,9
 484 1203 484 1203 514.5 1257.5 c 128,-1,10
 545 1312 545 1312 545 1354 c 0,11,12
 545 1427 545 1427 489.5 1461 c 128,-1,13
 434 1495 434 1495 356 1495 c 0,14,15
 259 1495 259 1495 68 1443 c 1,16,-1
 68 1588 l 1,17,18
 199 1638 199 1638 374 1638 c 0,19,20
 441 1638 441 1638 501.5 1621 c 128,-1,21
 562 1604 562 1604 611 1570.5 c 128,-1,22
 660 1537 660 1537 688.5 1482 c 128,-1,23
 717 1427 717 1427 717 1357 c 0,24,25
 717 1302 717 1302 694 1246 c 128,-1,26
 671 1190 671 1190 639.5 1146 c 128,-1,27
 608 1102 608 1102 555.5 1050 c 128,-1,28
 503 998 503 998 464 966.5 c 128,-1,29
 425 935 425 935 366 887.5 c 128,-1,30
 307 840 307 840 283 820 c 1,0,-1
EndSplineSet
EndChar

StartChar: uni00B3
Encoding: 179 179 117
Width: 797
GlyphClass: 2
Flags: W
LayerCount: 2
Fore
SplineSet
559 1383 m 0,0,1
 559 1429 559 1429 539.5 1461.5 c 128,-1,2
 520 1494 520 1494 486.5 1510.5 c 128,-1,3
 453 1527 453 1527 416 1534 c 128,-1,4
 379 1541 379 1541 335 1541 c 0,5,6
 215 1541 215 1541 101 1484 c 1,7,-1
 54 1611 l 1,8,9
 188 1677 188 1677 340 1677 c 0,10,11
 410 1677 410 1677 473.5 1661.5 c 128,-1,12
 537 1646 537 1646 592 1614 c 128,-1,13
 647 1582 647 1582 680 1525 c 128,-1,14
 713 1468 713 1468 713 1394 c 0,15,16
 713 1295 713 1295 640.5 1219 c 128,-1,17
 568 1143 568 1143 468 1142 c 1,18,19
 592 1118 592 1118 668 1038.5 c 128,-1,20
 744 959 744 959 744 835 c 0,21,22
 744 761 744 761 708.5 702.5 c 128,-1,23
 673 644 673 644 615.5 609.5 c 128,-1,24
 558 575 558 575 491.5 557.5 c 128,-1,25
 425 540 425 540 355 540 c 0,26,27
 273 540 273 540 179 560 c 128,-1,28
 85 580 85 580 27 618 c 1,29,-1
 78 745 l 1,30,31
 222 672 222 672 358 672 c 0,32,33
 446 672 446 672 512 720 c 128,-1,34
 578 768 578 768 578 853 c 0,35,36
 578 1042 578 1042 316 1072 c 1,37,-1
 316 1207 l 1,38,39
 374 1207 374 1207 427 1223.5 c 128,-1,40
 480 1240 480 1240 519.5 1281.5 c 128,-1,41
 559 1323 559 1323 559 1383 c 0,0,1
EndSplineSet
EndChar

StartChar: acute
Encoding: 180 180 118
Width: 430
GlyphClass: 2
Flags: W
LayerCount: 2
Fore
SplineSet
96 328 m 1,0,-1
 39 354 l 1,1,-1
 198 965 l 1,2,-1
 430 874 l 1,3,-1
 96 328 l 1,0,-1
EndSplineSet
EndChar

StartChar: uni00B5
Encoding: 181 181 119
Width: 1320
GlyphClass: 2
Flags: W
LayerCount: 2
Fore
SplineSet
611 123 m 0,0,1
 717 123 717 123 811 166.5 c 128,-1,2
 905 210 905 210 958 274 c 1,3,-1
 958 1169 l 1,4,-1
 1166 1169 l 1,5,-1
 1166 16 l 1,6,-1
 1020 16 l 1,7,-1
 996 170 l 1,8,9
 825 -20 825 -20 599 -20 c 0,10,11
 462 -20 462 -20 359 113 c 1,12,-1
 359 -291 l 1,13,-1
 185 -291 l 1,14,-1
 185 1169 l 1,15,-1
 359 1169 l 1,16,-1
 359 442 l 2,17,18
 359 123 359 123 611 123 c 0,0,1
EndSplineSet
EndChar

StartChar: paragraph
Encoding: 182 182 120
Width: 1086
GlyphClass: 2
Flags: W
LayerCount: 2
Fore
SplineSet
501 1578 m 2,0,1
 444 1578 444 1578 397.5 1576 c 128,-1,2
 351 1574 351 1574 293.5 1565.5 c 128,-1,3
 236 1557 236 1557 192.5 1543.5 c 128,-1,4
 149 1530 149 1530 104.5 1505.5 c 128,-1,5
 60 1481 60 1481 31.5 1447 c 128,-1,6
 3 1413 3 1413 -15 1363 c 128,-1,7
 -33 1313 -33 1313 -33 1250 c 0,8,9
 -33 1169 -33 1169 -3.5 1107 c 128,-1,10
 26 1045 26 1045 72.5 1007.5 c 128,-1,11
 119 970 119 970 185 946.5 c 128,-1,12
 251 923 251 923 316.5 914 c 128,-1,13
 382 905 382 905 456 905 c 1,14,-1
 456 0 l 1,15,-1
 646 0 l 1,16,-1
 646 1428 l 1,17,-1
 781 1428 l 1,18,-1
 781 0 l 1,19,-1
 967 0 l 1,20,-1
 967 1578 l 1,21,-1
 501 1578 l 2,0,1
EndSplineSet
EndChar

StartChar: periodcentered
Encoding: 183 183 121
Width: 329
GlyphClass: 2
Flags: W
LayerCount: 2
Fore
SplineSet
173 765 m 0,0,1
 221 765 221 765 251 731.5 c 128,-1,2
 281 698 281 698 281 650 c 128,-1,3
 281 602 281 602 251 568.5 c 128,-1,4
 221 535 221 535 173 535 c 128,-1,5
 125 535 125 535 93 568.5 c 128,-1,6
 61 602 61 602 61 650 c 0,7,8
 61 697 61 697 93.5 731 c 128,-1,9
 126 765 126 765 173 765 c 0,0,1
EndSplineSet
EndChar

StartChar: cedilla
Encoding: 184 184 122
Width: 502
GlyphClass: 2
Flags: W
LayerCount: 2
Fore
SplineSet
67 -540 m 1,0,-1
 67 -423 l 1,1,2
 184 -464 184 -464 231 -464 c 0,3,4
 309 -464 309 -464 339.5 -436 c 128,-1,5
 370 -408 370 -408 370 -328 c 0,6,7
 370 -295 370 -295 359.5 -269.5 c 128,-1,8
 349 -244 349 -244 327 -229 c 128,-1,9
 305 -214 305 -214 283.5 -205 c 128,-1,10
 262 -196 262 -196 228.5 -192 c 128,-1,11
 195 -188 195 -188 173 -187 c 128,-1,12
 151 -186 151 -186 117 -186 c 1,13,-1
 117 76 l 1,14,-1
 238 76 l 1,15,-1
 238 -98 l 1,16,17
 368 -98 368 -98 435.5 -156 c 128,-1,18
 503 -214 503 -214 503 -342 c 0,19,20
 503 -578 503 -578 251 -578 c 0,21,22
 179 -578 179 -578 67 -540 c 1,0,-1
EndSplineSet
EndChar

StartChar: uni00B9
Encoding: 185 185 123
Width: 454
GlyphClass: 2
Flags: W
LayerCount: 2
Fore
SplineSet
179 478 m 1,0,-1
 179 1304 l 1,1,-1
 8 1232 l 1,2,-1
 -29 1345 l 1,3,-1
 208 1440 l 1,4,-1
 348 1414 l 1,5,-1
 348 478 l 1,6,-1
 179 478 l 1,0,-1
EndSplineSet
EndChar

StartChar: ordmasculine
Encoding: 186 186 124
Width: 956
GlyphClass: 2
Flags: W
LayerCount: 2
Fore
SplineSet
141 575 m 1,0,-1
 825 575 l 1,1,-1
 825 446 l 1,2,-1
 141 446 l 1,3,-1
 141 575 l 1,0,-1
212 1154 m 0,4,5
 212 1083 212 1083 225 1023 c 128,-1,6
 238 963 238 963 267 910 c 128,-1,7
 296 857 296 857 350 827 c 128,-1,8
 404 797 404 797 479 797 c 0,9,10
 540 797 540 797 587 817.5 c 128,-1,11
 634 838 634 838 663.5 871.5 c 128,-1,12
 693 905 693 905 712 952 c 128,-1,13
 731 999 731 999 738.5 1048.5 c 128,-1,14
 746 1098 746 1098 746 1154 c 128,-1,15
 746 1210 746 1210 738.5 1259 c 128,-1,16
 731 1308 731 1308 711.5 1355.5 c 128,-1,17
 692 1403 692 1403 662.5 1437 c 128,-1,18
 633 1471 633 1471 586 1491.5 c 128,-1,19
 539 1512 539 1512 479 1512 c 128,-1,20
 419 1512 419 1512 371.5 1491.5 c 128,-1,21
 324 1471 324 1471 294.5 1437.5 c 128,-1,22
 265 1404 265 1404 246 1356.5 c 128,-1,23
 227 1309 227 1309 219.5 1259.5 c 128,-1,24
 212 1210 212 1210 212 1154 c 0,4,5
55 1152 m 0,25,26
 55 1253 55 1253 81.5 1340 c 128,-1,27
 108 1427 108 1427 159 1494 c 128,-1,28
 210 1561 210 1561 292.5 1599.5 c 128,-1,29
 375 1638 375 1638 479 1638 c 0,30,31
 584 1638 584 1638 666 1599.5 c 128,-1,32
 748 1561 748 1561 799.5 1494 c 128,-1,33
 851 1427 851 1427 877.5 1340 c 128,-1,34
 904 1253 904 1253 904 1152 c 0,35,36
 904 1050 904 1050 877.5 963.5 c 128,-1,37
 851 877 851 877 800 811 c 128,-1,38
 749 745 749 745 666.5 707.5 c 128,-1,39
 584 670 584 670 479 670 c 0,40,41
 340 670 340 670 242.5 736 c 128,-1,42
 145 802 145 802 100 908.5 c 128,-1,43
 55 1015 55 1015 55 1152 c 0,25,26
EndSplineSet
EndChar

StartChar: guillemotright
Encoding: 187 187 125
Width: 1280
GlyphClass: 2
Flags: W
LayerCount: 2
Fore
SplineSet
59 842 m 1,0,-1
 506 577 l 1,1,-1
 59 306 l 1,2,-1
 59 99 l 1,3,-1
 668 481 l 1,4,-1
 668 666 l 1,5,-1
 59 1049 l 1,6,-1
 59 842 l 1,0,-1
666 842 m 1,7,-1
 1113 577 l 1,8,-1
 666 306 l 1,9,-1
 666 99 l 1,10,-1
 1275 481 l 1,11,-1
 1275 666 l 1,12,-1
 666 1049 l 1,13,-1
 666 842 l 1,7,-1
EndSplineSet
EndChar

StartChar: onequarter
Encoding: 188 188 126
Width: 1442
GlyphClass: 2
Flags: W
LayerCount: 2
Fore
SplineSet
1189 946 m 1,0,-1
 1317 915 l 1,1,-1
 1317 145 l 1,2,-1
 1468 145 l 1,3,-1
 1468 34 l 1,4,-1
 1317 34 l 1,5,-1
 1317 -227 l 1,6,-1
 1172 -250 l 1,7,-1
 1172 34 l 1,8,-1
 647 34 l 1,9,-1
 625 144 l 1,10,-1
 1189 946 l 1,0,-1
784 144 m 1,11,-1
 1172 144 l 1,12,-1
 1172 703 l 1,13,14
 989 421 989 421 784 144 c 1,11,-1
158 568 m 1,15,-1
 158 1413 l 1,16,-1
 -12 1341 l 1,17,-1
 -50 1434 l 1,18,-1
 188 1529 l 1,19,-1
 318 1503 l 1,20,-1
 318 568 l 1,21,-1
 158 568 l 1,15,-1
20 -30 m 1,22,-1
 1059 1365 l 1,23,-1
 1181 1272 l 1,24,-1
 140 -123 l 1,25,-1
 20 -30 l 1,22,-1
EndSplineSet
EndChar

StartChar: onehalf
Encoding: 189 189 127
Width: 1638
GlyphClass: 2
Flags: W
LayerCount: 2
Fore
SplineSet
1192 -20 m 1,0,-1
 1598 -20 l 1,1,-1
 1598 -172 l 1,2,-1
 960 -172 l 1,3,-1
 960 -35 l 1,4,5
 977 -20 977 -20 1030.5 23.5 c 128,-1,6
 1084 67 1084 67 1133.5 108 c 128,-1,7
 1183 149 1183 149 1244 206 c 128,-1,8
 1305 263 1305 263 1349 313 c 128,-1,9
 1393 363 1393 363 1423.5 417.5 c 128,-1,10
 1454 472 1454 472 1454 514 c 0,11,12
 1454 587 1454 587 1398.5 621 c 128,-1,13
 1343 655 1343 655 1265 655 c 0,14,15
 1168 655 1168 655 977 603 c 1,16,-1
 977 748 l 1,17,18
 1108 798 1108 798 1283 798 c 0,19,20
 1350 798 1350 798 1410.5 781 c 128,-1,21
 1471 764 1471 764 1520 730.5 c 128,-1,22
 1569 697 1569 697 1597.5 642 c 128,-1,23
 1626 587 1626 587 1626 517 c 0,24,25
 1626 462 1626 462 1603 406 c 128,-1,26
 1580 350 1580 350 1548.5 306 c 128,-1,27
 1517 262 1517 262 1464.5 210 c 128,-1,28
 1412 158 1412 158 1373 126.5 c 128,-1,29
 1334 95 1334 95 1275 47.5 c 128,-1,30
 1216 0 1216 0 1192 -20 c 1,0,-1
20 -30 m 1,31,-1
 1059 1365 l 1,32,-1
 1181 1272 l 1,33,-1
 140 -123 l 1,34,-1
 20 -30 l 1,31,-1
158 568 m 1,35,-1
 158 1413 l 1,36,-1
 -12 1341 l 1,37,-1
 -50 1434 l 1,38,-1
 188 1529 l 1,39,-1
 318 1503 l 1,40,-1
 318 568 l 1,41,-1
 158 568 l 1,35,-1
EndSplineSet
EndChar

StartChar: threequarters
Encoding: 190 190 128
Width: 1758
GlyphClass: 2
Flags: W
LayerCount: 2
Fore
SplineSet
1506 946 m 1,0,-1
 1634 915 l 1,1,-1
 1634 145 l 1,2,-1
 1785 145 l 1,3,-1
 1785 34 l 1,4,-1
 1634 34 l 1,5,-1
 1634 -227 l 1,6,-1
 1489 -250 l 1,7,-1
 1489 34 l 1,8,-1
 964 34 l 1,9,-1
 942 144 l 1,10,-1
 1506 946 l 1,0,-1
521 1383 m 0,11,12
 521 1429 521 1429 501.5 1461.5 c 128,-1,13
 482 1494 482 1494 448.5 1510.5 c 128,-1,14
 415 1527 415 1527 378 1534 c 128,-1,15
 341 1541 341 1541 297 1541 c 0,16,17
 177 1541 177 1541 63 1484 c 1,18,-1
 16 1611 l 1,19,20
 150 1677 150 1677 302 1677 c 0,21,22
 372 1677 372 1677 435.5 1661.5 c 128,-1,23
 499 1646 499 1646 554 1614 c 128,-1,24
 609 1582 609 1582 642 1525 c 128,-1,25
 675 1468 675 1468 675 1394 c 0,26,27
 675 1295 675 1295 602.5 1219 c 128,-1,28
 530 1143 530 1143 430 1142 c 1,29,30
 554 1118 554 1118 630 1038.5 c 128,-1,31
 706 959 706 959 706 835 c 0,32,33
 706 761 706 761 670.5 702.5 c 128,-1,34
 635 644 635 644 577.5 609.5 c 128,-1,35
 520 575 520 575 453.5 557.5 c 128,-1,36
 387 540 387 540 317 540 c 0,37,38
 140 540 140 540 -11 618 c 1,39,-1
 40 745 l 1,40,41
 184 672 184 672 320 672 c 0,42,43
 408 672 408 672 474 720 c 128,-1,44
 540 768 540 768 540 853 c 0,45,46
 540 1042 540 1042 278 1072 c 1,47,-1
 278 1207 l 1,48,49
 336 1207 336 1207 389 1223.5 c 128,-1,50
 442 1240 442 1240 481.5 1281.5 c 128,-1,51
 521 1323 521 1323 521 1383 c 0,11,12
337 -30 m 1,52,-1
 1367 1365 l 1,53,-1
 1498 1272 l 1,54,-1
 457 -123 l 1,55,-1
 337 -30 l 1,52,-1
1101 144 m 1,56,-1
 1489 144 l 1,57,-1
 1489 703 l 1,58,59
 1435 613 1435 613 1360.5 504.5 c 128,-1,60
 1286 396 1286 396 1241.5 335 c 128,-1,61
 1197 274 1197 274 1101 144 c 1,56,-1
EndSplineSet
EndChar

StartChar: questiondown
Encoding: 191 191 129
Width: 862
GlyphClass: 2
Flags: W
LayerCount: 2
Fore
SplineSet
551 790 m 1,0,-1
 551 1173 l 1,1,-1
 731 1173 l 1,2,-1
 731 688 l 1,3,4
 543 623 543 623 464 583 c 0,5,6
 208 455 208 455 208 268 c 0,7,8
 208 211 208 211 225 169.5 c 128,-1,9
 242 128 242 128 269 105 c 128,-1,10
 296 82 296 82 339 68.5 c 128,-1,11
 382 55 382 55 422.5 51 c 128,-1,12
 463 47 463 47 519 47 c 0,13,14
 600 47 600 47 691.5 70 c 128,-1,15
 783 93 783 93 847 133 c 1,16,-1
 906 -10 l 1,17,18
 827 -58 827 -58 713 -86 c 128,-1,19
 599 -114 599 -114 500 -114 c 0,20,21
 424 -114 424 -114 357 -103.5 c 128,-1,22
 290 -93 290 -93 226 -67 c 128,-1,23
 162 -41 162 -41 117 -1 c 128,-1,24
 72 39 72 39 44.5 103 c 128,-1,25
 17 167 17 167 17 249 c 0,26,27
 17 317 17 317 33.5 376.5 c 128,-1,28
 50 436 50 436 76.5 481.5 c 128,-1,29
 103 527 103 527 145.5 568.5 c 128,-1,30
 188 610 188 610 230.5 640 c 128,-1,31
 273 670 273 670 331.5 699 c 128,-1,32
 390 728 390 728 438.5 747.5 c 128,-1,33
 487 767 487 767 551 790 c 1,0,-1
650 1505 m 0,34,35
 694 1505 694 1505 724 1472 c 128,-1,36
 754 1439 754 1439 754 1395 c 0,37,38
 754 1354 754 1354 721 1325 c 128,-1,39
 688 1296 688 1296 646 1296 c 0,40,41
 605 1296 605 1296 575 1327.5 c 128,-1,42
 545 1359 545 1359 545 1401 c 0,43,44
 545 1444 545 1444 576 1474.5 c 128,-1,45
 607 1505 607 1505 650 1505 c 0,34,35
EndSplineSet
EndChar

StartChar: AE
Encoding: 198 198 136
Width: 1805
GlyphClass: 2
Flags: W
LayerCount: 2
Fore
SplineSet
1769 0 m 1,0,-1
 930 0 l 1,1,-1
 930 371 l 1,2,-1
 378 371 l 1,3,-1
 186 0 l 1,4,-1
 -23 0 l 1,5,-1
 803 1579 l 1,6,-1
 1741 1579 l 1,7,-1
 1741 1436 l 1,8,-1
 1093 1436 l 1,9,-1
 1093 891 l 1,10,-1
 1698 891 l 1,11,-1
 1698 764 l 1,12,-1
 1095 764 l 1,13,-1
 1095 143 l 1,14,-1
 1769 143 l 1,15,-1
 1769 0 l 1,0,-1
928 1459 m 1,16,-1
 438 493 l 1,17,-1
 928 493 l 1,18,-1
 928 1459 l 1,16,-1
EndSplineSet
EndChar

StartChar: Eth
Encoding: 208 208 146
Width: 1448
GlyphClass: 2
Flags: W
LayerCount: 2
Fore
SplineSet
725 1579 m 2,0,1
 869 1579 869 1579 982.5 1539 c 128,-1,2
 1096 1499 1096 1499 1170.5 1429 c 128,-1,3
 1245 1359 1245 1359 1293.5 1257.5 c 128,-1,4
 1342 1156 1342 1156 1363 1040.5 c 128,-1,5
 1384 925 1384 925 1384 788 c 0,6,7
 1384 0 1384 0 725 0 c 2,8,-1
 172 0 l 1,9,-1
 172 764 l 1,10,-1
 10 764 l 1,11,-1
 10 895 l 1,12,-1
 172 895 l 1,13,-1
 172 1579 l 1,14,-1
 725 1579 l 2,0,1
600 764 m 1,15,-1
 366 764 l 1,16,-1
 366 143 l 1,17,-1
 725 143 l 2,18,19
 839 143 839 143 923 180 c 128,-1,20
 1007 217 1007 217 1056 276 c 128,-1,21
 1105 335 1105 335 1134.5 423 c 128,-1,22
 1164 511 1164 511 1173.5 596.5 c 128,-1,23
 1183 682 1183 682 1183 789 c 0,24,25
 1183 863 1183 863 1178 926.5 c 128,-1,26
 1173 990 1173 990 1160 1057.5 c 128,-1,27
 1147 1125 1147 1125 1125.5 1179 c 128,-1,28
 1104 1233 1104 1233 1068.5 1282.5 c 128,-1,29
 1033 1332 1033 1332 986 1364.5 c 128,-1,30
 939 1397 939 1397 872.5 1416.5 c 128,-1,31
 806 1436 806 1436 725 1436 c 2,32,-1
 366 1436 l 1,33,-1
 366 895 l 1,34,-1
 600 895 l 1,35,-1
 600 764 l 1,15,-1
EndSplineSet
EndChar

StartChar: multiply
Encoding: 215 215 153
Width: 901
GlyphClass: 2
Flags: W
LayerCount: 2
Fore
SplineSet
24 863 m 1,0,-1
 126 965 l 1,1,-1
 443 648 l 1,2,-1
 760 965 l 1,3,-1
 862 863 l 1,4,-1
 545 546 l 1,5,-1
 862 229 l 1,6,-1
 760 127 l 1,7,-1
 443 444 l 1,8,-1
 126 127 l 1,9,-1
 24 229 l 1,10,-1
 341 546 l 1,11,-1
 24 863 l 1,0,-1
EndSplineSet
EndChar

StartChar: Oslash
Encoding: 216 216 154
Width: 1431
GlyphClass: 2
Flags: W
LayerCount: 2
Fore
SplineSet
1365 784 m 0,0,1
 1365 647 1365 647 1345.5 529.5 c 128,-1,2
 1326 412 1326 412 1278 304.5 c 128,-1,3
 1230 197 1230 197 1156.5 122 c 128,-1,4
 1083 47 1083 47 969 3 c 128,-1,5
 855 -41 855 -41 709 -41 c 0,6,7
 565 -41 565 -41 453 0 c 1,8,-1
 381 -159 l 1,9,-1
 280 -113 l 1,10,-1
 353 49 l 1,11,12
 263 109 263 109 201.5 192.5 c 128,-1,13
 140 276 140 276 109.5 375.5 c 128,-1,14
 79 475 79 475 66.5 571.5 c 128,-1,15
 54 668 54 668 54 784 c 0,16,17
 54 918 54 918 73.5 1035.5 c 128,-1,18
 93 1153 93 1153 140.5 1260 c 128,-1,19
 188 1367 188 1367 259.5 1443.5 c 128,-1,20
 331 1520 331 1520 442.5 1565 c 128,-1,21
 554 1610 554 1610 695 1610 c 0,22,23
 891 1610 891 1610 1027 1538 c 1,24,-1
 1105 1710 l 1,25,-1
 1206 1668 l 1,26,-1
 1120 1477 l 1,27,28
 1365 1280 1365 1280 1365 784 c 0,0,1
710 1458 m 0,29,30
 628 1458 628 1458 561.5 1437 c 128,-1,31
 495 1416 495 1416 448.5 1380.5 c 128,-1,32
 402 1345 402 1345 366.5 1292 c 128,-1,33
 331 1239 331 1239 310.5 1182.5 c 128,-1,34
 290 1126 290 1126 277 1055.5 c 128,-1,35
 264 985 264 985 259.5 921.5 c 128,-1,36
 255 858 255 858 255 784 c 0,37,38
 255 369 255 369 426 209 c 1,39,-1
 960 1390 l 1,40,41
 859 1458 859 1458 710 1458 c 0,29,30
1164 784 m 0,42,43
 1164 1143 1164 1143 1043 1307 c 1,44,-1
 519 147 l 1,45,-1
 521 147 l 1,46,47
 604 111 604 111 710 111 c 0,48,49
 804 111 804 111 878.5 138.5 c 128,-1,50
 953 166 953 166 1001.5 216.5 c 128,-1,51
 1050 267 1050 267 1083 329 c 128,-1,52
 1116 391 1116 391 1133 471 c 128,-1,53
 1150 551 1150 551 1157 624.5 c 128,-1,54
 1164 698 1164 698 1164 784 c 0,42,43
EndSplineSet
EndChar

StartChar: Thorn
Encoding: 222 222 160
Width: 1254
GlyphClass: 2
Flags: W
LayerCount: 2
Fore
SplineSet
1212 973 m 0,0,1
 1212 900 1212 900 1195.5 838.5 c 128,-1,2
 1179 777 1179 777 1152 732 c 128,-1,3
 1125 687 1125 687 1081.5 651.5 c 128,-1,4
 1038 616 1038 616 994.5 592.5 c 128,-1,5
 951 569 951 569 889 552 c 128,-1,6
 827 535 827 535 775.5 525.5 c 128,-1,7
 724 516 724 516 653.5 511 c 128,-1,8
 583 506 583 506 532.5 505 c 128,-1,9
 482 504 482 504 412 504 c 2,10,-1
 317 504 l 1,11,-1
 317 0 l 1,12,-1
 123 0 l 1,13,-1
 123 1579 l 1,14,-1
 317 1579 l 1,15,-1
 317 1444 l 1,16,17
 346 1444 346 1444 407 1444.5 c 128,-1,18
 468 1445 468 1445 500 1445 c 0,19,20
 565 1445 565 1445 615.5 1443.5 c 128,-1,21
 666 1442 666 1442 728.5 1436 c 128,-1,22
 791 1430 791 1430 838.5 1420 c 128,-1,23
 886 1410 886 1410 938.5 1392.5 c 128,-1,24
 991 1375 991 1375 1029.5 1350.5 c 128,-1,25
 1068 1326 1068 1326 1104 1290 c 128,-1,26
 1140 1254 1140 1254 1162.5 1209 c 128,-1,27
 1185 1164 1185 1164 1198.5 1104.5 c 128,-1,28
 1212 1045 1212 1045 1212 973 c 0,0,1
479 649 m 2,29,30
 528 649 528 649 560 649.5 c 128,-1,31
 592 650 592 650 642.5 653 c 128,-1,32
 693 656 693 656 726.5 661.5 c 128,-1,33
 760 667 760 667 804 678 c 128,-1,34
 848 689 848 689 877.5 704.5 c 128,-1,35
 907 720 907 720 938.5 743.5 c 128,-1,36
 970 767 970 767 988 797 c 128,-1,37
 1006 827 1006 827 1018 868.5 c 128,-1,38
 1030 910 1030 910 1030 959 c 0,39,40
 1030 1013 1030 1013 1021.5 1057.5 c 128,-1,41
 1013 1102 1013 1102 999.5 1135 c 128,-1,42
 986 1168 986 1168 961.5 1194 c 128,-1,43
 937 1220 937 1220 913 1237 c 128,-1,44
 889 1254 889 1254 851 1266 c 128,-1,45
 813 1278 813 1278 782 1284.5 c 128,-1,46
 751 1291 751 1291 702.5 1294.5 c 128,-1,47
 654 1298 654 1298 618 1299 c 128,-1,48
 582 1300 582 1300 526 1300 c 2,49,-1
 317 1300 l 1,50,-1
 317 649 l 1,51,-1
 479 649 l 2,29,30
EndSplineSet
EndChar

StartChar: germandbls
Encoding: 223 223 161
Width: 1303
GlyphClass: 2
Flags: W
LayerCount: 2
Fore
SplineSet
901 1200 m 0,0,1
 901 1258 901 1258 883.5 1301 c 128,-1,2
 866 1344 866 1344 837 1369.5 c 128,-1,3
 808 1395 808 1395 765 1410 c 128,-1,4
 722 1425 722 1425 678.5 1430.5 c 128,-1,5
 635 1436 635 1436 580 1436 c 0,6,7
 513 1436 513 1436 464.5 1422 c 128,-1,8
 416 1408 416 1408 386.5 1375 c 128,-1,9
 357 1342 357 1342 339.5 1312 c 128,-1,10
 322 1282 322 1282 315 1223.5 c 128,-1,11
 308 1165 308 1165 306.5 1128 c 128,-1,12
 305 1091 305 1091 305 1018 c 2,13,-1
 305 16 l 1,14,-1
 111 -6 l 1,15,-1
 110 1046 l 2,16,17
 110 1176 110 1176 133.5 1271 c 128,-1,18
 157 1366 157 1366 210 1437 c 128,-1,19
 263 1508 263 1508 355.5 1543.5 c 128,-1,20
 448 1579 448 1579 580 1579 c 0,21,22
 1073 1579 1073 1579 1073 1176 c 0,23,24
 1073 1092 1073 1092 1049 1022.5 c 128,-1,25
 1025 953 1025 953 968 903.5 c 128,-1,26
 911 854 911 854 827 844 c 1,27,28
 1028 844 1028 844 1141.5 721 c 128,-1,29
 1255 598 1255 598 1255 395 c 0,30,31
 1255 270 1255 270 1207 175 c 128,-1,32
 1159 80 1159 80 1084 23.5 c 128,-1,33
 1009 -33 1009 -33 903.5 -68.5 c 128,-1,34
 798 -104 798 -104 697 -116.5 c 128,-1,35
 596 -129 596 -129 481 -129 c 1,36,-1
 481 27 l 1,37,38
 557 27 557 27 614 30 c 128,-1,39
 671 33 671 33 736 43 c 128,-1,40
 801 53 801 53 847.5 70 c 128,-1,41
 894 87 894 87 939 117.5 c 128,-1,42
 984 148 984 148 1011.5 190 c 128,-1,43
 1039 232 1039 232 1056 293 c 128,-1,44
 1073 354 1073 354 1073 432 c 0,45,46
 1073 500 1073 500 1050 554 c 128,-1,47
 1027 608 1027 608 992.5 643 c 128,-1,48
 958 678 958 678 902.5 703.5 c 128,-1,49
 847 729 847 729 796.5 742.5 c 128,-1,50
 746 756 746 756 677 763.5 c 128,-1,51
 608 771 608 771 560.5 772.5 c 128,-1,52
 513 774 513 774 449 774 c 1,53,-1
 449 905 l 1,54,55
 507 903 507 903 535 903 c 0,56,57
 601 903 601 903 651.5 909.5 c 128,-1,58
 702 916 702 916 750.5 935.5 c 128,-1,59
 799 955 799 955 830.5 987 c 128,-1,60
 862 1019 862 1019 881.5 1073 c 128,-1,61
 901 1127 901 1127 901 1200 c 0,0,1
EndSplineSet
EndChar

StartChar: ae
Encoding: 230 230 168
Width: 1802
GlyphClass: 2
Flags: W
LayerCount: 2
Fore
SplineSet
786 665 m 1,0,-1
 786 713 l 2,1,2
 786 766 786 766 784.5 798.5 c 128,-1,3
 783 831 783 831 778 871 c 128,-1,4
 773 911 773 911 763 934 c 128,-1,5
 753 957 753 957 734.5 981.5 c 128,-1,6
 716 1006 716 1006 689.5 1018.5 c 128,-1,7
 663 1031 663 1031 624 1039 c 128,-1,8
 585 1047 585 1047 534 1047 c 0,9,10
 449 1047 449 1047 343 1015 c 128,-1,11
 237 983 237 983 171 935 c 1,12,-1
 104 1057 l 1,13,14
 170 1113 170 1113 299.5 1151.5 c 128,-1,15
 429 1190 429 1190 524 1190 c 0,16,17
 595 1190 595 1190 650 1181 c 128,-1,18
 705 1172 705 1172 758 1149.5 c 128,-1,19
 811 1127 811 1127 848.5 1082 c 128,-1,20
 886 1037 886 1037 906 970 c 1,21,22
 958 1078 958 1078 1065.5 1134 c 128,-1,23
 1173 1190 1173 1190 1301 1190 c 0,24,25
 1413 1190 1413 1190 1499.5 1149.5 c 128,-1,26
 1586 1109 1586 1109 1638.5 1038 c 128,-1,27
 1691 967 1691 967 1717.5 875.5 c 128,-1,28
 1744 784 1744 784 1744 676 c 0,29,30
 1744 625 1744 625 1736 567 c 1,31,-1
 976 567 l 1,32,33
 976 489 976 489 985 426.5 c 128,-1,34
 994 364 994 364 1017.5 306.5 c 128,-1,35
 1041 249 1041 249 1079 211 c 128,-1,36
 1117 173 1117 173 1178.5 150 c 128,-1,37
 1240 127 1240 127 1322 127 c 0,38,39
 1492 127 1492 127 1628 244 c 1,40,-1
 1690 99 l 1,41,42
 1620 48 1620 48 1509 12.5 c 128,-1,43
 1398 -23 1398 -23 1310 -23 c 0,44,45
 1168 -23 1168 -23 1056 33.5 c 128,-1,46
 944 90 944 90 877 207 c 1,47,48
 798 102 798 102 678.5 39.5 c 128,-1,49
 559 -23 559 -23 430 -23 c 0,50,51
 246 -23 246 -23 142 69 c 128,-1,52
 38 161 38 161 38 343 c 0,53,54
 38 437 38 437 74 510 c 128,-1,55
 110 583 110 583 172 627 c 128,-1,56
 234 671 234 671 312.5 693 c 128,-1,57
 391 715 391 715 482 715 c 0,58,59
 553 715 553 715 641.5 701.5 c 128,-1,60
 730 688 730 688 786 665 c 1,0,-1
477 119 m 0,61,62
 622 119 622 119 786 271 c 1,63,-1
 786 569 l 1,64,65
 660 590 660 590 551 590 c 0,66,67
 494 590 494 590 450.5 585 c 128,-1,68
 407 580 407 580 363.5 565 c 128,-1,69
 320 550 320 550 292 525 c 128,-1,70
 264 500 264 500 246.5 457 c 128,-1,71
 229 414 229 414 229 356 c 0,72,73
 229 229 229 229 288.5 174 c 128,-1,74
 348 119 348 119 477 119 c 0,61,62
1576 717 m 2,75,76
 1576 789 1576 789 1561.5 848.5 c 128,-1,77
 1547 908 1547 908 1516 956 c 128,-1,78
 1485 1004 1485 1004 1430.5 1030.5 c 128,-1,79
 1376 1057 1376 1057 1302 1057 c 0,80,81
 1139 1057 1139 1057 1057.5 954.5 c 128,-1,82
 976 852 976 852 976 682 c 1,83,-1
 1576 682 l 1,84,-1
 1576 717 l 2,75,76
EndSplineSet
EndChar

StartChar: eth
Encoding: 240 240 177
Width: 1131
GlyphClass: 2
Flags: W
LayerCount: 2
Fore
SplineSet
1051 690 m 0,0,1
 1051 -20 1051 -20 518 -20 c 0,2,3
 416 -20 416 -20 333.5 13.5 c 128,-1,4
 251 47 251 47 196 103.5 c 128,-1,5
 141 160 141 160 104 238 c 128,-1,6
 67 316 67 316 50.5 402 c 128,-1,7
 34 488 34 488 34 584 c 0,8,9
 34 673 34 673 50 757 c 128,-1,10
 66 841 66 841 101.5 920.5 c 128,-1,11
 137 1000 137 1000 189.5 1059 c 128,-1,12
 242 1118 242 1118 321 1154 c 128,-1,13
 400 1190 400 1190 496 1190 c 0,14,15
 594 1190 594 1190 698 1145.5 c 128,-1,16
 802 1101 802 1101 861 1028 c 1,17,18
 802 1206 802 1206 652 1380 c 1,19,-1
 417 1311 l 1,20,-1
 375 1401 l 1,21,-1
 578 1461 l 1,22,23
 468 1571 468 1571 357 1641 c 1,24,-1
 441 1743 l 1,25,26
 520 1699 520 1699 587.5 1643.5 c 128,-1,27
 655 1588 655 1588 737 1508 c 1,28,-1
 1023 1593 l 1,29,-1
 1065 1503 l 1,30,-1
 805 1426 l 1,31,32
 931 1255 931 1255 991 1077.5 c 128,-1,33
 1051 900 1051 900 1051 690 c 0,0,1
867 666 m 0,34,35
 867 770 867 770 832 855 c 128,-1,36
 797 940 797 940 721 993.5 c 128,-1,37
 645 1047 645 1047 540 1047 c 0,38,39
 460 1047 460 1047 401 1021 c 128,-1,40
 342 995 342 995 307 953.5 c 128,-1,41
 272 912 272 912 251 849.5 c 128,-1,42
 230 787 230 787 223 725.5 c 128,-1,43
 216 664 216 664 216 587 c 0,44,45
 216 123 216 123 514 123 c 0,46,47
 580 123 580 123 633 140 c 128,-1,48
 686 157 686 157 722 185.5 c 128,-1,49
 758 214 758 214 785 257 c 128,-1,50
 812 300 812 300 827.5 345 c 128,-1,51
 843 390 843 390 852 448 c 128,-1,52
 861 506 861 506 864 555.5 c 128,-1,53
 867 605 867 605 867 666 c 0,34,35
EndSplineSet
EndChar

StartChar: divide
Encoding: 247 247 184
Width: 724
GlyphClass: 2
Flags: W
LayerCount: 2
Fore
SplineSet
691 508 m 1,0,-1
 9 508 l 1,1,-1
 9 639 l 1,2,-1
 691 639 l 1,3,-1
 691 508 l 1,0,-1
348 930 m 0,4,5
 396 930 396 930 426 896.5 c 128,-1,6
 456 863 456 863 456 815 c 128,-1,7
 456 767 456 767 426 733.5 c 128,-1,8
 396 700 396 700 348 700 c 128,-1,9
 300 700 300 700 268 733.5 c 128,-1,10
 236 767 236 767 236 815 c 0,11,12
 236 862 236 862 268.5 896 c 128,-1,13
 301 930 301 930 348 930 c 0,4,5
346 445 m 0,14,15
 394 445 394 445 424 411.5 c 128,-1,16
 454 378 454 378 454 330 c 128,-1,17
 454 282 454 282 424 248.5 c 128,-1,18
 394 215 394 215 346 215 c 128,-1,19
 298 215 298 215 266 248.5 c 128,-1,20
 234 282 234 282 234 330 c 0,21,22
 234 377 234 377 266.5 411 c 128,-1,23
 299 445 299 445 346 445 c 0,14,15
EndSplineSet
EndChar

StartChar: oslash
Encoding: 248 248 185
Width: 1161
GlyphClass: 2
Flags: W
LayerCount: 2
Fore
SplineSet
261 -168 m 1,0,-1
 328 28 l 1,1,2
 176 101 176 101 105.5 249 c 128,-1,3
 35 397 35 397 35 582 c 0,4,5
 35 709 35 709 68 817.5 c 128,-1,6
 101 926 101 926 164.5 1010 c 128,-1,7
 228 1094 228 1094 331 1142 c 128,-1,8
 434 1190 434 1190 565 1190 c 0,9,10
 650 1190 650 1190 723 1170 c 1,11,-1
 790 1365 l 1,12,-1
 871 1335 l 1,13,-1
 804 1140 l 1,14,15
 955 1063 955 1063 1025.5 914.5 c 128,-1,16
 1096 766 1096 766 1096 582 c 0,17,18
 1096 480 1096 480 1075.5 390.5 c 128,-1,19
 1055 301 1055 301 1012.5 225.5 c 128,-1,20
 970 150 970 150 908 95.5 c 128,-1,21
 846 41 846 41 758.5 10.5 c 128,-1,22
 671 -20 671 -20 565 -20 c 0,23,24
 483 -20 483 -20 415 -2 c 1,25,-1
 349 -198 l 1,26,-1
 261 -168 l 1,0,-1
217 582 m 0,27,28
 217 279 217 279 377 169 c 1,29,-1
 676 1035 l 1,30,31
 628 1051 628 1051 565 1051 c 0,32,33
 486 1051 486 1051 425 1024 c 128,-1,34
 364 997 364 997 325.5 952.5 c 128,-1,35
 287 908 287 908 262 846 c 128,-1,36
 237 784 237 784 227 719.5 c 128,-1,37
 217 655 217 655 217 582 c 0,27,28
565 117 m 0,38,39
 644 117 644 117 705.5 143.5 c 128,-1,40
 767 170 767 170 805.5 213.5 c 128,-1,41
 844 257 844 257 868.5 318.5 c 128,-1,42
 893 380 893 380 903 444.5 c 128,-1,43
 913 509 913 509 913 582 c 0,44,45
 913 885 913 885 755 996 c 1,46,-1
 460 130 l 1,47,48
 504 117 504 117 565 117 c 0,38,39
EndSplineSet
EndChar

StartChar: thorn
Encoding: 254 254 191
Width: 1361
GlyphClass: 2
Flags: W
LayerCount: 2
Fore
SplineSet
1143 584 m 0,0,1
 1143 458 1143 458 1115 351 c 128,-1,2
 1087 244 1087 244 1031.5 160 c 128,-1,3
 976 76 976 76 884.5 28 c 128,-1,4
 793 -20 793 -20 674 -20 c 0,5,6
 425 -20 425 -20 315 117 c 1,7,-1
 315 -465 l 1,8,-1
 129 -487 l 1,9,-1
 129 1565 l 1,10,-1
 313 1565 l 1,11,-1
 313 1004 l 1,12,13
 377 1083 377 1083 470 1136.5 c 128,-1,14
 563 1190 563 1190 674 1190 c 0,15,16
 794 1190 794 1190 886 1142.5 c 128,-1,17
 978 1095 978 1095 1033 1010.5 c 128,-1,18
 1088 926 1088 926 1115.5 818.5 c 128,-1,19
 1143 711 1143 711 1143 584 c 0,0,1
961 543 m 0,20,21
 961 609 961 609 956.5 665.5 c 128,-1,22
 952 722 952 722 940.5 781.5 c 128,-1,23
 929 841 929 841 908 887 c 128,-1,24
 887 933 887 933 856.5 970 c 128,-1,25
 826 1007 826 1007 779.5 1027 c 128,-1,26
 733 1047 733 1047 674 1047 c 0,27,28
 495 1047 495 1047 338 890 c 1,29,-1
 322 244 l 1,30,31
 381 194 381 194 482 158.5 c 128,-1,32
 583 123 583 123 682 123 c 0,33,34
 756 123 756 123 811.5 159.5 c 128,-1,35
 867 196 867 196 898.5 257.5 c 128,-1,36
 930 319 930 319 945.5 391 c 128,-1,37
 961 463 961 463 961 543 c 0,20,21
EndSplineSet
EndChar

StartChar: OE
Encoding: 338 338 193
Width: 2269
GlyphClass: 2
Flags: W
LayerCount: 2
Fore
SplineSet
2215 0 m 1,0,-1
 1232 0 l 1,1,-1
 1232 169 l 1,2,3
 1078 -41 1078 -41 778 -41 c 0,4,5
 637 -41 637 -41 526.5 -1 c 128,-1,6
 416 39 416 39 341 110 c 128,-1,7
 266 181 266 181 217 285 c 128,-1,8
 168 389 168 389 146 512 c 128,-1,9
 124 635 124 635 124 784 c 0,10,11
 124 930 124 930 145.5 1053 c 128,-1,12
 167 1176 167 1176 215.5 1280 c 128,-1,13
 264 1384 264 1384 337.5 1456.5 c 128,-1,14
 411 1529 411 1529 519 1569.5 c 128,-1,15
 627 1610 627 1610 764 1610 c 0,16,17
 1076 1610 1076 1610 1232 1397 c 1,18,-1
 1232 1579 l 1,19,-1
 2202 1579 l 1,20,-1
 2202 1436 l 1,21,-1
 1426 1436 l 1,22,-1
 1426 891 l 1,23,-1
 2104 891 l 1,24,-1
 2104 776 l 1,25,-1
 1426 776 l 1,26,-1
 1426 143 l 1,27,-1
 2215 143 l 1,28,-1
 2215 0 l 1,0,-1
1232 878 m 1,29,30
 1227 982 1227 982 1211.5 1066 c 128,-1,31
 1196 1150 1196 1150 1163 1225 c 128,-1,32
 1130 1300 1130 1300 1080 1350 c 128,-1,33
 1030 1400 1030 1400 954 1429 c 128,-1,34
 878 1458 878 1458 780 1458 c 0,35,36
 673 1458 673 1458 591.5 1422.5 c 128,-1,37
 510 1387 510 1387 460 1328 c 128,-1,38
 410 1269 410 1269 379 1180.5 c 128,-1,39
 348 1092 348 1092 336 997 c 128,-1,40
 324 902 324 902 324 784 c 0,41,42
 324 665 324 665 336.5 569 c 128,-1,43
 349 473 349 473 380.5 385.5 c 128,-1,44
 412 298 412 298 462.5 239 c 128,-1,45
 513 180 513 180 593.5 145.5 c 128,-1,46
 674 111 674 111 780 111 c 0,47,48
 878 111 878 111 954 141 c 128,-1,49
 1030 171 1030 171 1079.5 221.5 c 128,-1,50
 1129 272 1129 272 1162.5 347.5 c 128,-1,51
 1196 423 1196 423 1211.5 506.5 c 128,-1,52
 1227 590 1227 590 1232 692 c 1,53,-1
 1232 878 l 1,29,30
EndSplineSet
EndChar

StartChar: oe
Encoding: 339 339 194
Width: 2041
GlyphClass: 2
Flags: W
LayerCount: 2
Fore
SplineSet
656 -20 m 0,0,1
 483 -20 483 -20 362 57.5 c 128,-1,2
 241 135 241 135 183.5 268.5 c 128,-1,3
 126 402 126 402 126 582 c 0,4,5
 126 761 126 761 184 896.5 c 128,-1,6
 242 1032 242 1032 363 1111 c 128,-1,7
 484 1190 484 1190 656 1190 c 0,8,9
 957 1190 957 1190 1095 961 c 1,10,11
 1160 1071 1160 1071 1266.5 1130.5 c 128,-1,12
 1373 1190 1373 1190 1519 1190 c 0,13,14
 1734 1190 1734 1190 1848 1049.5 c 128,-1,15
 1962 909 1962 909 1962 676 c 0,16,17
 1962 633 1962 633 1954 567 c 1,18,-1
 1194 567 l 1,19,20
 1194 463 1194 463 1211 385.5 c 128,-1,21
 1228 308 1228 308 1266.5 248 c 128,-1,22
 1305 188 1305 188 1373.5 157.5 c 128,-1,23
 1442 127 1442 127 1540 127 c 0,24,25
 1710 127 1710 127 1846 244 c 1,26,-1
 1908 99 l 1,27,28
 1844 52 1844 52 1732 14.5 c 128,-1,29
 1620 -23 1620 -23 1528 -23 c 0,30,31
 1230 -23 1230 -23 1094 204 c 1,32,33
 956 -20 956 -20 656 -20 c 0,0,1
656 117 m 128,-1,35
 750 117 750 117 819 152.5 c 128,-1,36
 888 188 888 188 927.5 252.5 c 128,-1,37
 967 317 967 317 985.5 398.5 c 128,-1,38
 1004 480 1004 480 1004 582 c 0,39,40
 1004 662 1004 662 993 730.5 c 128,-1,41
 982 799 982 799 956 859 c 128,-1,42
 930 919 930 919 890.5 961 c 128,-1,43
 851 1003 851 1003 791.5 1027 c 128,-1,44
 732 1051 732 1051 656 1051 c 0,45,46
 562 1051 562 1051 493 1015 c 128,-1,47
 424 979 424 979 384.5 913 c 128,-1,48
 345 847 345 847 326.5 765 c 128,-1,49
 308 683 308 683 308 582 c 0,50,51
 308 480 308 480 326.5 398.5 c 128,-1,52
 345 317 345 317 384.5 252.5 c 128,-1,53
 424 188 424 188 493 152.5 c 128,-1,34
 562 117 562 117 656 117 c 128,-1,35
1794 717 m 2,54,55
 1794 877 1794 877 1728 967 c 128,-1,56
 1662 1057 1662 1057 1520 1057 c 0,57,58
 1359 1057 1359 1057 1276.5 957 c 128,-1,59
 1194 857 1194 857 1194 682 c 1,60,-1
 1794 682 l 1,61,-1
 1794 717 l 2,54,55
EndSplineSet
EndChar

StartChar: circumflex
Encoding: 710 710 200
Width: 1428
GlyphClass: 2
Flags: W
LayerCount: 2
Fore
SplineSet
714 809 m 1,0,-1
 502 432 l 1,1,-1
 374 510 l 1,2,-1
 666 1011 l 1,3,-1
 762 1011 l 1,4,-1
 1054 510 l 1,5,-1
 926 432 l 1,6,-1
 714 809 l 1,0,-1
EndSplineSet
EndChar

StartChar: caron
Encoding: 711 711 201
Width: 1428
GlyphClass: 2
Flags: W
LayerCount: 2
Fore
SplineSet
714 633 m 1,0,-1
 926 1010 l 1,1,-1
 1054 932 l 1,2,-1
 762 431 l 1,3,-1
 666 431 l 1,4,-1
 374 932 l 1,5,-1
 502 1010 l 1,6,-1
 714 633 l 1,0,-1
EndSplineSet
EndChar

StartChar: ring
Encoding: 730 730 202
Width: 1707
GlyphClass: 2
Flags: W
LayerCount: 2
Fore
SplineSet
854 1035 m 256,0,1
 746 1035 746 1035 679 1101 c 128,-1,2
 612 1167 612 1167 612 1275 c 128,-1,3
 612 1383 612 1383 679 1449 c 128,-1,4
 746 1515 746 1515 854 1515 c 128,-1,5
 962 1515 962 1515 1029 1449 c 128,-1,6
 1096 1383 1096 1383 1096 1275 c 128,-1,7
 1096 1167 1096 1167 1029 1101 c 128,-1,8
 962 1035 962 1035 854 1035 c 256,0,1
854 1126 m 0,9,10
 917 1126 917 1126 958 1168.5 c 128,-1,11
 999 1211 999 1211 999 1275 c 128,-1,12
 999 1339 999 1339 958 1381.5 c 128,-1,13
 917 1424 917 1424 854 1424 c 0,14,15
 790 1424 790 1424 749.5 1381.5 c 128,-1,16
 709 1339 709 1339 709 1275 c 128,-1,17
 709 1211 709 1211 749.5 1168.5 c 128,-1,18
 790 1126 790 1126 854 1126 c 0,9,10
EndSplineSet
EndChar

StartChar: tilde
Encoding: 732 732 203
Width: 1707
GlyphClass: 2
Flags: W
LayerCount: 2
Fore
SplineSet
1231 1285 m 1,0,1
 1231 1176 1231 1176 1182.5 1105.5 c 128,-1,2
 1134 1035 1134 1035 1039 1035 c 0,3,4
 989 1035 989 1035 938.5 1053.5 c 128,-1,5
 888 1072 888 1072 852.5 1094.5 c 128,-1,6
 817 1117 817 1117 771.5 1135.5 c 128,-1,7
 726 1154 726 1154 686 1154 c 0,8,9
 650 1154 650 1154 638.5 1125 c 128,-1,10
 627 1096 627 1096 627 1039 c 1,11,-1
 471 1039 l 1,12,13
 471 1299 471 1299 672 1299 c 0,14,15
 723 1299 723 1299 771 1279.5 c 128,-1,16
 819 1260 819 1260 851 1236.5 c 128,-1,17
 883 1213 883 1213 927.5 1193.5 c 128,-1,18
 972 1174 972 1174 1016 1174 c 0,19,20
 1075 1174 1075 1174 1075 1285 c 1,21,-1
 1231 1285 l 1,0,1
EndSplineSet
EndChar

StartChar: acutecomb
Encoding: 769 769 204
Width: 1097
GlyphClass: 2
Flags: W
LayerCount: 2
Fore
SplineSet
546 1639 m 1,0,-1
 489 1665 l 1,1,-1
 648 2276 l 1,2,-1
 880 2185 l 1,3,-1
 546 1639 l 1,0,-1
EndSplineSet
EndChar

StartChar: uni0306
Encoding: 774 774 205
Width: 780
GlyphClass: 2
Flags: W
LayerCount: 2
Fore
SplineSet
385 1509 m 256,0,1
 450 1509 450 1509 488 1543 c 128,-1,2
 526 1577 526 1577 526 1638 c 1,3,-1
 643 1638 l 1,4,5
 643 1399 643 1399 385 1399 c 0,6,7
 259 1399 259 1399 191 1459 c 128,-1,8
 123 1519 123 1519 123 1638 c 1,9,-1
 240 1638 l 1,10,11
 240 1577 240 1577 280 1543 c 128,-1,12
 320 1509 320 1509 385 1509 c 256,0,1
EndSplineSet
EndChar

StartChar: uni0E81
Encoding: 3713 3713 206
Width: 1510
GlyphClass: 2
Flags: W
LayerCount: 2
Fore
SplineSet
559 1028 m 1,0,1
 567 1033 567 1033 605 1059 c 128,-1,2
 643 1085 643 1085 656.5 1093 c 128,-1,3
 670 1101 670 1101 705.5 1122 c 128,-1,4
 741 1143 741 1143 763.5 1151 c 128,-1,5
 786 1159 786 1159 820.5 1171 c 128,-1,6
 855 1183 855 1183 888.5 1187.5 c 128,-1,7
 922 1192 922 1192 959 1192 c 0,8,9
 1080 1192 1080 1192 1162.5 1163 c 128,-1,10
 1245 1134 1245 1134 1294.5 1072.5 c 128,-1,11
 1344 1011 1344 1011 1365 923.5 c 128,-1,12
 1386 836 1386 836 1386 711 c 2,13,-1
 1386 0 l 1,14,-1
 1215 0 l 1,15,-1
 1215 768 l 2,16,17
 1215 854 1215 854 1204.5 909.5 c 128,-1,18
 1194 965 1194 965 1165.5 1007 c 128,-1,19
 1137 1049 1137 1049 1085 1067.5 c 128,-1,20
 1033 1086 1033 1086 953 1086 c 0,21,22
 909 1086 909 1086 862.5 1073.5 c 128,-1,23
 816 1061 816 1061 785.5 1048.5 c 128,-1,24
 755 1036 755 1036 707 1005 c 128,-1,25
 659 974 659 974 644 962.5 c 128,-1,26
 629 951 629 951 582 916 c 1,27,-1
 582 361 l 2,28,29
 582 0 582 0 314 0 c 0,30,31
 81 0 81 0 81 197 c 0,32,33
 81 286 81 286 140.5 340 c 128,-1,34
 200 394 200 394 292 396 c 0,35,36
 314 396 314 396 355.5 388.5 c 128,-1,37
 397 381 397 381 411 380 c 1,38,-1
 411 827 l 1,39,40
 356 808 356 808 311 808 c 0,41,42
 204 808 204 808 142 855 c 128,-1,43
 80 902 80 902 80 1001 c 0,44,45
 80 1094 80 1094 143 1143 c 128,-1,46
 206 1192 206 1192 307 1192 c 0,47,48
 500 1192 500 1192 559 1028 c 1,0,1
411 936 m 1,49,50
 411 1090 411 1090 315 1090 c 0,51,52
 268 1090 268 1090 240 1068.5 c 128,-1,53
 212 1047 212 1047 212 1005 c 0,54,55
 212 908 212 908 307 908 c 0,56,57
 353 908 353 908 411 936 c 1,49,50
214 197 m 0,58,59
 214 153 214 153 239 127.5 c 128,-1,60
 264 102 264 102 307 102 c 0,61,62
 334 102 334 102 353 111.5 c 128,-1,63
 372 121 372 121 383 135.5 c 128,-1,64
 394 150 394 150 400.5 173.5 c 128,-1,65
 407 197 407 197 409 219.5 c 128,-1,66
 411 242 411 242 411 273 c 2,67,-1
 411 306 l 1,68,-1
 332 306 l 2,69,70
 214 306 214 306 214 197 c 0,58,59
EndSplineSet
EndChar

StartChar: uni0E82
Encoding: 3714 3714 207
Width: 1327
GlyphClass: 2
Flags: W
LayerCount: 2
Fore
SplineSet
1020 373 m 1,0,1
 1116 371 1116 371 1163 313 c 128,-1,2
 1210 255 1210 255 1210 152 c 2,3,-1
 1210 0 l 1,4,-1
 1042 0 l 1,5,-1
 1042 151 l 2,6,7
 1042 190 1042 190 1022.5 214 c 128,-1,8
 1003 238 1003 238 966 238 c 0,9,10
 915 238 915 238 855 207 c 1,11,-1
 519 53 l 2,12,13
 402 0 402 0 326 0 c 0,14,15
 225 0 225 0 159.5 60 c 128,-1,16
 94 120 94 120 94 218 c 0,17,18
 94 259 94 259 104.5 294 c 128,-1,19
 115 329 115 329 138 355 c 128,-1,20
 161 381 161 381 183.5 400 c 128,-1,21
 206 419 206 419 242.5 436.5 c 128,-1,22
 279 454 279 454 305 464.5 c 128,-1,23
 331 475 331 475 371 489 c 0,24,25
 383 493 383 493 388 495 c 2,26,-1
 629 583 l 2,27,28
 656 593 656 593 711 610 c 128,-1,29
 766 627 766 627 804 639 c 128,-1,30
 842 651 842 651 890 673.5 c 128,-1,31
 938 696 938 696 967.5 721 c 128,-1,32
 997 746 997 746 1018 785 c 128,-1,33
 1039 824 1039 824 1039 872 c 0,34,35
 1039 918 1039 918 1024 954 c 128,-1,36
 1009 990 1009 990 980 1013 c 128,-1,37
 951 1036 951 1036 916 1051.5 c 128,-1,38
 881 1067 881 1067 834 1074.5 c 128,-1,39
 787 1082 787 1082 745 1085 c 128,-1,40
 703 1088 703 1088 650 1088 c 0,41,42
 417 1088 417 1088 313 1009 c 1,43,44
 337 1012 337 1012 363 1012 c 0,45,46
 464 1012 464 1012 522.5 959 c 128,-1,47
 581 906 581 906 581 808 c 0,48,49
 581 712 581 712 518 664.5 c 128,-1,50
 455 617 455 617 350 617 c 0,51,52
 109 617 109 617 109 861 c 0,53,54
 109 937 109 937 140.5 995.5 c 128,-1,55
 172 1054 172 1054 223 1090 c 128,-1,56
 274 1126 274 1126 346 1149 c 128,-1,57
 418 1172 418 1172 491.5 1181 c 128,-1,58
 565 1190 565 1190 649 1190 c 0,59,60
 740 1190 740 1190 813.5 1183 c 128,-1,61
 887 1176 887 1176 964 1155 c 128,-1,62
 1041 1134 1041 1134 1093 1100 c 128,-1,63
 1145 1066 1145 1066 1178 1006.5 c 128,-1,64
 1211 947 1211 947 1211 868 c 0,65,66
 1211 821 1211 821 1197.5 781 c 128,-1,67
 1184 741 1184 741 1157 710.5 c 128,-1,68
 1130 680 1130 680 1101.5 657 c 128,-1,69
 1073 634 1073 634 1030 613 c 128,-1,70
 987 592 987 592 956 579.5 c 128,-1,71
 925 567 925 567 879 550 c 0,72,73
 864 545 864 545 857 542 c 2,74,-1
 382 362 l 2,75,76
 352 350 352 350 335.5 341.5 c 128,-1,77
 319 333 319 333 300 317.5 c 128,-1,78
 281 302 281 302 272 280 c 128,-1,79
 263 258 263 258 263 227 c 0,80,81
 263 181 263 181 288 157 c 128,-1,82
 313 133 313 133 358 133 c 0,83,84
 383 133 383 133 413 141.5 c 128,-1,85
 443 150 443 150 462 158 c 128,-1,86
 481 166 481 166 520 185 c 128,-1,87
 559 204 559 204 572 210 c 2,88,-1
 820 323 l 2,89,90
 918 368 918 368 1020 373 c 1,0,1
356 710 m 0,91,92
 450 710 450 710 450 820 c 0,93,94
 450 877 450 877 412 898 c 128,-1,95
 374 919 374 919 304 919 c 2,96,-1
 245 919 l 1,97,98
 235 884 235 884 235 856 c 0,99,100
 235 710 235 710 356 710 c 0,91,92
EndSplineSet
EndChar

StartChar: uni0E84
Encoding: 3716 3716 208
Width: 1282
GlyphClass: 2
Flags: W
LayerCount: 2
Fore
SplineSet
636 1085 m 0,0,1
 272 1085 272 1085 272 894 c 0,2,3
 272 810 272 810 326 760.5 c 128,-1,4
 380 711 380 711 466 711 c 2,5,-1
 601 711 l 1,6,-1
 601 590 l 1,7,-1
 466 590 l 2,8,9
 376 590 376 590 328 536.5 c 128,-1,10
 280 483 280 483 273 389 c 1,11,-1
 273 380 l 1,12,-1
 339 391 l 2,13,14
 364 395 364 395 393 395 c 0,15,16
 489 395 489 395 545.5 346 c 128,-1,17
 602 297 602 297 602 206 c 0,18,19
 602 102 602 102 540.5 51 c 128,-1,20
 479 0 479 0 368 0 c 0,21,22
 241 0 241 0 174 93 c 128,-1,23
 107 186 107 186 107 327 c 128,-1,24
 107 468 107 468 181 550 c 128,-1,25
 255 632 255 632 387 650 c 1,26,27
 268 652 268 652 187.5 715.5 c 128,-1,28
 107 779 107 779 107 890 c 0,29,30
 107 1192 107 1192 636 1192 c 0,31,32
 779 1192 779 1192 878 1168.5 c 128,-1,33
 977 1145 977 1145 1048 1089.5 c 128,-1,34
 1119 1034 1119 1034 1152.5 941 c 128,-1,35
 1186 848 1186 848 1186 711 c 2,36,-1
 1186 0 l 1,37,-1
 1014 0 l 1,38,-1
 1014 706 l 2,39,40
 1014 915 1014 915 929.5 1000 c 128,-1,41
 845 1085 845 1085 636 1085 c 0,0,1
374 103 m 0,42,43
 469 103 469 103 469 207 c 0,44,45
 469 262 469 262 435.5 284 c 128,-1,46
 402 306 402 306 339 306 c 2,47,-1
 273 306 l 1,48,-1
 273 284 l 1,49,50
 276 103 276 103 374 103 c 0,42,43
EndSplineSet
EndChar

StartChar: uni0E87
Encoding: 3719 3719 209
Width: 1072
GlyphClass: 2
Flags: W
LayerCount: 2
Fore
SplineSet
993 144 m 2,0,1
 993 -5 993 -5 967.5 -113 c 128,-1,2
 942 -221 942 -221 885 -301.5 c 128,-1,3
 828 -382 828 -382 729.5 -422 c 128,-1,4
 631 -462 631 -462 490 -462 c 0,5,6
 286 -462 286 -462 176 -383.5 c 128,-1,7
 66 -305 66 -305 66 -129 c 1,8,-1
 196 -129 l 1,9,10
 200 -354 200 -354 486 -354 c 0,11,12
 560 -354 560 -354 615.5 -339 c 128,-1,13
 671 -324 671 -324 707.5 -291.5 c 128,-1,14
 744 -259 744 -259 768 -219 c 128,-1,15
 792 -179 792 -179 804 -119 c 128,-1,16
 816 -59 816 -59 820.5 0 c 128,-1,17
 825 59 825 59 825 141 c 2,18,-1
 825 646 l 2,19,20
 825 756 825 756 810.5 832 c 128,-1,21
 796 908 796 908 760 969 c 128,-1,22
 724 1030 724 1030 657 1059.5 c 128,-1,23
 590 1089 590 1089 490 1089 c 2,24,-1
 457 1089 l 1,25,26
 486 1002 486 1002 486 971 c 0,27,28
 482 795 482 795 269 795 c 0,29,30
 173 795 173 795 108.5 843.5 c 128,-1,31
 44 892 44 892 44 980 c 0,32,33
 44 1192 44 1192 442 1192 c 0,34,35
 712 1192 712 1192 852.5 1054.5 c 128,-1,36
 993 917 993 917 993 651 c 2,37,-1
 993 144 l 2,0,1
178 983 m 0,38,39
 178 887 178 887 278 887 c 0,40,41
 367 887 367 887 367 998 c 2,42,-1
 367 1089 l 1,43,44
 329 1088 329 1088 300.5 1083.5 c 128,-1,45
 272 1079 272 1079 241.5 1069 c 128,-1,46
 211 1059 211 1059 194.5 1037 c 128,-1,47
 178 1015 178 1015 178 983 c 0,38,39
EndSplineSet
EndChar

StartChar: uni0E88
Encoding: 3720 3720 210
Width: 1369
GlyphClass: 2
Flags: W
LayerCount: 2
Fore
SplineSet
34 780 m 2,0,1
 34 869 34 869 70.5 940.5 c 128,-1,2
 107 1012 107 1012 167 1058.5 c 128,-1,3
 227 1105 227 1105 310 1135.5 c 128,-1,4
 393 1166 393 1166 481 1179 c 128,-1,5
 569 1192 569 1192 665 1192 c 0,6,7
 820 1192 820 1192 927 1167 c 128,-1,8
 1034 1142 1034 1142 1110 1082.5 c 128,-1,9
 1186 1023 1186 1023 1221.5 923 c 128,-1,10
 1257 823 1257 823 1257 676 c 2,11,-1
 1257 2 l 1,12,-1
 1100 -70 l 1,13,-1
 1054 -50 l 1,14,15
 913 22 913 22 824 160.5 c 128,-1,16
 735 299 735 299 712 486 c 1,17,-1
 666 478 l 1,18,19
 621 473 621 473 608 473 c 0,20,21
 372 473 372 473 372 670 c 0,22,23
 372 770 372 770 439 823.5 c 128,-1,24
 506 877 506 877 614 877 c 0,25,26
 739 877 739 877 801.5 805 c 128,-1,27
 864 733 864 733 864 598 c 0,28,29
 864 423 864 423 922.5 277.5 c 128,-1,30
 981 132 981 132 1087 69 c 1,31,-1
 1087 681 l 2,32,33
 1087 907 1087 907 997.5 996 c 128,-1,34
 908 1085 908 1085 682 1085 c 0,35,36
 194 1085 194 1085 187 754 c 1,37,-1
 187 732 l 1,38,-1
 35 732 l 1,39,40
 34 747 34 747 34 765 c 2,41,-1
 34 780 l 2,0,1
606 782 m 0,42,43
 556 782 556 782 530.5 753 c 128,-1,44
 505 724 505 724 505 672 c 0,45,46
 505 611 505 611 540.5 587 c 128,-1,47
 576 563 576 563 649 563 c 2,48,-1
 704 563 l 1,49,50
 703 567 703 567 703 581 c 2,51,-1
 703 610 l 2,52,53
 703 695 703 695 683 738.5 c 128,-1,54
 663 782 663 782 606 782 c 0,42,43
EndSplineSet
EndChar

StartChar: uni0E8A
Encoding: 3722 3722 211
Width: 1318
GlyphClass: 2
Flags: W
LayerCount: 2
Fore
SplineSet
584 813 m 0,0,1
 584 715 584 715 516.5 660 c 128,-1,2
 449 605 449 605 343 605 c 0,3,4
 224 605 224 605 165 671 c 128,-1,5
 106 737 106 737 106 861 c 0,6,7
 106 934 106 934 137 992 c 128,-1,8
 168 1050 168 1050 219.5 1086.5 c 128,-1,9
 271 1123 271 1123 341.5 1147.5 c 128,-1,10
 412 1172 412 1172 486 1182 c 128,-1,11
 560 1192 560 1192 642 1192 c 0,12,13
 754 1192 754 1192 848 1177 c 128,-1,14
 942 1162 942 1162 1027.5 1127 c 128,-1,15
 1113 1092 1113 1092 1162 1025 c 128,-1,16
 1211 958 1211 958 1211 863 c 0,17,18
 1211 809 1211 809 1193.5 765.5 c 128,-1,19
 1176 722 1176 722 1149.5 693.5 c 128,-1,20
 1123 665 1123 665 1082 640 c 128,-1,21
 1041 615 1041 615 1003 599 c 128,-1,22
 965 583 965 583 916 565 c 0,23,24
 894 557 894 557 883 553 c 2,25,-1
 569 434 l 2,26,27
 532 420 532 420 483 404.5 c 128,-1,28
 434 389 434 389 404.5 380.5 c 128,-1,29
 375 372 375 372 342 357.5 c 128,-1,30
 309 343 309 343 291.5 327.5 c 128,-1,31
 274 312 274 312 262 287.5 c 128,-1,32
 250 263 250 263 250 230 c 0,33,34
 250 182 250 182 272.5 159 c 128,-1,35
 295 136 295 136 340 132 c 1,36,37
 402 134 402 134 470 158.5 c 128,-1,38
 538 183 538 183 598 216 c 128,-1,39
 658 249 658 249 719 281.5 c 128,-1,40
 780 314 780 314 848 336.5 c 128,-1,41
 916 359 916 359 978 359 c 0,42,43
 1003 359 1003 359 1024.5 356.5 c 128,-1,44
 1046 354 1046 354 1063 346 c 128,-1,45
 1080 338 1080 338 1093.5 331.5 c 128,-1,46
 1107 325 1107 325 1118 310 c 128,-1,47
 1129 295 1129 295 1136.5 285.5 c 128,-1,48
 1144 276 1144 276 1151 254 c 128,-1,49
 1158 232 1158 232 1161.5 220 c 128,-1,50
 1165 208 1165 208 1170 180 c 128,-1,51
 1175 152 1175 152 1177 139 c 128,-1,52
 1179 126 1179 126 1183 93 c 2,53,-1
 1244 -352 l 1,54,-1
 1099 -352 l 1,55,-1
 1042 93 l 2,56,57
 1041 102 1041 102 1039 121.5 c 128,-1,58
 1037 141 1037 141 1035.5 151 c 128,-1,59
 1034 161 1034 161 1031 177.5 c 128,-1,60
 1028 194 1028 194 1023 202.5 c 128,-1,61
 1018 211 1018 211 1011 221 c 128,-1,62
 1004 231 1004 231 993 235 c 128,-1,63
 982 239 982 239 967 239 c 0,64,65
 908 239 908 239 841 214.5 c 128,-1,66
 774 190 774 190 713.5 155 c 128,-1,67
 653 120 653 120 591 84.5 c 128,-1,68
 529 49 529 49 459.5 24.5 c 128,-1,69
 390 0 390 0 326 0 c 0,70,71
 225 0 225 0 159.5 60.5 c 128,-1,72
 94 121 94 121 94 220 c 0,73,74
 94 270 94 270 116 312.5 c 128,-1,75
 138 355 138 355 161.5 380 c 128,-1,76
 185 405 185 405 239 433 c 128,-1,77
 293 461 293 461 317.5 470.5 c 128,-1,78
 342 480 342 480 405 502 c 0,79,80
 427 510 427 510 438 514 c 2,81,-1
 636 586 l 2,82,83
 660 595 660 595 717 613 c 128,-1,84
 774 631 774 631 813 644.5 c 128,-1,85
 852 658 852 658 904 681.5 c 128,-1,86
 956 705 956 705 987.5 729 c 128,-1,87
 1019 753 1019 753 1042 788 c 128,-1,88
 1065 823 1065 823 1065 863 c 0,89,90
 1065 925 1065 925 1030.5 970.5 c 128,-1,91
 996 1016 996 1016 936.5 1040.5 c 128,-1,92
 877 1065 877 1065 808.5 1076.5 c 128,-1,93
 740 1088 740 1088 661 1088 c 0,94,95
 420 1088 420 1088 312 1008 c 1,96,97
 367 1013 367 1013 370 1013 c 0,98,99
 470 1011 470 1011 527 960 c 128,-1,100
 584 909 584 909 584 813 c 0,0,1
353 707 m 0,101,102
 407 707 407 707 427.5 734.5 c 128,-1,103
 448 762 448 762 450 820 c 1,104,105
 450 919 450 919 309 919 c 2,106,-1
 245 919 l 1,107,108
 235 884 235 884 235 855 c 0,109,110
 235 781 235 781 261 744 c 128,-1,111
 287 707 287 707 353 707 c 0,101,102
EndSplineSet
EndChar

StartChar: uni0E8D
Encoding: 3725 3725 212
Width: 1267
GlyphClass: 2
Flags: W
LayerCount: 2
Fore
SplineSet
588 994 m 0,0,1
 588 899 588 899 533.5 849 c 128,-1,2
 479 799 479 799 379 796 c 0,3,4
 372 796 372 796 317 801 c 1,5,-1
 259 812 l 1,6,-1
 259 791 l 2,7,8
 259 708 259 708 309 655.5 c 128,-1,9
 359 603 359 603 442 603 c 2,10,-1
 587 603 l 1,11,-1
 587 481 l 1,12,-1
 442 481 l 2,13,14
 361 481 361 481 309.5 430.5 c 128,-1,15
 258 380 258 380 258 300 c 0,16,17
 258 245 258 245 286 205.5 c 128,-1,18
 314 166 314 166 363.5 145 c 128,-1,19
 413 124 413 124 471 114.5 c 128,-1,20
 529 105 529 105 600 105 c 0,21,22
 709 105 709 105 781.5 122 c 128,-1,23
 854 139 854 139 904.5 180 c 128,-1,24
 955 221 955 221 977.5 290.5 c 128,-1,25
 1000 360 1000 360 1000 465 c 2,26,-1
 1000 1192 l 1,27,-1
 1171 1192 l 1,28,-1
 1171 482 l 2,29,30
 1171 347 1171 347 1137 253.5 c 128,-1,31
 1103 160 1103 160 1032.5 104.5 c 128,-1,32
 962 49 962 49 862.5 24.5 c 128,-1,33
 763 0 763 0 622 0 c 0,34,35
 93 0 93 0 93 302 c 0,36,37
 93 410 93 410 174.5 475.5 c 128,-1,38
 256 541 256 541 373 541 c 1,39,40
 237 555 237 555 165 636 c 128,-1,41
 93 717 93 717 93 864 c 0,42,43
 93 1012 93 1012 160.5 1102 c 128,-1,44
 228 1192 228 1192 361 1192 c 0,45,46
 466 1192 466 1192 527 1142 c 128,-1,47
 588 1092 588 1092 588 994 c 0,0,1
327 887 m 2,48,49
 394 887 394 887 423.5 908.5 c 128,-1,50
 453 930 453 930 455 986 c 1,51,52
 451 1087 451 1087 368 1089 c 1,53,54
 313 1089 313 1089 286 1048 c 128,-1,55
 259 1007 259 1007 259 940 c 2,56,-1
 259 887 l 1,57,-1
 327 887 l 2,48,49
EndSplineSet
EndChar

StartChar: uni0E94
Encoding: 3732 3732 213
Width: 1296
GlyphClass: 2
Flags: W
LayerCount: 2
Fore
SplineSet
379 395 m 0,0,1
 482 395 482 395 545 347 c 128,-1,2
 608 299 608 299 608 206 c 0,3,4
 608 0 608 0 363 0 c 0,5,6
 107 0 107 0 107 350 c 2,7,-1
 107 711 l 2,8,9
 107 975 107 975 237 1083.5 c 128,-1,10
 367 1192 367 1192 648 1192 c 0,11,12
 789 1192 789 1192 888.5 1167.5 c 128,-1,13
 988 1143 988 1143 1059 1087.5 c 128,-1,14
 1130 1032 1130 1032 1164 939 c 128,-1,15
 1198 846 1198 846 1198 711 c 2,16,-1
 1198 0 l 1,17,-1
 1028 0 l 1,18,-1
 1028 706 l 2,19,20
 1028 909 1028 909 940 997 c 128,-1,21
 852 1085 852 1085 648 1085 c 0,22,23
 447 1085 447 1085 362 997 c 128,-1,24
 277 909 277 909 277 706 c 2,25,-1
 277 380 l 1,26,-1
 337 392 l 1,27,28
 368 395 368 395 379 395 c 0,0,1
277 265 m 2,29,30
 277 185 277 185 298 144.5 c 128,-1,31
 319 104 319 104 381 102 c 1,32,33
 473 105 473 105 474 206 c 0,34,35
 474 264 474 264 439 285 c 128,-1,36
 404 306 404 306 331 306 c 2,37,-1
 277 306 l 1,38,-1
 277 265 l 2,29,30
EndSplineSet
EndChar

StartChar: uni0E95
Encoding: 3733 3733 214
Width: 1549
GlyphClass: 2
Flags: W
LayerCount: 2
Fore
SplineSet
779 955 m 1,0,1
 797 1077 797 1077 867 1134.5 c 128,-1,2
 937 1192 937 1192 1072 1192 c 0,3,4
 1179 1192 1179 1192 1254 1158.5 c 128,-1,5
 1329 1125 1329 1125 1371.5 1059 c 128,-1,6
 1414 993 1414 993 1432.5 907.5 c 128,-1,7
 1451 822 1451 822 1451 706 c 2,8,-1
 1451 0 l 1,9,-1
 1281 0 l 1,10,-1
 1281 715 l 2,11,12
 1281 768 1281 768 1279 807 c 128,-1,13
 1277 846 1277 846 1270.5 892 c 128,-1,14
 1264 938 1264 938 1250 969.5 c 128,-1,15
 1236 1001 1236 1001 1214.5 1028.5 c 128,-1,16
 1193 1056 1193 1056 1159.5 1070 c 128,-1,17
 1126 1084 1126 1084 1081 1084 c 0,18,19
 1037 1084 1037 1084 1003.5 1072.5 c 128,-1,20
 970 1061 970 1061 947.5 1044 c 128,-1,21
 925 1027 925 1027 909 995 c 128,-1,22
 893 963 893 963 885 934.5 c 128,-1,23
 877 906 877 906 872.5 859 c 128,-1,24
 868 812 868 812 867 777.5 c 128,-1,25
 866 743 866 743 866 687 c 2,26,-1
 866 553 l 1,27,-1
 694 553 l 1,28,-1
 694 687 l 2,29,30
 694 724 694 724 693.5 746.5 c 128,-1,31
 693 769 693 769 692 804 c 128,-1,32
 691 839 691 839 688 861 c 128,-1,33
 685 883 685 883 680.5 912.5 c 128,-1,34
 676 942 676 942 669 960.5 c 128,-1,35
 662 979 662 979 651.5 1001.5 c 128,-1,36
 641 1024 641 1024 627 1037 c 128,-1,37
 613 1050 613 1050 595 1062 c 128,-1,38
 577 1074 577 1074 554 1079.5 c 128,-1,39
 531 1085 531 1085 503 1085 c 0,40,41
 444 1085 444 1085 402.5 1068.5 c 128,-1,42
 361 1052 361 1052 336.5 1025 c 128,-1,43
 312 998 312 998 298.5 952 c 128,-1,44
 285 906 285 906 281 859.5 c 128,-1,45
 277 813 277 813 277 745 c 2,46,-1
 277 382 l 1,47,-1
 318 391 l 1,48,49
 362 395 362 395 377 395 c 0,50,51
 483 395 483 395 545.5 348 c 128,-1,52
 608 301 608 301 608 206 c 0,53,54
 608 97 608 97 546.5 48.5 c 128,-1,55
 485 0 485 0 365 0 c 0,56,57
 233 0 233 0 170 89 c 128,-1,58
 107 178 107 178 107 332 c 2,59,-1
 107 711 l 2,60,61
 107 829 107 829 126 914.5 c 128,-1,62
 145 1000 145 1000 188.5 1064 c 128,-1,63
 232 1128 232 1128 308.5 1160 c 128,-1,64
 385 1192 385 1192 495 1192 c 0,65,66
 624 1192 624 1192 692.5 1132.5 c 128,-1,67
 761 1073 761 1073 779 955 c 1,0,1
475 206 m 0,68,69
 475 261 475 261 439 283.5 c 128,-1,70
 403 306 403 306 336 306 c 2,71,-1
 277 306 l 1,72,-1
 277 246 l 2,73,74
 277 102 277 102 385 102 c 0,75,76
 474 102 474 102 475 206 c 0,68,69
EndSplineSet
EndChar

StartChar: uni0E96
Encoding: 3734 3734 215
Width: 1380
GlyphClass: 2
Flags: W
LayerCount: 2
Fore
SplineSet
850 1192 m 0,0,1
 1076 1192 1076 1192 1176.5 1078 c 128,-1,2
 1277 964 1277 964 1277 729 c 2,3,-1
 1277 -336 l 1,4,-1
 1107 -336 l 1,5,-1
 1107 747 l 2,6,7
 1107 923 1107 923 1050.5 1004 c 128,-1,8
 994 1085 994 1085 839 1085 c 0,9,10
 797 1085 797 1085 756.5 1075.5 c 128,-1,11
 716 1066 716 1066 674.5 1045 c 128,-1,12
 633 1024 633 1024 606.5 1008.5 c 128,-1,13
 580 993 580 993 533 961.5 c 128,-1,14
 486 930 486 930 469 919 c 1,15,-1
 469 381 l 1,16,-1
 503 389 l 2,17,18
 522 393 522 393 568 393 c 0,19,20
 676 393 676 393 737.5 347 c 128,-1,21
 799 301 799 301 799 206 c 1,22,23
 787 0 787 0 557 0 c 0,24,25
 299 0 299 0 299 348 c 2,26,-1
 299 831 l 1,27,28
 231 809 231 809 185 809 c 0,29,30
 77 809 77 809 26.5 855.5 c 128,-1,31
 -24 902 -24 902 -32 1003 c 1,32,33
 -32 1099 -32 1099 31 1145.5 c 128,-1,34
 94 1192 94 1192 205 1192 c 0,35,36
 393 1192 393 1192 447 1035 c 0,37,38
 447 1032 447 1032 448 1031 c 1,39,40
 456 1036 456 1036 487 1057 c 128,-1,41
 518 1078 518 1078 527.5 1084 c 128,-1,42
 537 1090 537 1090 565 1107.5 c 128,-1,43
 593 1125 593 1125 607 1131.5 c 128,-1,44
 621 1138 621 1138 647.5 1151 c 128,-1,45
 674 1164 674 1164 693.5 1169 c 128,-1,46
 713 1174 713 1174 740 1180.5 c 128,-1,47
 767 1187 767 1187 794 1189.5 c 128,-1,48
 821 1192 821 1192 850 1192 c 0,0,1
101 1005 m 1,49,50
 106 914 106 914 196 914 c 0,51,52
 242 914 242 914 299 941 c 1,53,-1
 299 949 l 2,54,55
 299 1022 299 1022 276.5 1056.5 c 128,-1,56
 254 1091 254 1091 195 1091 c 0,57,58
 103 1091 103 1091 101 1005 c 1,49,50
563 102 m 0,59,60
 613 102 613 102 638 123.5 c 128,-1,61
 663 145 663 145 665 192 c 1,62,-1
 665 206 l 2,63,64
 665 263 665 263 630.5 284.5 c 128,-1,65
 596 306 596 306 527 306 c 2,66,-1
 469 306 l 1,67,-1
 469 260 l 2,68,69
 469 185 469 185 489 143.5 c 128,-1,70
 509 102 509 102 563 102 c 0,59,60
EndSplineSet
EndChar

StartChar: uni0E97
Encoding: 3735 3735 216
Width: 1497
GlyphClass: 2
Flags: W
LayerCount: 2
Fore
SplineSet
706 741 m 2,0,1
 706 961 706 961 786 1076.5 c 128,-1,2
 866 1192 866 1192 1051 1192 c 0,3,4
 1150 1192 1150 1192 1218 1160.5 c 128,-1,5
 1286 1129 1286 1129 1324 1066.5 c 128,-1,6
 1362 1004 1362 1004 1378 925 c 128,-1,7
 1394 846 1394 846 1394 738 c 2,8,-1
 1394 0 l 1,9,-1
 1226 0 l 1,10,-1
 1226 808 l 2,11,12
 1226 1085 1226 1085 1058 1085 c 0,13,14
 878 1085 878 1085 878 819 c 2,15,-1
 878 500 l 2,16,17
 878 403 878 403 869 331 c 128,-1,18
 860 259 860 259 836 194 c 128,-1,19
 812 129 812 129 771.5 88 c 128,-1,20
 731 47 731 47 667 23.5 c 128,-1,21
 603 0 603 0 515 0 c 0,22,23
 352 0 352 0 265 73.5 c 128,-1,24
 178 147 178 147 178 298 c 0,25,26
 178 379 178 379 196.5 462 c 128,-1,27
 215 545 215 545 253.5 658 c 128,-1,28
 292 771 292 771 303 811 c 1,29,-1
 229 797 l 1,30,31
 129 797 129 797 71.5 848 c 128,-1,32
 14 899 14 899 14 995 c 0,33,34
 14 1192 14 1192 247 1192 c 0,35,36
 361 1192 361 1192 431 1141 c 128,-1,37
 501 1090 501 1090 501 990 c 0,38,39
 501 956 501 956 489 906 c 1,40,41
 391 552 391 552 356 361 c 0,42,43
 350 328 350 328 350 313 c 0,44,45
 350 210 350 210 387.5 158 c 128,-1,46
 425 106 425 106 512 106 c 0,47,48
 556 106 556 106 589 119.5 c 128,-1,49
 622 133 622 133 642.5 160 c 128,-1,50
 663 187 663 187 676.5 217.5 c 128,-1,51
 690 248 690 248 696 293 c 128,-1,52
 702 338 702 338 704 375 c 128,-1,53
 706 412 706 412 706 464 c 2,54,-1
 706 741 l 2,0,1
251 1089 m 0,55,56
 199 1089 199 1089 173.5 1068 c 128,-1,57
 148 1047 148 1047 148 999 c 2,58,-1
 148 993 l 2,59,60
 148 934 148 934 180 910.5 c 128,-1,61
 212 887 212 887 278 887 c 2,62,-1
 324 887 l 1,63,64
 327 896 327 896 333 914 c 128,-1,65
 339 932 339 932 342 942.5 c 128,-1,66
 345 953 345 953 348 968 c 128,-1,67
 351 983 351 983 351 996 c 0,68,69
 351 1038 351 1038 323 1063.5 c 128,-1,70
 295 1089 295 1089 251 1089 c 0,55,56
EndSplineSet
EndChar

StartChar: uni0E99
Encoding: 3737 3737 217
Width: 1423
GlyphClass: 2
Flags: W
LayerCount: 2
Fore
SplineSet
227 796 m 0,0,1
 130 796 130 796 71 846 c 128,-1,2
 12 896 12 896 10 987 c 1,3,4
 11 1192 11 1192 243 1192 c 0,5,6
 509 1192 509 1192 509 861 c 2,7,-1
 509 435 l 2,8,9
 509 266 509 266 593 186 c 128,-1,10
 677 106 677 106 850 106 c 0,11,12
 1006 106 1006 106 1079 177 c 128,-1,13
 1152 248 1152 248 1152 402 c 2,14,-1
 1152 1192 l 1,15,-1
 1322 1192 l 1,16,-1
 1322 462 l 2,17,18
 1322 228 1322 228 1204 114 c 128,-1,19
 1086 0 1086 0 849 0 c 0,20,21
 680 0 680 0 569 63.5 c 128,-1,22
 458 127 458 127 427 254 c 1,23,24
 398 130 398 130 298.5 65 c 128,-1,25
 199 0 199 0 42 0 c 1,26,-1
 42 107 l 1,27,28
 187 107 187 107 263.5 193 c 128,-1,29
 340 279 340 279 340 432 c 2,30,-1
 340 824 l 1,31,32
 273 796 273 796 227 796 c 0,0,1
245 1089 m 0,33,34
 192 1089 192 1089 167.5 1064.5 c 128,-1,35
 143 1040 143 1040 143 986 c 0,36,37
 143 928 143 928 175.5 907.5 c 128,-1,38
 208 887 208 887 278 887 c 2,39,-1
 340 887 l 1,40,-1
 340 927 l 2,41,42
 340 1006 340 1006 320 1047.5 c 128,-1,43
 300 1089 300 1089 245 1089 c 0,33,34
EndSplineSet
EndChar

StartChar: uni0E9A
Encoding: 3738 3738 218
Width: 1318
GlyphClass: 2
Flags: W
LayerCount: 2
Fore
SplineSet
15 995 m 0,0,1
 15 1190 15 1190 269 1192 c 0,2,3
 368 1192 368 1192 435 1135 c 128,-1,4
 502 1078 502 1078 502 985 c 0,5,6
 502 950 502 950 473 834 c 2,7,-1
 364 407 l 2,8,9
 364 406 364 406 363.5 405 c 128,-1,10
 363 404 363 404 363 403 c 0,11,12
 350 346 350 346 350 289 c 0,13,14
 350 236 350 236 380 198.5 c 128,-1,15
 410 161 410 161 462.5 141.5 c 128,-1,16
 515 122 515 122 570.5 114 c 128,-1,17
 626 106 626 106 691 106 c 0,18,19
 884 106 884 106 964.5 190 c 128,-1,20
 1045 274 1045 274 1045 471 c 2,21,-1
 1045 1192 l 1,22,-1
 1215 1192 l 1,23,-1
 1215 500 l 2,24,25
 1215 235 1215 235 1090.5 117.5 c 128,-1,26
 966 0 966 0 697 0 c 0,27,28
 618 0 618 0 547 9 c 128,-1,29
 476 18 476 18 407.5 40.5 c 128,-1,30
 339 63 339 63 289.5 98 c 128,-1,31
 240 133 240 133 210 188 c 128,-1,32
 180 243 180 243 180 313 c 0,33,34
 180 372 180 372 194 415 c 1,35,-1
 307 809 l 1,36,37
 258 795 258 795 227 795 c 0,38,39
 133 795 133 795 74 849 c 128,-1,40
 15 903 15 903 15 995 c 0,0,1
242 1089 m 0,41,42
 151 1089 151 1089 149 995 c 1,43,44
 149 932 149 932 182.5 909.5 c 128,-1,45
 216 887 216 887 288 887 c 2,46,-1
 327 887 l 1,47,-1
 347 955 l 2,48,49
 352 975 352 975 352 986 c 0,50,51
 352 1035 352 1035 323 1062 c 128,-1,52
 294 1089 294 1089 242 1089 c 0,41,42
EndSplineSet
EndChar

StartChar: uni0E9B
Encoding: 3739 3739 219
Width: 1318
GlyphClass: 2
Flags: W
LayerCount: 2
Fore
SplineSet
222 795 m 0,0,1
 132 795 132 795 74 850.5 c 128,-1,2
 16 906 16 906 16 995 c 0,3,4
 16 1184 16 1184 265 1192 c 1,5,6
 368 1192 368 1192 435.5 1143.5 c 128,-1,7
 503 1095 503 1095 503 1005 c 0,8,9
 503 932 503 932 482 866 c 1,10,-1
 365 406 l 1,11,12
 351 357 351 357 351 300 c 0,13,14
 351 255 351 255 372.5 220 c 128,-1,15
 394 185 394 185 428 164 c 128,-1,16
 462 143 462 143 509.5 129.5 c 128,-1,17
 557 116 557 116 604 111 c 128,-1,18
 651 106 651 106 704 106 c 0,19,20
 892 106 892 106 970 195 c 128,-1,21
 1048 284 1048 284 1048 480 c 2,22,-1
 1048 1541 l 1,23,-1
 1217 1541 l 1,24,-1
 1217 522 l 2,25,26
 1217 245 1217 245 1096.5 122.5 c 128,-1,27
 976 0 976 0 701 0 c 0,28,29
 621 0 621 0 549.5 9 c 128,-1,30
 478 18 478 18 409 40.5 c 128,-1,31
 340 63 340 63 290.5 97.5 c 128,-1,32
 241 132 241 132 211 187 c 128,-1,33
 181 242 181 242 181 313 c 0,34,35
 181 375 181 375 195 420 c 2,36,-1
 307 808 l 1,37,38
 259 795 259 795 222 795 c 0,0,1
353 998 m 0,39,40
 353 1042 353 1042 327 1065.5 c 128,-1,41
 301 1089 301 1089 253 1089 c 1,42,43
 155 1080 155 1080 150 997 c 1,44,45
 150 932 150 932 181.5 909.5 c 128,-1,46
 213 887 213 887 286 887 c 2,47,-1
 328 887 l 1,48,-1
 348 955 l 1,49,50
 353 990 353 990 353 998 c 0,39,40
EndSplineSet
EndChar

StartChar: uni0E9C
Encoding: 3740 3740 220
Width: 1679
GlyphClass: 2
Flags: W
LayerCount: 2
Fore
SplineSet
941 990 m 0,0,1
 941 1095 941 1095 1004 1142 c 128,-1,2
 1067 1189 1067 1189 1187 1192 c 1,3,4
 1390 1190 1390 1190 1427 969 c 1,5,6
 1467 1028 1467 1028 1467 1137 c 2,7,-1
 1467 1337 l 1,8,-1
 1594 1337 l 1,9,-1
 1594 1137 l 2,10,11
 1594 1038 1594 1038 1554 972.5 c 128,-1,12
 1514 907 1514 907 1440 858 c 1,13,14
 1441 839 1441 839 1441 810 c 2,15,-1
 1441 521 l 2,16,17
 1441 401 1441 401 1422.5 309.5 c 128,-1,18
 1404 218 1404 218 1362 146.5 c 128,-1,19
 1320 75 1320 75 1247 37.5 c 128,-1,20
 1174 0 1174 0 1072 0 c 0,21,22
 945 0 945 0 868.5 64 c 128,-1,23
 792 128 792 128 774 244 c 1,24,25
 758 126 758 126 683.5 63 c 128,-1,26
 609 0 609 0 479 0 c 0,27,28
 368 0 368 0 293.5 34 c 128,-1,29
 219 68 219 68 179 137 c 128,-1,30
 139 206 139 206 123 292.5 c 128,-1,31
 107 379 107 379 107 502 c 2,32,-1
 107 868 l 2,33,34
 107 1192 107 1192 370 1192 c 0,35,36
 608 1192 608 1192 608 987 c 0,37,38
 608 898 608 898 548 847 c 128,-1,39
 488 796 488 796 392 796 c 0,40,41
 341 796 341 796 276 819 c 1,42,-1
 276 443 l 2,43,44
 276 379 276 379 279.5 334.5 c 128,-1,45
 283 290 283 290 295 243.5 c 128,-1,46
 307 197 307 197 329 169 c 128,-1,47
 351 141 351 141 389 123.5 c 128,-1,48
 427 106 427 106 481 106 c 0,49,50
 543 106 543 106 585 131.5 c 128,-1,51
 627 157 627 157 649 206.5 c 128,-1,52
 671 256 671 256 679.5 313.5 c 128,-1,53
 688 371 688 371 688 450 c 2,54,-1
 688 511 l 1,55,-1
 859 511 l 1,56,-1
 859 449 l 2,57,58
 859 106 859 106 1068 106 c 0,59,60
 1130 106 1130 106 1171.5 130 c 128,-1,61
 1213 154 1213 154 1234 201 c 128,-1,62
 1255 248 1255 248 1263.5 303 c 128,-1,63
 1272 358 1272 358 1272 435 c 2,64,-1
 1272 802 l 1,65,66
 1230 796 1230 796 1178 796 c 0,67,68
 1066 796 1066 796 1003.5 843.5 c 128,-1,69
 941 891 941 891 941 990 c 0,0,1
1075 993 m 0,70,71
 1075 928 1075 928 1112 907 c 128,-1,72
 1149 886 1149 886 1228 886 c 0,73,74
 1250 886 1250 886 1272 889 c 1,75,-1
 1272 927 l 2,76,77
 1272 1007 1272 1007 1251 1048 c 128,-1,78
 1230 1089 1230 1089 1171 1089 c 0,79,80
 1124 1089 1124 1089 1099.5 1064.5 c 128,-1,81
 1075 1040 1075 1040 1075 993 c 0,70,71
473 986 m 0,82,83
 473 1088 473 1088 379 1089 c 0,84,85
 320 1089 320 1089 298 1046.5 c 128,-1,86
 276 1004 276 1004 276 927 c 2,87,-1
 276 887 l 1,88,-1
 332 887 l 2,89,90
 403 887 403 887 438 907 c 128,-1,91
 473 927 473 927 473 986 c 0,82,83
EndSplineSet
EndChar

StartChar: uni0E9D
Encoding: 3741 3741 221
Width: 1547
GlyphClass: 2
Flags: W
LayerCount: 2
Fore
SplineSet
275 437 m 2,0,1
 275 374 275 374 279.5 329 c 128,-1,2
 284 284 284 284 297 239.5 c 128,-1,3
 310 195 310 195 333 168 c 128,-1,4
 356 141 356 141 394.5 124 c 128,-1,5
 433 107 433 107 487 106 c 1,6,7
 548 106 548 106 589.5 130.5 c 128,-1,8
 631 155 631 155 653 202.5 c 128,-1,9
 675 250 675 250 683.5 305.5 c 128,-1,10
 692 361 692 361 692 437 c 2,11,-1
 692 513 l 1,12,-1
 862 513 l 1,13,-1
 862 437 l 2,14,15
 862 106 862 106 1062 106 c 0,16,17
 1117 106 1117 106 1156.5 122.5 c 128,-1,18
 1196 139 1196 139 1219.5 166.5 c 128,-1,19
 1243 194 1243 194 1256 238.5 c 128,-1,20
 1269 283 1269 283 1273.5 328.5 c 128,-1,21
 1278 374 1278 374 1278 437 c 2,22,-1
 1278 1541 l 1,23,-1
 1450 1541 l 1,24,-1
 1450 521 l 2,25,26
 1450 422 1450 422 1441 347 c 128,-1,27
 1432 272 1432 272 1407.5 204 c 128,-1,28
 1383 136 1383 136 1342.5 93 c 128,-1,29
 1302 50 1302 50 1236.5 25 c 128,-1,30
 1171 0 1171 0 1081 0 c 1,31,32
 826 3 826 3 777 244 c 1,33,34
 750 122 750 122 682 62 c 128,-1,35
 614 2 614 2 484 0 c 1,36,37
 393 1 393 1 326.5 24.5 c 128,-1,38
 260 48 260 48 218 89 c 128,-1,39
 176 130 176 130 150.5 195 c 128,-1,40
 125 260 125 260 115.5 334 c 128,-1,41
 106 408 106 408 106 508 c 2,42,-1
 106 839 l 2,43,44
 106 1010 106 1010 166 1098 c 128,-1,45
 226 1186 226 1186 369 1192 c 1,46,47
 607 1189 607 1189 607 998 c 0,48,49
 607 901 607 901 548.5 848.5 c 128,-1,50
 490 796 490 796 388 796 c 0,51,52
 342 796 342 796 275 824 c 1,53,-1
 275 437 l 2,0,1
473 987 m 0,54,55
 473 1089 473 1089 384 1089 c 0,56,57
 320 1089 320 1089 297.5 1049 c 128,-1,58
 275 1009 275 1009 275 927 c 2,59,-1
 275 887 l 1,60,-1
 332 887 l 2,61,62
 403 887 403 887 438 907.5 c 128,-1,63
 473 928 473 928 473 987 c 0,54,55
EndSplineSet
EndChar

StartChar: uni0E9E
Encoding: 3742 3742 222
Width: 1563
GlyphClass: 2
Flags: W
LayerCount: 2
Fore
SplineSet
347 267 m 128,-1,1
 347 189 347 189 388 147.5 c 128,-1,2
 429 106 429 106 508 106 c 0,3,4
 556 106 556 106 592 122.5 c 128,-1,5
 628 139 628 139 650.5 166.5 c 128,-1,6
 673 194 673 194 686.5 236 c 128,-1,7
 700 278 700 278 705 324 c 128,-1,8
 710 370 710 370 710 429 c 2,9,-1
 710 1192 l 1,10,-1
 880 1192 l 1,11,-1
 880 429 l 2,12,13
 880 106 880 106 1097 106 c 0,14,15
 1145 106 1145 106 1180.5 123 c 128,-1,16
 1216 140 1216 140 1237.5 168 c 128,-1,17
 1259 196 1259 196 1272 239.5 c 128,-1,18
 1285 283 1285 283 1289.5 328.5 c 128,-1,19
 1294 374 1294 374 1294 434 c 2,20,-1
 1294 1192 l 1,21,-1
 1463 1192 l 1,22,-1
 1463 522 l 2,23,24
 1463 422 1463 422 1454.5 347.5 c 128,-1,25
 1446 273 1446 273 1422 205 c 128,-1,26
 1398 137 1398 137 1358 94 c 128,-1,27
 1318 51 1318 51 1252.5 25.5 c 128,-1,28
 1187 0 1187 0 1097 0 c 0,29,30
 964 0 964 0 894.5 63.5 c 128,-1,31
 825 127 825 127 795 249 c 1,32,33
 773 120 773 120 699.5 60 c 128,-1,34
 626 0 626 0 481 0 c 0,35,36
 331 0 331 0 252.5 75 c 128,-1,37
 174 150 174 150 174 297 c 0,38,39
 174 352 174 352 192 415 c 2,40,-1
 303 808 l 1,41,42
 255 795 255 795 225 795 c 0,43,44
 126 795 126 795 69.5 849 c 128,-1,45
 13 903 13 903 13 1000 c 0,46,47
 13 1099 13 1099 81 1145.5 c 128,-1,48
 149 1192 149 1192 267 1192 c 0,49,50
 367 1192 367 1192 433.5 1135 c 128,-1,51
 500 1078 500 1078 500 983 c 0,52,53
 500 946 500 946 485 887 c 2,54,-1
 372 442 l 2,55,0
 347 345 347 345 347 267 c 128,-1,1
241 1089 m 0,56,57
 149 1089 149 1089 147 997 c 1,58,59
 147 933 147 933 178.5 910 c 128,-1,60
 210 887 210 887 281 887 c 2,61,-1
 325 887 l 1,62,-1
 342 946 l 2,63,64
 344 954 344 954 346 971 c 128,-1,65
 348 988 348 988 350 996 c 1,66,67
 350 1039 350 1039 320 1064 c 128,-1,68
 290 1089 290 1089 241 1089 c 0,56,57
EndSplineSet
EndChar

StartChar: uni0E9F
Encoding: 3743 3743 223
Width: 1654
GlyphClass: 2
Flags: W
LayerCount: 2
Fore
SplineSet
255 1192 m 0,0,1
 362 1192 362 1192 431 1140.5 c 128,-1,2
 500 1089 500 1089 500 993 c 0,3,4
 500 960 500 960 482 888 c 2,5,-1
 375 460 l 1,6,7
 345 365 345 365 345 284 c 0,8,9
 345 201 345 201 384.5 153.5 c 128,-1,10
 424 106 424 106 501 106 c 0,11,12
 555 106 555 106 594 122 c 128,-1,13
 633 138 633 138 655 164.5 c 128,-1,14
 677 191 677 191 689.5 234.5 c 128,-1,15
 702 278 702 278 706 322 c 128,-1,16
 710 366 710 366 710 429 c 2,17,-1
 710 1192 l 1,18,-1
 880 1192 l 1,19,-1
 880 429 l 2,20,21
 880 354 880 354 889.5 299 c 128,-1,22
 899 244 899 244 923 198.5 c 128,-1,23
 947 153 947 153 992 129.5 c 128,-1,24
 1037 106 1037 106 1103 106 c 0,25,26
 1153 106 1153 106 1188.5 124 c 128,-1,27
 1224 142 1224 142 1243.5 170 c 128,-1,28
 1263 198 1263 198 1274.5 243.5 c 128,-1,29
 1286 289 1286 289 1289 331 c 128,-1,30
 1292 373 1292 373 1292 433 c 2,31,-1
 1292 1542 l 1,32,-1
 1461 1542 l 1,33,-1
 1461 522 l 2,34,35
 1461 423 1461 423 1452.5 348 c 128,-1,36
 1444 273 1444 273 1420 205 c 128,-1,37
 1396 137 1396 137 1355.5 94 c 128,-1,38
 1315 51 1315 51 1250 25.5 c 128,-1,39
 1185 0 1185 0 1096 0 c 0,40,41
 959 0 959 0 890 62 c 128,-1,42
 821 124 821 124 795 249 c 1,43,44
 774 122 774 122 701 61 c 128,-1,45
 628 0 628 0 489 0 c 2,46,-1
 477 0 l 1,47,48
 340 2 340 2 256.5 81 c 128,-1,49
 173 160 173 160 173 296 c 0,50,51
 173 354 173 354 191 418 c 2,52,-1
 305 814 l 1,53,54
 248 800 248 800 211 800 c 0,55,56
 121 800 121 800 67 853 c 128,-1,57
 13 906 13 906 13 996 c 0,58,59
 13 1096 13 1096 76.5 1144 c 128,-1,60
 140 1192 140 1192 255 1192 c 0,0,1
350 1001 m 0,61,62
 350 1040 350 1040 317.5 1065.5 c 128,-1,63
 285 1091 285 1091 240 1091 c 0,64,65
 148 1091 148 1091 146 989 c 1,66,67
 146 931 146 931 181 909.5 c 128,-1,68
 216 888 216 888 286 888 c 2,69,-1
 324 888 l 1,70,-1
 336 931 l 2,71,72
 338 940 338 940 341.5 954 c 128,-1,73
 345 968 345 968 347.5 979 c 128,-1,74
 350 990 350 990 350 1001 c 0,61,62
EndSplineSet
EndChar

StartChar: uni0EA1
Encoding: 3745 3745 224
Width: 1617
GlyphClass: 2
Flags: W
LayerCount: 2
Fore
SplineSet
703 448 m 2,0,1
 703 274 703 274 785 191 c 128,-1,2
 867 108 867 108 1039 106 c 1,3,4
 1187 106 1187 106 1266 182 c 128,-1,5
 1345 258 1345 258 1345 404 c 2,6,-1
 1345 1192 l 1,7,-1
 1515 1192 l 1,8,-1
 1515 504 l 2,9,10
 1515 0 1515 0 1040 0 c 0,11,12
 694 0 694 0 619 255 c 1,13,14
 554 0 554 0 233 0 c 0,15,16
 123 0 123 0 52.5 50.5 c 128,-1,17
 -18 101 -18 101 -18 200 c 0,18,19
 -18 292 -18 292 39 344 c 128,-1,20
 96 396 96 396 194 396 c 0,21,22
 413 396 413 396 413 222 c 0,23,24
 413 190 413 190 388 118 c 1,25,26
 534 172 534 172 534 447 c 2,27,-1
 534 1192 l 1,28,-1
 703 1192 l 1,29,-1
 703 448 l 2,0,1
206 306 m 0,30,31
 116 306 116 306 116 197 c 0,32,33
 116 138 116 138 148.5 120 c 128,-1,34
 181 102 181 102 254 102 c 0,35,36
 260 102 260 102 274 102.5 c 128,-1,37
 288 103 288 103 294 103 c 1,38,-1
 294 206 l 2,39,40
 294 253 294 253 271.5 279.5 c 128,-1,41
 249 306 249 306 206 306 c 0,30,31
EndSplineSet
EndChar

StartChar: uni0EA2
Encoding: 3746 3746 225
Width: 1323
GlyphClass: 2
Flags: W
LayerCount: 2
Fore
SplineSet
622 105 m 0,0,1
 626 105 626 105 632.5 105.5 c 128,-1,2
 639 106 639 106 643 106 c 0,3,4
 846 106 846 106 933.5 186.5 c 128,-1,5
 1021 267 1021 267 1021 465 c 2,6,-1
 1021 1159 l 2,7,8
 1021 1379 1021 1379 1084 1528 c 1,9,-1
 1247 1528 l 1,10,11
 1193 1323 1193 1323 1193 1134 c 2,12,-1
 1193 482 l 2,13,14
 1193 347 1193 347 1159 254 c 128,-1,15
 1125 161 1125 161 1054 105.5 c 128,-1,16
 983 50 983 50 883.5 25.5 c 128,-1,17
 784 1 784 1 643 1 c 0,18,19
 114 1 114 1 114 302 c 0,20,21
 114 410 114 410 195.5 475.5 c 128,-1,22
 277 541 277 541 395 541 c 1,23,24
 257 555 257 555 185.5 636 c 128,-1,25
 114 717 114 717 114 864 c 0,26,27
 114 1012 114 1012 182 1102 c 128,-1,28
 250 1192 250 1192 383 1192 c 0,29,30
 487 1192 487 1192 548.5 1141 c 128,-1,31
 610 1090 610 1090 610 994 c 0,32,33
 610 899 610 899 554.5 848.5 c 128,-1,34
 499 798 499 798 400 796 c 0,35,36
 394 796 394 796 339 801 c 1,37,-1
 280 812 l 1,38,-1
 280 791 l 2,39,40
 280 709 280 709 331 656 c 128,-1,41
 382 603 382 603 464 603 c 2,42,-1
 609 603 l 1,43,-1
 609 481 l 1,44,-1
 464 481 l 2,45,46
 383 481 383 481 331 430 c 128,-1,47
 279 379 279 379 279 298 c 0,48,49
 279 244 279 244 307 205 c 128,-1,50
 335 166 335 166 385 145 c 128,-1,51
 435 124 435 124 493.5 114.5 c 128,-1,52
 552 105 552 105 622 105 c 0,0,1
349 887 m 2,53,54
 417 887 417 887 446 908 c 128,-1,55
 475 929 475 929 477 986 c 1,56,57
 474 1087 474 1087 390 1089 c 1,58,59
 335 1089 335 1089 307.5 1048 c 128,-1,60
 280 1007 280 1007 280 940 c 2,61,-1
 280 887 l 1,62,-1
 349 887 l 2,53,54
EndSplineSet
EndChar

StartChar: uni0EA3
Encoding: 3747 3747 226
Width: 1355
GlyphClass: 2
Flags: W
LayerCount: 2
Fore
SplineSet
93 332 m 0,0,1
 93 576 93 576 339 578 c 0,2,3
 448 578 448 578 509 529.5 c 128,-1,4
 570 481 570 481 570 381 c 0,5,6
 570 295 570 295 516 242.5 c 128,-1,7
 462 190 462 190 377 188 c 1,8,-1
 282 204 l 1,9,10
 399 104 399 104 657 104 c 0,11,12
 716 104 716 104 764.5 107.5 c 128,-1,13
 813 111 813 111 864.5 119 c 128,-1,14
 916 127 916 127 954.5 143 c 128,-1,15
 993 159 993 159 1024 182 c 128,-1,16
 1055 205 1055 205 1072 240 c 128,-1,17
 1089 275 1089 275 1089 320 c 0,18,19
 1089 361 1089 361 1078.5 392 c 128,-1,20
 1068 423 1068 423 1052.5 442.5 c 128,-1,21
 1037 462 1037 462 1008.5 478.5 c 128,-1,22
 980 495 980 495 957.5 504.5 c 128,-1,23
 935 514 935 514 896 527 c 0,24,25
 888 530 888 530 884 531 c 2,26,-1
 428 688 l 2,27,28
 415 693 415 693 375.5 706 c 128,-1,29
 336 719 336 719 319.5 725 c 128,-1,30
 303 731 303 731 269 746 c 128,-1,31
 235 761 235 761 219 772 c 128,-1,32
 203 783 203 783 179 802.5 c 128,-1,33
 155 822 155 822 144 841.5 c 128,-1,34
 133 861 133 861 124.5 888.5 c 128,-1,35
 116 916 116 916 116 948 c 0,36,37
 115 999 115 999 135.5 1039 c 128,-1,38
 156 1079 156 1079 195 1105 c 128,-1,39
 234 1131 234 1131 281.5 1149 c 128,-1,40
 329 1167 329 1167 392 1176 c 128,-1,41
 455 1185 455 1185 513.5 1188.5 c 128,-1,42
 572 1192 572 1192 642 1192 c 0,43,44
 718 1192 718 1192 776.5 1189 c 128,-1,45
 835 1186 835 1186 899.5 1177.5 c 128,-1,46
 964 1169 964 1169 1011.5 1154 c 128,-1,47
 1059 1139 1059 1139 1104.5 1113 c 128,-1,48
 1150 1087 1150 1087 1178 1051 c 128,-1,49
 1206 1015 1206 1015 1223 964 c 128,-1,50
 1240 913 1240 913 1240 848 c 2,51,-1
 1240 825 l 1,52,-1
 1103 825 l 1,53,-1
 1103 852 l 2,54,55
 1103 898 1103 898 1089 934.5 c 128,-1,56
 1075 971 1075 971 1053.5 995 c 128,-1,57
 1032 1019 1032 1019 995.5 1036.5 c 128,-1,58
 959 1054 959 1054 924.5 1063 c 128,-1,59
 890 1072 890 1072 838 1077.5 c 128,-1,60
 786 1083 786 1083 746 1084 c 128,-1,61
 706 1085 706 1085 648 1085 c 2,62,-1
 634 1085 l 2,63,64
 592 1085 592 1085 567.5 1084.5 c 128,-1,65
 543 1084 543 1084 501.5 1081.5 c 128,-1,66
 460 1079 460 1079 434.5 1074.5 c 128,-1,67
 409 1070 409 1070 378 1060 c 128,-1,68
 347 1050 347 1050 329.5 1036.5 c 128,-1,69
 312 1023 312 1023 299.5 1001.5 c 128,-1,70
 287 980 287 980 287 953 c 128,-1,71
 287 926 287 926 302.5 902.5 c 128,-1,72
 318 879 318 879 338.5 863.5 c 128,-1,73
 359 848 359 848 394.5 832.5 c 128,-1,74
 430 817 430 817 455 809 c 128,-1,75
 480 801 480 801 520 789.5 c 128,-1,76
 560 778 560 778 575 773 c 2,77,-1
 712 728 l 2,78,79
 744 718 744 718 798 702.5 c 128,-1,80
 852 687 852 687 891.5 676.5 c 128,-1,81
 931 666 931 666 982 647.5 c 128,-1,82
 1033 629 1033 629 1069.5 611 c 128,-1,83
 1106 593 1106 593 1144.5 565.5 c 128,-1,84
 1183 538 1183 538 1206.5 506.5 c 128,-1,85
 1230 475 1230 475 1245 431.5 c 128,-1,86
 1260 388 1260 388 1260 337 c 0,87,88
 1261 259 1261 259 1227 199 c 128,-1,89
 1193 139 1193 139 1137 102 c 128,-1,90
 1081 65 1081 65 1000 41.5 c 128,-1,91
 919 18 919 18 835.5 9 c 128,-1,92
 752 0 752 0 653 0 c 0,93,94
 569 0 569 0 492.5 10 c 128,-1,95
 416 20 416 20 342 44 c 128,-1,96
 268 68 268 68 213.5 105 c 128,-1,97
 159 142 159 142 126 200.5 c 128,-1,98
 93 259 93 259 93 332 c 0,0,1
271 273 m 2,99,100
 361 273 361 273 398 292 c 128,-1,101
 435 311 435 311 437 380 c 1,102,103
 437 483 437 483 353 483 c 0,104,105
 287 483 287 483 253.5 445 c 128,-1,106
 220 407 220 407 220 337 c 0,107,108
 220 306 220 306 232 273 c 1,109,-1
 271 273 l 2,99,100
EndSplineSet
EndChar

StartChar: uni0EA5
Encoding: 3749 3749 227
Width: 1403
GlyphClass: 2
Flags: W
LayerCount: 2
Fore
SplineSet
75 287 m 0,0,1
 75 446 75 446 167.5 553.5 c 128,-1,2
 260 661 260 661 410 661 c 0,3,4
 481 661 481 661 540.5 633 c 128,-1,5
 600 605 600 605 640.5 562 c 128,-1,6
 681 519 681 519 720.5 460.5 c 128,-1,7
 760 402 760 402 788.5 348 c 128,-1,8
 817 294 817 294 854 238 c 128,-1,9
 891 182 891 182 926 149 c 0,10,11
 965 112 965 112 1009 112 c 0,12,13
 1037 112 1037 112 1059 123 c 128,-1,14
 1081 134 1081 134 1094 155.5 c 128,-1,15
 1107 177 1107 177 1115.5 200.5 c 128,-1,16
 1124 224 1124 224 1128 258 c 128,-1,17
 1132 292 1132 292 1133 317.5 c 128,-1,18
 1134 343 1134 343 1134 379 c 2,19,-1
 1134 673 l 2,20,21
 1134 771 1134 771 1121 839 c 128,-1,22
 1108 907 1108 907 1079.5 956 c 128,-1,23
 1051 1005 1051 1005 1001 1032.5 c 128,-1,24
 951 1060 951 1060 882.5 1072.5 c 128,-1,25
 814 1085 814 1085 715 1085 c 2,26,-1
 710 1085 l 2,27,28
 610 1085 610 1085 530 1068.5 c 128,-1,29
 450 1052 450 1052 386.5 1016 c 128,-1,30
 323 980 323 980 287.5 917.5 c 128,-1,31
 252 855 252 855 251 770 c 1,32,-1
 104 770 l 1,33,34
 104 1192 104 1192 735 1192 c 0,35,36
 883 1192 883 1192 986.5 1166.5 c 128,-1,37
 1090 1141 1090 1141 1162.5 1082.5 c 128,-1,38
 1235 1024 1235 1024 1269.5 926.5 c 128,-1,39
 1304 829 1304 829 1304 687 c 2,40,-1
 1304 446 l 2,41,42
 1304 365 1304 365 1296 301.5 c 128,-1,43
 1288 238 1288 238 1267.5 179.5 c 128,-1,44
 1247 121 1247 121 1213.5 83 c 128,-1,45
 1180 45 1180 45 1126 22.5 c 128,-1,46
 1072 0 1072 0 999 0 c 0,47,48
 937 0 937 0 882.5 28.5 c 128,-1,49
 828 57 828 57 788.5 101 c 128,-1,50
 749 145 749 145 709.5 203 c 128,-1,51
 670 261 670 261 640.5 315 c 128,-1,52
 611 369 611 369 574 424 c 128,-1,53
 537 479 537 479 504 510 c 0,54,55
 463 549 463 549 413 549 c 0,56,57
 269 549 269 549 246 366 c 1,58,59
 259 370 259 370 281.5 379.5 c 128,-1,60
 304 389 304 389 321.5 394.5 c 128,-1,61
 339 400 339 400 355 400 c 0,62,63
 455 400 455 400 513 346 c 128,-1,64
 571 292 571 292 571 195 c 0,65,66
 571 0 571 0 325 0 c 0,67,68
 208 0 208 0 141.5 81 c 128,-1,69
 75 162 75 162 75 287 c 0,0,1
343 102 m 0,70,71
 392 102 392 102 413.5 127.5 c 128,-1,72
 435 153 435 153 438 207 c 1,73,74
 438 260 438 260 407 280.5 c 128,-1,75
 376 301 376 301 313 306 c 1,76,-1
 241 306 l 1,77,-1
 241 285 l 2,78,79
 241 241 241 241 244 214 c 128,-1,80
 247 187 247 187 256.5 158 c 128,-1,81
 266 129 266 129 287.5 115.5 c 128,-1,82
 309 102 309 102 343 102 c 0,70,71
EndSplineSet
EndChar

StartChar: uni0EA7
Encoding: 3751 3751 228
Width: 1406
GlyphClass: 2
Flags: W
LayerCount: 2
Fore
SplineSet
394 578 m 0,0,1
 504 578 504 578 565 529.5 c 128,-1,2
 626 481 626 481 626 381 c 0,3,4
 626 188 626 188 436 188 c 1,5,-1
 325 207 l 1,6,7
 422 104 422 104 689 104 c 0,8,9
 1138 104 1138 104 1138 501 c 2,10,-1
 1138 673 l 2,11,12
 1138 772 1138 772 1123.5 841 c 128,-1,13
 1109 910 1109 910 1078.5 958.5 c 128,-1,14
 1048 1007 1048 1007 995 1034 c 128,-1,15
 942 1061 942 1061 872 1073 c 128,-1,16
 802 1085 802 1085 701 1085 c 0,17,18
 268 1085 268 1085 260 770 c 1,19,-1
 112 770 l 1,20,21
 112 883 112 883 159.5 967 c 128,-1,22
 207 1051 207 1051 291 1099 c 128,-1,23
 375 1147 375 1147 479 1169.5 c 128,-1,24
 583 1192 583 1192 709 1192 c 0,25,26
 827 1192 827 1192 915.5 1179.5 c 128,-1,27
 1004 1167 1004 1167 1080.5 1136 c 128,-1,28
 1157 1105 1157 1105 1205.5 1053 c 128,-1,29
 1254 1001 1254 1001 1281 920.5 c 128,-1,30
 1308 840 1308 840 1308 731 c 2,31,-1
 1308 486 l 2,32,33
 1308 358 1308 358 1262.5 263 c 128,-1,34
 1217 168 1217 168 1133 111.5 c 128,-1,35
 1049 55 1049 55 939.5 27.5 c 128,-1,36
 830 0 830 0 693 0 c 0,37,38
 586 0 586 0 490.5 16.5 c 128,-1,39
 395 33 395 33 308 68.5 c 128,-1,40
 221 104 221 104 169.5 170.5 c 128,-1,41
 118 237 118 237 118 327 c 0,42,43
 118 448 118 448 192.5 513 c 128,-1,44
 267 578 267 578 394 578 c 0,0,1
304 273 m 2,45,46
 345 273 345 273 366.5 274 c 128,-1,47
 388 275 388 275 416 280.5 c 128,-1,48
 444 286 444 286 457.5 297 c 128,-1,49
 471 308 471 308 481 328.5 c 128,-1,50
 491 349 491 349 491 380 c 0,51,52
 491 433 491 433 467 457.5 c 128,-1,53
 443 482 443 482 391 482 c 0,54,55
 333 482 333 482 305 442.5 c 128,-1,56
 277 403 277 403 277 337 c 0,57,58
 277 313 277 313 286 273 c 1,59,-1
 304 273 l 2,45,46
EndSplineSet
EndChar

